#N canvas 253 144 1066 433 10;
#X obj 63 269 *~;
#X obj 130 269 *~;
#X obj 196 269 *~;
#X obj 267 273 *~;
#X obj 63 300 throw~ sp1;
#X obj 130 301 throw~ sp2;
#X obj 196 301 throw~ sp3;
#X obj 266 301 throw~ sp4;
#X obj 17 252 inlet~;
#X obj 335 269 *~;
#X obj 405 269 *~;
#X obj 335 301 throw~ sp5;
#X obj 405 301 throw~ sp6;
#X obj 85 213 unpack f f f f f f;
#X msg 3 -20 0.3 0 0 0 0 0;
#X msg 85 -20 0 0.3 0 0 0 0;
#X msg 172 -20 0 0 0.3 0 0 0;
#X msg 256 -20 0 0 0 0.3 0 0;
#X msg 339 -20 0 0 0 0 0.3 0;
#X msg 424 -20 0 0 0 0 0 0.3;
#X msg 519 4 0.3 0 0 0 0 0.3;
#X msg 694 37 0 0.3 0 0 0.3 0;
#X msg 864 78 0 0 0.3 0.3 0 0;
#X msg 892 196 0.2 0.2 0.2 0.2 0.2 0.2;
#X obj 79 242 r sp1;
#X obj 145 244 r sp2;
#X obj 211 245 r sp3;
#X obj 281 247 r sp4;
#X obj 350 246 r sp5;
#X obj 420 247 r sp6;
#X msg 535 26 0.3 0.3 0 0 0 0;
#X msg 551 45 0.3 0 0.3 0 0 0;
#X msg 567 66 0.3 0 0 0.3 0 0;
#X msg 583 88 0.3 0 0 0 0 0.3;
#X msg 715 57 0 0.3 0.3 0 0 0;
#X msg 737 77 0 0.3 0 0.3 0 0;
#X msg 759 98 0 0.3 0 0 0 0.3;
#X msg 818 37 0 0 0.3 0 0.3 0;
#X msg 841 58 0 0 0.3 0 0 0.3;
#X obj 257 -37 sel 0 1 2 3 4 5;
#X obj 519 -20 sel 6 7 8 9 10;
#X obj 694 -3 sel 11 12 13 14;
#X obj 818 14 sel 15 16 17;
#X msg 947 53 0 0 0 0.3 0.3 0;
#X msg 970 77 0 0 0 0.3 0 0.3;
#X obj 947 31 sel 18 19 20;
#X floatatom 365 -42 5 0 0 0 - - -;
#X msg 990 151 0 0 0 0 0 0 0;
#X obj 257 -59 random 25;
#X connect 0 0 4 0;
#X connect 1 0 5 0;
#X connect 2 0 6 0;
#X connect 3 0 7 0;
#X connect 8 0 0 0;
#X connect 8 0 1 0;
#X connect 8 0 2 0;
#X connect 8 0 3 0;
#X connect 8 0 9 0;
#X connect 8 0 10 0;
#X connect 9 0 11 0;
#X connect 10 0 12 0;
#X connect 13 0 0 1;
#X connect 13 1 1 1;
#X connect 13 2 2 1;
#X connect 13 3 3 1;
#X connect 13 4 9 1;
#X connect 13 5 10 1;
#X connect 14 0 13 0;
#X connect 15 0 13 0;
#X connect 16 0 13 0;
#X connect 17 0 13 0;
#X connect 18 0 13 0;
#X connect 19 0 13 0;
#X connect 20 0 13 0;
#X connect 21 0 13 0;
#X connect 22 0 13 0;
#X connect 23 0 13 0;
#X connect 24 0 0 1;
#X connect 25 0 1 1;
#X connect 26 0 2 1;
#X connect 27 0 3 1;
#X connect 28 0 9 1;
#X connect 29 0 10 1;
#X connect 30 0 13 0;
#X connect 31 0 13 0;
#X connect 32 0 13 0;
#X connect 33 0 13 0;
#X connect 34 0 13 0;
#X connect 35 0 13 0;
#X connect 36 0 13 0;
#X connect 37 0 13 0;
#X connect 38 0 13 0;
#X connect 39 0 14 0;
#X connect 39 1 15 0;
#X connect 39 2 16 0;
#X connect 39 3 17 0;
#X connect 39 4 18 0;
#X connect 39 5 19 0;
#X connect 39 6 40 0;
#X connect 40 0 20 0;
#X connect 40 1 30 0;
#X connect 40 2 31 0;
#X connect 40 3 32 0;
#X connect 40 4 33 0;
#X connect 40 5 41 0;
#X connect 41 0 21 0;
#X connect 41 1 34 0;
#X connect 41 2 35 0;
#X connect 41 3 36 0;
#X connect 41 4 42 0;
#X connect 42 0 37 0;
#X connect 42 1 38 0;
#X connect 42 2 22 0;
#X connect 42 3 45 0;
#X connect 43 0 13 0;
#X connect 44 0 13 0;
#X connect 45 0 43 0;
#X connect 45 1 44 0;
#X connect 45 2 23 0;
#X connect 45 3 47 0;
#X connect 47 0 13 0;
#X connect 48 0 39 0;
#X connect 48 0 46 0;
