#N canvas 84 101 1027 682 10;
#X obj 21 21 cnv 15 730 190 \$0-bg.gui \$0-bg.gui.r eq7.mmb~ 160 12
0 18 -141546 -200127 0;
#X obj 673 39 hsl 70 12 0 127 0 0 \$0-hp.freq.gui \$0-hp.freq.gui.r
freq 2 6 0 10 -87718 -200127 -200127 0 1;
#X obj 673 51 hsl 70 12 0 127 0 0 \$0-hp.res.gui \$0-hp.res.gui.r res
2 6 0 10 -87718 -200127 -200127 0 1;
#X obj 674 80 hsl 70 12 0 127 0 0 \$0-ls.freq.gui \$0-ls.freq.gui.r
freq 2 6 0 10 -87718 -200127 -200127 0 1;
#X obj 674 92 hsl 70 12 0 127 0 0 \$0-ls.slope.gui \$0-ls.slope.gui.r
slope 2 6 0 10 -87718 -200127 -200127 0 1;
#X obj 674 104 hsl 70 12 0 127 0 0 \$0-ls.gain.gui \$0-ls.gain.gui.r
gain 2 6 0 10 -87718 -200127 -200127 0 1;
#X obj 92 172 hsl 70 12 0 127 0 0 \$0-p1.freq.gui \$0-p1.freq.gui.r
freq 2 6 0 10 -87718 -200127 -200127 3733 1;
#X obj 92 184 hsl 70 12 0 127 0 0 \$0-p1.q.gui \$0-p1.q.gui.r q 2 6
0 10 -87718 -200127 -200127 4600 1;
#X obj 92 196 hsl 70 12 0 127 0 0 \$0-p1.gain.gui \$0-p1.gain.gui.r
gain 2 6 0 10 -87718 -200127 -200127 5750 1;
#X obj 172 172 hsl 70 12 0 127 0 0 \$0-p2.freq.gui \$0-p2.freq.gui.r
freq 2 6 0 10 -87718 -200127 -200127 3607 1;
#X obj 172 184 hsl 70 12 0 127 0 0 \$0-p2.q.gui \$0-p2.q.gui.r q 2
6 0 10 -87718 -200127 -200127 6900 1;
#X obj 172 196 hsl 70 12 0 127 0 0 \$0-p2.gain.gui \$0-p2.gain.gui.r
gain 2 6 0 10 -87718 -200127 -200127 5750 1;
#X obj 252 172 hsl 70 12 0 127 0 0 \$0-p3.freq.gui \$0-p3.freq.gui.r
freq 2 6 0 10 -87718 -200127 -200127 0 1;
#X obj 252 184 hsl 70 12 0 127 0 0 \$0-p3.q.gui \$0-p3.q.gui.r q 2
6 0 10 -87718 -200127 -200127 0 1;
#X obj 252 196 hsl 70 12 0 127 0 0 \$0-p3.gain.gui \$0-p3.gain.gui.r
gain 2 6 0 10 -87718 -200127 -200127 0 1;
#X obj 674 133 hsl 70 12 0 127 0 0 \$0-hs.freq.gui \$0-hs.freq.gui.r
freq 2 6 0 10 -87718 -200127 -200127 0 1;
#X obj 674 145 hsl 70 12 0 127 0 0 \$0-hs.slope.gui \$0-hs.slope.gui.r
slope 2 6 0 10 -87718 -200127 -200127 0 1;
#X obj 674 157 hsl 70 12 0 127 0 0 \$0-hs.gain.gui \$0-hs.gain.gui.r
gain 2 6 0 10 -87718 -200127 -200127 0 1;
#X obj 674 186 hsl 70 12 0 127 0 0 \$0-lp.freq.gui \$0-lp.freq.gui.r
freq 2 6 0 10 -87718 -200127 -200127 0 1;
#X obj 674 198 hsl 70 12 0 127 0 0 \$0-lp.res.gui \$0-lp.res.gui.r
res 2 6 0 10 -87718 -200127 -200127 0 1;
#X obj 374 225 inlet~;
#N canvas 736 22 541 588 gui 0;
#N canvas 111 323 728 664 highpass 0;
#X obj 278 90 trigger f f;
#X obj 278 147 / 127;
#X obj 278 249 + 20;
#X obj 278 432 - 20;
#X obj 278 509 * 127;
#X obj 278 543 change;
#X msg 278 572 set \$1;
#X msg 341 502 set \$1;
#X obj 278 43 r \$0-hp.freq.gui;
#X obj 278 600 s \$0-hp.freq.gui.r;
#X obj 68 316 s \$0-hp.active;
#X obj 68 367 r \$0-hp.active;
#X obj 68 43 r \$0-hp.active.gui;
#X obj 278 316 s \$0-hp.freq;
#X obj 278 367 r \$0-hp.freq;
#X obj 68 600 s \$0-hp.active.gui.r;
#X obj 488 90 trigger f f;
#X obj 488 167 / 127;
#X obj 488 489 * 127;
#X obj 488 543 change;
#X msg 488 572 set \$1;
#X msg 551 502 set \$1;
#X obj 488 43 r \$0-hp.res.gui;
#X obj 488 198 * 33;
#X obj 488 316 s \$0-hp.res;
#X obj 488 367 r \$0-hp.res;
#X obj 488 458 / 33;
#X obj 488 600 s \$0-hp.res.gui.r;
#X obj 488 263 dbtorms;
#X obj 488 395 rmstodb;
#X obj 488 229 + 97;
#X obj 488 422 - 97;
#X obj 278 198 * 136;
#X obj 305 171 r \$0-midi.range;
#X obj 299 227 r \$0-midi.min;
#X obj 278 478 / 136;
#X obj 305 457 r \$0-midi.range;
#X obj 299 411 r \$0-midi.min;
#X obj 278 271 mtof;
#X obj 278 390 ftom;
#X obj 68 95 f 0;
#X obj 94 95 + 1;
#X obj 120 95 % 2;
#X obj 68 68 t b;
#N canvas 0 22 453 366 color 0;
#X obj 108 57 inlet;
#X obj 108 99 sel 0 1;
#X obj 129 147 r \$0-button.colors.off;
#X obj 173 180 r \$0-button.colors.on;
#X obj 108 177 list;
#X msg 108 258 color \$1 \$1 \$2;
#X obj 152 205 list;
#X obj 108 285 outlet;
#X connect 0 0 1 0;
#X connect 1 0 4 0;
#X connect 1 1 6 0;
#X connect 2 0 4 1;
#X connect 3 0 6 1;
#X connect 4 0 5 0;
#X connect 5 0 7 0;
#X connect 6 0 5 0;
#X restore 68 571 pd color;
#X obj 95 68 r \$0-hp.active;
#X obj 312 343 save.me.mmb hpfreq \$0;
#X obj 100 342 save.me.mmb hpactive \$0;
#X obj 522 343 save.me.mmb hpres \$0;
#X connect 0 0 1 0;
#X connect 0 1 7 0;
#X connect 1 0 32 0;
#X connect 2 0 38 0;
#X connect 3 0 35 0;
#X connect 4 0 5 0;
#X connect 5 0 6 0;
#X connect 6 0 9 0;
#X connect 7 0 5 0;
#X connect 8 0 0 0;
#X connect 11 0 44 0;
#X connect 11 0 47 0;
#X connect 12 0 43 0;
#X connect 14 0 39 0;
#X connect 14 0 46 0;
#X connect 16 0 17 0;
#X connect 16 1 21 0;
#X connect 17 0 23 0;
#X connect 18 0 19 0;
#X connect 19 0 20 0;
#X connect 20 0 27 0;
#X connect 21 0 19 0;
#X connect 22 0 16 0;
#X connect 23 0 30 0;
#X connect 25 0 29 0;
#X connect 25 0 48 0;
#X connect 26 0 18 0;
#X connect 28 0 24 0;
#X connect 29 0 31 0;
#X connect 30 0 28 0;
#X connect 31 0 26 0;
#X connect 32 0 2 0;
#X connect 33 0 32 1;
#X connect 34 0 2 1;
#X connect 35 0 4 0;
#X connect 36 0 35 1;
#X connect 37 0 3 1;
#X connect 38 0 13 0;
#X connect 39 0 3 0;
#X connect 40 0 41 0;
#X connect 41 0 42 0;
#X connect 42 0 40 1;
#X connect 42 0 10 0;
#X connect 43 0 40 0;
#X connect 44 0 15 0;
#X connect 45 0 40 1;
#X connect 46 0 13 0;
#X connect 47 0 10 0;
#X connect 48 0 24 0;
#X restore 92 48 pd highpass;
#N canvas 418 22 867 649 lowshelf 0;
#X obj 488 90 trigger f f;
#X obj 488 167 / 127;
#X obj 488 489 * 127;
#X obj 488 543 change;
#X msg 488 572 set \$1;
#X msg 551 502 set \$1;
#X obj 488 43 r \$0-ls.slope.gui;
#X obj 488 208 * 26;
#X obj 488 268 dbtorms;
#X obj 488 458 / 26;
#X obj 488 399 rmstodb;
#X obj 488 316 s \$0-ls.slope;
#X obj 488 367 r \$0-ls.slope;
#X obj 488 600 s \$0-ls.slope.gui.r;
#X obj 688 90 trigger f f;
#X obj 688 187 / 127;
#X obj 688 489 * 127;
#X obj 688 543 change;
#X msg 688 572 set \$1;
#X msg 751 502 set \$1;
#X obj 688 43 r \$0-ls.gain.gui;
#X obj 688 228 * 60;
#X obj 688 316 s \$0-ls.gain;
#X obj 688 367 r \$0-ls.gain;
#X obj 688 458 / 60;
#X obj 688 600 s \$0-ls.gain.gui.r;
#X obj 488 239 + 80;
#X obj 488 432 - 80;
#X obj 688 259 - 30;
#X obj 688 432 + 30;
#X obj 278 90 trigger f f;
#X obj 278 147 / 127;
#X obj 278 249 + 20;
#X obj 278 432 - 20;
#X obj 278 509 * 127;
#X obj 278 543 change;
#X msg 278 572 set \$1;
#X msg 341 502 set \$1;
#X obj 278 198 * 136;
#X obj 305 171 r \$0-midi.range;
#X obj 299 227 r \$0-midi.min;
#X obj 278 478 / 136;
#X obj 305 457 r \$0-midi.range;
#X obj 299 411 r \$0-midi.min;
#X obj 278 271 mtof;
#X obj 278 390 ftom;
#X obj 278 43 r \$0-ls.freq.gui;
#X obj 278 316 s \$0-ls.freq;
#X obj 278 367 r \$0-ls.freq;
#X obj 278 600 s \$0-ls.freq.gui.r;
#X obj 68 95 f 0;
#X obj 94 95 + 1;
#X obj 120 95 % 2;
#X obj 68 68 t b;
#N canvas 0 22 453 366 color 0;
#X obj 108 57 inlet;
#X obj 108 99 sel 0 1;
#X obj 129 147 r \$0-button.colors.off;
#X obj 173 180 r \$0-button.colors.on;
#X obj 108 177 list;
#X msg 108 258 color \$1 \$1 \$2;
#X obj 152 205 list;
#X obj 108 285 outlet;
#X connect 0 0 1 0;
#X connect 1 0 4 0;
#X connect 1 1 6 0;
#X connect 2 0 4 1;
#X connect 3 0 6 1;
#X connect 4 0 5 0;
#X connect 5 0 7 0;
#X connect 6 0 5 0;
#X restore 68 571 pd color;
#X obj 68 43 r \$0-ls.active.gui;
#X obj 95 68 r \$0-ls.active;
#X obj 68 316 s \$0-ls.active;
#X obj 68 367 r \$0-ls.active;
#X obj 68 600 s \$0-ls.active.gui.r;
#X obj 108 343 save.me.mmb lsactive \$0;
#X obj 312 343 save.me.mmb lsfreq \$0;
#X obj 522 343 save.me.mmb lsres \$0;
#X obj 712 343 save.me.mmb lsgain \$0;
#X connect 0 0 1 0;
#X connect 0 1 5 0;
#X connect 1 0 7 0;
#X connect 2 0 3 0;
#X connect 3 0 4 0;
#X connect 4 0 13 0;
#X connect 5 0 3 0;
#X connect 6 0 0 0;
#X connect 7 0 26 0;
#X connect 8 0 11 0;
#X connect 9 0 2 0;
#X connect 10 0 27 0;
#X connect 12 0 10 0;
#X connect 12 0 62 0;
#X connect 14 0 15 0;
#X connect 14 1 19 0;
#X connect 15 0 21 0;
#X connect 16 0 17 0;
#X connect 17 0 18 0;
#X connect 18 0 25 0;
#X connect 19 0 17 0;
#X connect 20 0 14 0;
#X connect 21 0 28 0;
#X connect 23 0 29 0;
#X connect 23 0 63 0;
#X connect 24 0 16 0;
#X connect 26 0 8 0;
#X connect 27 0 9 0;
#X connect 28 0 22 0;
#X connect 29 0 24 0;
#X connect 30 0 31 0;
#X connect 30 1 37 0;
#X connect 31 0 38 0;
#X connect 32 0 44 0;
#X connect 33 0 41 0;
#X connect 34 0 35 0;
#X connect 35 0 36 0;
#X connect 36 0 49 0;
#X connect 37 0 35 0;
#X connect 38 0 32 0;
#X connect 39 0 38 1;
#X connect 40 0 32 1;
#X connect 41 0 34 0;
#X connect 42 0 41 1;
#X connect 43 0 33 1;
#X connect 44 0 47 0;
#X connect 45 0 33 0;
#X connect 46 0 30 0;
#X connect 48 0 45 0;
#X connect 48 0 61 0;
#X connect 50 0 51 0;
#X connect 51 0 52 0;
#X connect 52 0 50 1;
#X connect 52 0 57 0;
#X connect 53 0 50 0;
#X connect 54 0 59 0;
#X connect 55 0 53 0;
#X connect 56 0 50 1;
#X connect 58 0 54 0;
#X connect 58 0 60 0;
#X connect 60 0 57 0;
#X connect 61 0 47 0;
#X connect 62 0 11 0;
#X connect 63 0 22 0;
#X restore 92 78 pd lowshelf;
#N canvas 276 22 902 656 peak1 0;
#X obj 488 90 trigger f f;
#X obj 488 187 / 127;
#X obj 488 489 * 127;
#X obj 488 543 change;
#X msg 488 572 set \$1;
#X msg 551 502 set \$1;
#X obj 488 288 dbtorms;
#X obj 488 399 rmstodb;
#X obj 688 90 trigger f f;
#X obj 688 187 / 127;
#X obj 688 489 * 127;
#X obj 688 543 change;
#X msg 688 572 set \$1;
#X msg 751 502 set \$1;
#X obj 688 228 * 60;
#X obj 688 458 / 60;
#X obj 488 228 * 60;
#X obj 488 259 + 80;
#X obj 488 43 r \$0-p1.q.gui;
#X obj 488 316 s \$0-p1.q;
#X obj 488 367 r \$0-p1.q;
#X obj 488 600 s \$0-p1.q.gui.r;
#X obj 488 432 - 80;
#X obj 488 458 / 60;
#X obj 688 43 r \$0-p1.gain.gui;
#X obj 688 316 s \$0-p1.gain;
#X obj 688 367 r \$0-p1.gain;
#X obj 688 600 s \$0-p1.gain.gui.r;
#X obj 688 259 - 30;
#X obj 688 430 + 30;
#X obj 278 90 trigger f f;
#X obj 278 167 / 127;
#X obj 278 269 + 20;
#X obj 278 432 - 20;
#X obj 278 509 * 127;
#X obj 278 543 change;
#X msg 278 572 set \$1;
#X msg 341 502 set \$1;
#X obj 278 218 * 136;
#X obj 305 191 r \$0-midi.range;
#X obj 299 247 r \$0-midi.min;
#X obj 278 478 / 136;
#X obj 305 457 r \$0-midi.range;
#X obj 299 411 r \$0-midi.min;
#X obj 278 291 mtof;
#X obj 278 390 ftom;
#X obj 278 43 r \$0-p1.freq.gui;
#X obj 278 316 s \$0-p1.freq;
#X obj 278 367 r \$0-p1.freq;
#X obj 278 600 s \$0-p1.freq.gui.r;
#X obj 68 95 f 0;
#X obj 94 95 + 1;
#X obj 120 95 % 2;
#X obj 68 68 t b;
#N canvas 0 22 453 366 color 0;
#X obj 108 57 inlet;
#X obj 108 99 sel 0 1;
#X obj 129 147 r \$0-button.colors.off;
#X obj 173 180 r \$0-button.colors.on;
#X obj 108 177 list;
#X msg 108 258 color \$1 \$1 \$2;
#X obj 152 205 list;
#X obj 108 285 outlet;
#X connect 0 0 1 0;
#X connect 1 0 4 0;
#X connect 1 1 6 0;
#X connect 2 0 4 1;
#X connect 3 0 6 1;
#X connect 4 0 5 0;
#X connect 5 0 7 0;
#X connect 6 0 5 0;
#X restore 68 571 pd color;
#X obj 68 43 r \$0-p1.active.gui;
#X obj 95 68 r \$0-p1.active;
#X obj 68 316 s \$0-p1.active;
#X obj 68 367 r \$0-p1.active;
#X obj 68 600 s \$0-p1.active.gui.r;
#X obj 108 343 save.me.mmb pk1active \$0;
#X obj 312 343 save.me.mmb pk1freq \$0;
#X obj 522 343 save.me.mmb pk1res \$0;
#X obj 712 343 save.me.mmb pk1gain \$0;
#X connect 0 0 1 0;
#X connect 0 1 5 0;
#X connect 1 0 16 0;
#X connect 2 0 3 0;
#X connect 3 0 4 0;
#X connect 4 0 21 0;
#X connect 5 0 3 0;
#X connect 6 0 19 0;
#X connect 7 0 22 0;
#X connect 8 0 9 0;
#X connect 8 1 13 0;
#X connect 9 0 14 0;
#X connect 10 0 11 0;
#X connect 11 0 12 0;
#X connect 12 0 27 0;
#X connect 13 0 11 0;
#X connect 14 0 28 0;
#X connect 15 0 10 0;
#X connect 16 0 17 0;
#X connect 17 0 6 0;
#X connect 18 0 0 0;
#X connect 20 0 7 0;
#X connect 20 0 62 0;
#X connect 22 0 23 0;
#X connect 23 0 2 0;
#X connect 24 0 8 0;
#X connect 26 0 29 0;
#X connect 26 0 63 0;
#X connect 28 0 25 0;
#X connect 29 0 15 0;
#X connect 30 0 31 0;
#X connect 30 1 37 0;
#X connect 31 0 38 0;
#X connect 32 0 44 0;
#X connect 33 0 41 0;
#X connect 34 0 35 0;
#X connect 35 0 36 0;
#X connect 36 0 49 0;
#X connect 37 0 35 0;
#X connect 38 0 32 0;
#X connect 39 0 38 1;
#X connect 40 0 32 1;
#X connect 41 0 34 0;
#X connect 42 0 41 1;
#X connect 43 0 33 1;
#X connect 44 0 47 0;
#X connect 45 0 33 0;
#X connect 46 0 30 0;
#X connect 48 0 45 0;
#X connect 48 0 61 0;
#X connect 50 0 51 0;
#X connect 51 0 52 0;
#X connect 52 0 50 1;
#X connect 52 0 57 0;
#X connect 53 0 50 0;
#X connect 54 0 59 0;
#X connect 55 0 53 0;
#X connect 56 0 50 1;
#X connect 58 0 54 0;
#X connect 58 0 60 0;
#X connect 60 0 57 0;
#X connect 61 0 47 0;
#X connect 62 0 19 0;
#X connect 63 0 25 0;
#X restore 92 108 pd peak1;
#N canvas 276 22 902 656 peak2 0;
#X obj 488 90 trigger f f;
#X obj 488 187 / 127;
#X obj 488 489 * 127;
#X obj 488 543 change;
#X msg 488 572 set \$1;
#X msg 551 502 set \$1;
#X obj 488 288 dbtorms;
#X obj 488 399 rmstodb;
#X obj 688 90 trigger f f;
#X obj 688 187 / 127;
#X obj 688 489 * 127;
#X obj 688 543 change;
#X msg 688 572 set \$1;
#X msg 751 502 set \$1;
#X obj 688 228 * 60;
#X obj 688 458 / 60;
#X obj 488 228 * 60;
#X obj 488 259 + 80;
#X obj 488 432 - 80;
#X obj 488 458 / 60;
#X obj 488 43 r \$0-p2.q.gui;
#X obj 488 316 s \$0-p2.q;
#X obj 488 367 r \$0-p2.q;
#X obj 488 600 s \$0-p2.q.gui.r;
#X obj 688 43 r \$0-p2.gain.gui;
#X obj 688 316 s \$0-p2.gain;
#X obj 688 367 r \$0-p2.gain;
#X obj 688 600 s \$0-p2.gain.gui.r;
#X obj 688 259 - 30;
#X obj 688 432 + 30;
#X obj 278 90 trigger f f;
#X obj 278 167 / 127;
#X obj 278 269 + 20;
#X obj 278 432 - 20;
#X obj 278 509 * 127;
#X obj 278 543 change;
#X msg 278 572 set \$1;
#X msg 341 502 set \$1;
#X obj 278 218 * 136;
#X obj 305 191 r \$0-midi.range;
#X obj 299 247 r \$0-midi.min;
#X obj 278 478 / 136;
#X obj 305 457 r \$0-midi.range;
#X obj 299 411 r \$0-midi.min;
#X obj 278 291 mtof;
#X obj 278 390 ftom;
#X obj 278 43 r \$0-p2.freq.gui;
#X obj 278 316 s \$0-p2.freq;
#X obj 278 600 s \$0-p2.freq.gui.r;
#X obj 278 367 r \$0-p2.freq;
#X obj 68 95 f 0;
#X obj 94 95 + 1;
#X obj 120 95 % 2;
#X obj 68 68 t b;
#N canvas 0 22 453 366 color 0;
#X obj 108 57 inlet;
#X obj 108 99 sel 0 1;
#X obj 129 147 r \$0-button.colors.off;
#X obj 173 180 r \$0-button.colors.on;
#X obj 108 177 list;
#X msg 108 258 color \$1 \$1 \$2;
#X obj 152 205 list;
#X obj 108 285 outlet;
#X connect 0 0 1 0;
#X connect 1 0 4 0;
#X connect 1 1 6 0;
#X connect 2 0 4 1;
#X connect 3 0 6 1;
#X connect 4 0 5 0;
#X connect 5 0 7 0;
#X connect 6 0 5 0;
#X restore 68 571 pd color;
#X obj 68 43 r \$0-p2.active.gui;
#X obj 95 68 r \$0-p2.active;
#X obj 68 316 s \$0-p2.active;
#X obj 68 367 r \$0-p2.active;
#X obj 68 600 s \$0-p2.active.gui.r;
#X obj 108 343 save.me.mmb pk2active \$0;
#X obj 312 343 save.me.mmb pk2freq \$0;
#X obj 522 343 save.me.mmb pk2res \$0;
#X obj 712 343 save.me.mmb pk2gain \$0;
#X connect 0 0 1 0;
#X connect 0 1 5 0;
#X connect 1 0 16 0;
#X connect 2 0 3 0;
#X connect 3 0 4 0;
#X connect 4 0 23 0;
#X connect 5 0 3 0;
#X connect 6 0 21 0;
#X connect 7 0 18 0;
#X connect 8 0 9 0;
#X connect 8 1 13 0;
#X connect 9 0 14 0;
#X connect 10 0 11 0;
#X connect 11 0 12 0;
#X connect 12 0 27 0;
#X connect 13 0 11 0;
#X connect 14 0 28 0;
#X connect 15 0 10 0;
#X connect 16 0 17 0;
#X connect 17 0 6 0;
#X connect 18 0 19 0;
#X connect 19 0 2 0;
#X connect 20 0 0 0;
#X connect 22 0 7 0;
#X connect 22 0 62 0;
#X connect 24 0 8 0;
#X connect 26 0 29 0;
#X connect 26 0 63 0;
#X connect 28 0 25 0;
#X connect 29 0 15 0;
#X connect 30 0 31 0;
#X connect 30 1 37 0;
#X connect 31 0 38 0;
#X connect 32 0 44 0;
#X connect 33 0 41 0;
#X connect 34 0 35 0;
#X connect 35 0 36 0;
#X connect 36 0 48 0;
#X connect 37 0 35 0;
#X connect 38 0 32 0;
#X connect 39 0 38 1;
#X connect 40 0 32 1;
#X connect 41 0 34 0;
#X connect 42 0 41 1;
#X connect 43 0 33 1;
#X connect 44 0 47 0;
#X connect 45 0 33 0;
#X connect 46 0 30 0;
#X connect 49 0 45 0;
#X connect 49 0 61 0;
#X connect 50 0 51 0;
#X connect 51 0 52 0;
#X connect 52 0 50 1;
#X connect 52 0 57 0;
#X connect 53 0 50 0;
#X connect 54 0 59 0;
#X connect 55 0 53 0;
#X connect 56 0 50 1;
#X connect 58 0 54 0;
#X connect 58 0 60 0;
#X connect 60 0 57 0;
#X connect 61 0 47 0;
#X connect 62 0 21 0;
#X connect 63 0 25 0;
#X restore 92 138 pd peak2;
#N canvas 276 22 902 656 peak3 0;
#X obj 488 90 trigger f f;
#X obj 488 187 / 127;
#X obj 488 489 * 127;
#X obj 488 543 change;
#X msg 488 572 set \$1;
#X msg 551 502 set \$1;
#X obj 488 288 dbtorms;
#X obj 488 399 rmstodb;
#X obj 688 90 trigger f f;
#X obj 688 187 / 127;
#X obj 688 489 * 127;
#X obj 688 543 change;
#X msg 688 572 set \$1;
#X msg 751 502 set \$1;
#X obj 688 228 * 60;
#X obj 688 458 / 60;
#X obj 488 228 * 60;
#X obj 488 259 + 80;
#X obj 488 432 - 80;
#X obj 488 458 / 60;
#X obj 488 43 r \$0-p3.q.gui;
#X obj 488 316 s \$0-p3.q;
#X obj 488 367 r \$0-p3.q;
#X obj 488 600 s \$0-p3.q.gui.r;
#X obj 688 43 r \$0-p3.gain.gui;
#X obj 688 316 s \$0-p3.gain;
#X obj 688 367 r \$0-p3.gain;
#X obj 688 600 s \$0-p3.gain.gui.r;
#X obj 688 259 - 30;
#X obj 688 432 + 30;
#X obj 278 90 trigger f f;
#X obj 278 167 / 127;
#X obj 278 269 + 20;
#X obj 278 432 - 20;
#X obj 278 509 * 127;
#X obj 278 543 change;
#X msg 278 572 set \$1;
#X msg 341 502 set \$1;
#X obj 278 218 * 136;
#X obj 305 191 r \$0-midi.range;
#X obj 299 247 r \$0-midi.min;
#X obj 278 478 / 136;
#X obj 305 457 r \$0-midi.range;
#X obj 299 411 r \$0-midi.min;
#X obj 278 291 mtof;
#X obj 278 390 ftom;
#X obj 278 43 r \$0-p3.freq.gui;
#X obj 278 316 s \$0-p3.freq;
#X obj 278 367 r \$0-p3.freq;
#X obj 278 600 s \$0-p3.freq.gui.r;
#X obj 68 95 f 0;
#X obj 94 95 + 1;
#X obj 120 95 % 2;
#X obj 68 68 t b;
#N canvas 0 22 453 366 color 0;
#X obj 108 57 inlet;
#X obj 108 99 sel 0 1;
#X obj 129 147 r \$0-button.colors.off;
#X obj 173 180 r \$0-button.colors.on;
#X obj 108 177 list;
#X msg 108 258 color \$1 \$1 \$2;
#X obj 152 205 list;
#X obj 108 285 outlet;
#X connect 0 0 1 0;
#X connect 1 0 4 0;
#X connect 1 1 6 0;
#X connect 2 0 4 1;
#X connect 3 0 6 1;
#X connect 4 0 5 0;
#X connect 5 0 7 0;
#X connect 6 0 5 0;
#X restore 68 571 pd color;
#X obj 68 43 r \$0-p3.active.gui;
#X obj 95 68 r \$0-p3.active;
#X obj 68 316 s \$0-p3.active;
#X obj 68 367 r \$0-p3.active;
#X obj 68 600 s \$0-p3.active.gui.r;
#X obj 108 343 save.me.mmb pk3active \$0;
#X obj 312 343 save.me.mmb pk3freq \$0;
#X obj 522 343 save.me.mmb pk3res \$0;
#X obj 712 343 save.me.mmb pk3gain \$0;
#X connect 0 0 1 0;
#X connect 0 1 5 0;
#X connect 1 0 16 0;
#X connect 2 0 3 0;
#X connect 3 0 4 0;
#X connect 4 0 23 0;
#X connect 5 0 3 0;
#X connect 6 0 21 0;
#X connect 7 0 18 0;
#X connect 8 0 9 0;
#X connect 8 1 13 0;
#X connect 9 0 14 0;
#X connect 10 0 11 0;
#X connect 11 0 12 0;
#X connect 12 0 27 0;
#X connect 13 0 11 0;
#X connect 14 0 28 0;
#X connect 15 0 10 0;
#X connect 16 0 17 0;
#X connect 17 0 6 0;
#X connect 18 0 19 0;
#X connect 19 0 2 0;
#X connect 20 0 0 0;
#X connect 22 0 7 0;
#X connect 22 0 62 0;
#X connect 24 0 8 0;
#X connect 26 0 29 0;
#X connect 26 0 63 0;
#X connect 28 0 25 0;
#X connect 29 0 15 0;
#X connect 30 0 31 0;
#X connect 30 1 37 0;
#X connect 31 0 38 0;
#X connect 32 0 44 0;
#X connect 33 0 41 0;
#X connect 34 0 35 0;
#X connect 35 0 36 0;
#X connect 36 0 49 0;
#X connect 37 0 35 0;
#X connect 38 0 32 0;
#X connect 39 0 38 1;
#X connect 40 0 32 1;
#X connect 41 0 34 0;
#X connect 42 0 41 1;
#X connect 43 0 33 1;
#X connect 44 0 47 0;
#X connect 45 0 33 0;
#X connect 46 0 30 0;
#X connect 48 0 45 0;
#X connect 48 0 61 0;
#X connect 50 0 51 0;
#X connect 51 0 52 0;
#X connect 52 0 50 1;
#X connect 52 0 57 0;
#X connect 53 0 50 0;
#X connect 54 0 59 0;
#X connect 55 0 53 0;
#X connect 56 0 50 1;
#X connect 58 0 54 0;
#X connect 58 0 60 0;
#X connect 60 0 57 0;
#X connect 61 0 47 0;
#X connect 62 0 21 0;
#X connect 63 0 25 0;
#X restore 92 168 pd peak3;
#N canvas 418 22 867 649 highshelf 0;
#X obj 488 90 trigger f f;
#X obj 488 187 / 127;
#X obj 488 489 * 127;
#X obj 488 543 change;
#X msg 488 572 set \$1;
#X msg 551 502 set \$1;
#X obj 488 228 * 26;
#X obj 488 288 dbtorms;
#X obj 488 458 / 26;
#X obj 488 399 rmstodb;
#X obj 688 90 trigger f f;
#X obj 688 187 / 127;
#X obj 688 489 * 127;
#X obj 688 543 change;
#X msg 688 572 set \$1;
#X msg 751 502 set \$1;
#X obj 688 228 * 60;
#X obj 688 458 / 60;
#X obj 488 259 + 80;
#X obj 488 432 - 80;
#X obj 488 43 r \$0-hs.slope.gui;
#X obj 488 316 s \$0-hs.slope;
#X obj 488 367 r \$0-hs.slope;
#X obj 488 600 s \$0-hs.slope.gui.r;
#X obj 688 43 r \$0-hs.gain.gui;
#X obj 688 316 s \$0-hs.gain;
#X obj 688 367 r \$0-hs.gain;
#X obj 688 600 s \$0-hs.gain.gui.r;
#X obj 688 259 - 30;
#X obj 688 432 + 30;
#X obj 278 90 trigger f f;
#X obj 278 167 / 127;
#X obj 278 269 + 20;
#X obj 278 432 - 20;
#X obj 278 509 * 127;
#X obj 278 543 change;
#X msg 278 572 set \$1;
#X msg 341 502 set \$1;
#X obj 278 218 * 136;
#X obj 305 191 r \$0-midi.range;
#X obj 299 247 r \$0-midi.min;
#X obj 278 478 / 136;
#X obj 305 457 r \$0-midi.range;
#X obj 299 411 r \$0-midi.min;
#X obj 278 291 mtof;
#X obj 278 390 ftom;
#X obj 278 43 r \$0-hs.freq.gui;
#X obj 278 316 s \$0-hs.freq;
#X obj 278 367 r \$0-hs.freq;
#X obj 278 600 s \$0-hs.freq.gui.r;
#X obj 68 95 f 0;
#X obj 94 95 + 1;
#X obj 120 95 % 2;
#X obj 68 68 t b;
#N canvas 0 22 453 366 color 0;
#X obj 108 57 inlet;
#X obj 108 99 sel 0 1;
#X obj 129 147 r \$0-button.colors.off;
#X obj 173 180 r \$0-button.colors.on;
#X obj 108 177 list;
#X msg 108 258 color \$1 \$1 \$2;
#X obj 152 205 list;
#X obj 108 285 outlet;
#X connect 0 0 1 0;
#X connect 1 0 4 0;
#X connect 1 1 6 0;
#X connect 2 0 4 1;
#X connect 3 0 6 1;
#X connect 4 0 5 0;
#X connect 5 0 7 0;
#X connect 6 0 5 0;
#X restore 68 571 pd color;
#X obj 68 43 r \$0-hs.active.gui;
#X obj 95 68 r \$0-hs.active;
#X obj 68 316 s \$0-hs.active;
#X obj 68 367 r \$0-hs.active;
#X obj 68 600 s \$0-hs.active.gui.r;
#X obj 108 343 save.me.mmb hsactive \$0;
#X obj 312 343 save.me.mmb hsfreq \$0;
#X obj 522 343 save.me.mmb hsres \$0;
#X obj 712 343 save.me.mmb hsgain \$0;
#X connect 0 0 1 0;
#X connect 0 1 5 0;
#X connect 1 0 6 0;
#X connect 2 0 3 0;
#X connect 3 0 4 0;
#X connect 4 0 23 0;
#X connect 5 0 3 0;
#X connect 6 0 18 0;
#X connect 7 0 21 0;
#X connect 8 0 2 0;
#X connect 9 0 19 0;
#X connect 10 0 11 0;
#X connect 10 1 15 0;
#X connect 11 0 16 0;
#X connect 12 0 13 0;
#X connect 13 0 14 0;
#X connect 14 0 27 0;
#X connect 15 0 13 0;
#X connect 16 0 28 0;
#X connect 17 0 12 0;
#X connect 18 0 7 0;
#X connect 19 0 8 0;
#X connect 20 0 0 0;
#X connect 22 0 9 0;
#X connect 22 0 62 0;
#X connect 24 0 10 0;
#X connect 26 0 29 0;
#X connect 26 0 63 0;
#X connect 28 0 25 0;
#X connect 29 0 17 0;
#X connect 30 0 31 0;
#X connect 30 1 37 0;
#X connect 31 0 38 0;
#X connect 32 0 44 0;
#X connect 33 0 41 0;
#X connect 34 0 35 0;
#X connect 35 0 36 0;
#X connect 36 0 49 0;
#X connect 37 0 35 0;
#X connect 38 0 32 0;
#X connect 39 0 38 1;
#X connect 40 0 32 1;
#X connect 41 0 34 0;
#X connect 42 0 41 1;
#X connect 43 0 33 1;
#X connect 44 0 47 0;
#X connect 45 0 33 0;
#X connect 46 0 30 0;
#X connect 48 0 45 0;
#X connect 48 0 61 0;
#X connect 50 0 51 0;
#X connect 51 0 52 0;
#X connect 52 0 50 1;
#X connect 52 0 57 0;
#X connect 53 0 50 0;
#X connect 54 0 59 0;
#X connect 55 0 53 0;
#X connect 56 0 50 1;
#X connect 58 0 54 0;
#X connect 58 0 60 0;
#X connect 60 0 57 0;
#X connect 61 0 47 0;
#X connect 62 0 21 0;
#X connect 63 0 25 0;
#X restore 91 302 pd highshelf;
#N canvas 418 22 726 679 lowpass 0;
#X obj 488 90 trigger f f;
#X obj 488 167 / 127;
#X obj 488 489 * 127;
#X obj 488 543 change;
#X msg 488 572 set \$1;
#X msg 551 502 set \$1;
#X obj 488 198 * 33;
#X obj 488 458 / 33;
#X obj 488 283 dbtorms;
#X obj 488 395 rmstodb;
#X obj 488 229 + 97;
#X obj 488 422 - 97;
#X obj 488 43 r \$0-lp.res.gui;
#X obj 488 316 s \$0-lp.res;
#X obj 488 367 r \$0-lp.res;
#X obj 488 600 s \$0-lp.res.gui.r;
#X obj 278 90 trigger f f;
#X obj 278 167 / 127;
#X obj 278 269 + 20;
#X obj 278 432 - 20;
#X obj 278 509 * 127;
#X obj 278 543 change;
#X msg 278 572 set \$1;
#X msg 341 502 set \$1;
#X obj 278 218 * 136;
#X obj 305 191 r \$0-midi.range;
#X obj 299 247 r \$0-midi.min;
#X obj 278 478 / 136;
#X obj 305 457 r \$0-midi.range;
#X obj 299 411 r \$0-midi.min;
#X obj 278 291 mtof;
#X obj 278 390 ftom;
#X obj 278 43 r \$0-lp.freq.gui;
#X obj 278 316 s \$0-lp.freq;
#X obj 278 367 r \$0-lp.freq;
#X obj 278 600 s \$0-lp.freq.gui.r;
#X obj 68 95 f 0;
#X obj 94 95 + 1;
#X obj 120 95 % 2;
#X obj 68 68 t b;
#N canvas 0 22 453 366 color 0;
#X obj 108 57 inlet;
#X obj 108 99 sel 0 1;
#X obj 129 147 r \$0-button.colors.off;
#X obj 173 180 r \$0-button.colors.on;
#X obj 108 177 list;
#X msg 108 258 color \$1 \$1 \$2;
#X obj 152 205 list;
#X obj 108 285 outlet;
#X connect 0 0 1 0;
#X connect 1 0 4 0;
#X connect 1 1 6 0;
#X connect 2 0 4 1;
#X connect 3 0 6 1;
#X connect 4 0 5 0;
#X connect 5 0 7 0;
#X connect 6 0 5 0;
#X restore 68 571 pd color;
#X obj 68 43 r \$0-lp.active.gui;
#X obj 95 68 r \$0-lp.active;
#X obj 68 316 s \$0-lp.active;
#X obj 68 367 r \$0-lp.active;
#X obj 68 600 s \$0-lp.active.gui.r;
#X obj 108 343 save.me.mmb lpactive \$0;
#X obj 312 343 save.me.mmb lpfreq \$0;
#X obj 522 343 save.me.mmb lpres \$0;
#X connect 0 0 1 0;
#X connect 0 1 5 0;
#X connect 1 0 6 0;
#X connect 2 0 3 0;
#X connect 3 0 4 0;
#X connect 4 0 15 0;
#X connect 5 0 3 0;
#X connect 6 0 10 0;
#X connect 7 0 2 0;
#X connect 8 0 13 0;
#X connect 9 0 11 0;
#X connect 10 0 8 0;
#X connect 11 0 7 0;
#X connect 12 0 0 0;
#X connect 14 0 9 0;
#X connect 14 0 48 0;
#X connect 16 0 17 0;
#X connect 16 1 23 0;
#X connect 17 0 24 0;
#X connect 18 0 30 0;
#X connect 19 0 27 0;
#X connect 20 0 21 0;
#X connect 21 0 22 0;
#X connect 22 0 35 0;
#X connect 23 0 21 0;
#X connect 24 0 18 0;
#X connect 25 0 24 1;
#X connect 26 0 18 1;
#X connect 27 0 20 0;
#X connect 28 0 27 1;
#X connect 29 0 19 1;
#X connect 30 0 33 0;
#X connect 31 0 19 0;
#X connect 32 0 16 0;
#X connect 34 0 31 0;
#X connect 34 0 47 0;
#X connect 36 0 37 0;
#X connect 37 0 38 0;
#X connect 38 0 36 1;
#X connect 38 0 43 0;
#X connect 39 0 36 0;
#X connect 40 0 45 0;
#X connect 41 0 39 0;
#X connect 42 0 36 1;
#X connect 44 0 40 0;
#X connect 44 0 46 0;
#X connect 46 0 43 0;
#X connect 47 0 33 0;
#X connect 48 0 13 0;
#X restore 91 332 pd lowpass;
#N canvas 194 180 983 711 left.side 0;
#X obj 78 105 f 0;
#X obj 104 105 + 1;
#X obj 130 105 % 2;
#X obj 78 78 t b;
#N canvas 0 22 453 366 color 0;
#X obj 108 57 inlet;
#X obj 108 99 sel 0 1;
#X obj 129 147 r \$0-button.colors.off;
#X obj 173 180 r \$0-button.colors.on;
#X obj 108 177 list;
#X msg 108 258 color \$1 \$1 \$2;
#X obj 152 205 list;
#X obj 108 285 outlet;
#X connect 0 0 1 0;
#X connect 1 0 4 0;
#X connect 1 1 6 0;
#X connect 2 0 4 1;
#X connect 3 0 6 1;
#X connect 4 0 5 0;
#X connect 5 0 7 0;
#X connect 6 0 5 0;
#X restore 78 581 pd color;
#X obj 278 105 f 0;
#X obj 304 105 + 1;
#X obj 330 105 % 2;
#X obj 278 78 t b;
#N canvas 0 22 453 366 color 0;
#X obj 108 57 inlet;
#X obj 108 99 sel 0 1;
#X obj 129 147 r \$0-button.colors.off;
#X obj 173 180 r \$0-button.colors.on;
#X obj 108 177 list;
#X msg 108 258 color \$1 \$1 \$2;
#X obj 152 205 list;
#X obj 108 285 outlet;
#X connect 0 0 1 0;
#X connect 1 0 4 0;
#X connect 1 1 6 0;
#X connect 2 0 4 1;
#X connect 3 0 6 1;
#X connect 4 0 5 0;
#X connect 5 0 7 0;
#X connect 6 0 5 0;
#X restore 296 581 pd color;
#X obj 78 53 r \$0-analyze.active.gui;
#X obj 105 78 r \$0-analyze.active;
#X obj 78 326 s \$0-analyze.active;
#X obj 78 377 r \$0-analyze.active;
#X obj 78 610 s \$0-analyze.active.gui.r;
#X obj 278 53 r \$0-analyze.pos.gui;
#X obj 305 78 r \$0-analyze.pos;
#X obj 278 326 s \$0-analyze.pos;
#X obj 278 377 r \$0-analyze.pos;
#X obj 278 610 s \$0-analyze.pos.gui.r;
#N canvas 0 22 450 300 label 0;
#X obj 77 66 inlet;
#X obj 77 101 sel 0 1;
#X msg 74 178 label pre;
#X msg 154 178 label post;
#X obj 94 233 outlet;
#X connect 0 0 1 0;
#X connect 1 0 2 0;
#X connect 1 1 3 0;
#X connect 2 0 4 0;
#X connect 3 0 4 0;
#X restore 278 483 pd label;
#X obj 478 105 f 0;
#X obj 504 105 + 1;
#X obj 478 78 t b;
#N canvas 0 22 453 366 color 0;
#X obj 108 57 inlet;
#X obj 108 99 sel 0 1;
#X obj 129 147 r \$0-button.colors.off;
#X obj 173 180 r \$0-button.colors.on;
#X obj 108 177 list;
#X msg 108 258 color \$1 \$1 \$2;
#X obj 152 205 list;
#X obj 108 285 outlet;
#X connect 0 0 1 0;
#X connect 1 0 4 0;
#X connect 1 1 6 0;
#X connect 2 0 4 1;
#X connect 3 0 6 1;
#X connect 4 0 5 0;
#X connect 5 0 7 0;
#X connect 6 0 5 0;
#X restore 496 579 pd color;
#N canvas 0 22 480 402 label 0;
#X obj 77 66 inlet;
#X obj 97 292 outlet;
#X msg 73 198 label lowres;
#X msg 93 218 label medres;
#X msg 113 238 label hires;
#X obj 77 101 sel 0 1 2;
#X connect 0 0 5 0;
#X connect 2 0 1 0;
#X connect 3 0 1 0;
#X connect 4 0 1 0;
#X connect 5 0 2 0;
#X connect 5 1 3 0;
#X connect 5 2 4 0;
#X restore 478 483 pd label;
#X obj 478 53 r \$0-analyze.res.gui;
#X obj 505 78 r \$0-analyze.res;
#X obj 530 105 % 3;
#X obj 478 326 s \$0-analyze.res;
#X obj 478 377 r \$0-analyze.res;
#X obj 478 610 s \$0-analyze.res.gui.r;
#X obj 688 100 trigger f f;
#X obj 688 553 change;
#X msg 688 582 set \$1;
#X msg 751 512 set \$1;
#X obj 688 53 r \$0-gain.gui;
#X obj 688 326 s \$0-gain;
#X obj 688 377 r \$0-gain;
#X obj 688 610 s \$0-gain.gui.r;
#N canvas 0 22 450 300 state 0;
#X obj 120 66 inlet;
#X msg 120 121 1;
#X obj 164 122 delay 100;
#X msg 164 147 0;
#X obj 120 191 outlet;
#X connect 0 0 1 0;
#X connect 0 0 2 0;
#X connect 1 0 4 0;
#X connect 2 0 3 0;
#X connect 3 0 4 0;
#X restore 296 543 pd state;
#N canvas 0 22 450 300 state 0;
#X obj 120 66 inlet;
#X msg 120 121 1;
#X obj 164 122 delay 100;
#X msg 164 147 0;
#X obj 120 191 outlet;
#X connect 0 0 1 0;
#X connect 0 0 2 0;
#X connect 1 0 4 0;
#X connect 2 0 3 0;
#X connect 3 0 4 0;
#X restore 496 543 pd state;
#X obj 296 516 t b;
#X obj 496 516 t b;
#X obj 688 208 iemlib/fadtorms;
#X obj 688 433 iemlib/rmstofad;
#X floatatom 827 294 5 0 0 0 - - -;
#X obj 708 351 save.me.mmb gain \$0;
#X connect 0 0 1 0;
#X connect 1 0 2 0;
#X connect 2 0 0 1;
#X connect 2 0 12 0;
#X connect 3 0 0 0;
#X connect 4 0 14 0;
#X connect 5 0 6 0;
#X connect 6 0 7 0;
#X connect 7 0 5 1;
#X connect 7 0 17 0;
#X connect 8 0 5 0;
#X connect 9 0 19 0;
#X connect 10 0 3 0;
#X connect 11 0 0 1;
#X connect 13 0 4 0;
#X connect 15 0 8 0;
#X connect 16 0 5 1;
#X connect 18 0 20 0;
#X connect 18 0 42 0;
#X connect 20 0 19 0;
#X connect 21 0 22 0;
#X connect 22 0 28 0;
#X connect 23 0 21 0;
#X connect 24 0 31 0;
#X connect 25 0 31 0;
#X connect 26 0 23 0;
#X connect 27 0 21 1;
#X connect 28 0 21 1;
#X connect 28 0 29 0;
#X connect 30 0 25 0;
#X connect 30 0 43 0;
#X connect 32 0 44 0;
#X connect 32 1 35 0;
#X connect 33 0 34 0;
#X connect 34 0 39 0;
#X connect 35 0 33 0;
#X connect 36 0 32 0;
#X connect 38 0 45 0;
#X connect 38 0 47 0;
#X connect 40 0 9 0;
#X connect 41 0 24 0;
#X connect 42 0 40 0;
#X connect 43 0 41 0;
#X connect 44 0 37 0;
#X connect 44 0 46 0;
#X connect 45 0 33 0;
#X connect 47 0 37 0;
#X restore 92 377 pd left.side;
#N canvas 158 22 959 669 top.row 0;
#X obj 58 85 f 0;
#X obj 84 85 + 1;
#X obj 110 85 % 2;
#X obj 58 58 t b;
#N canvas 0 22 453 366 color 0;
#X obj 108 57 inlet;
#X obj 108 99 sel 0 1;
#X obj 129 147 r \$0-button.colors.off;
#X obj 173 180 r \$0-button.colors.on;
#X obj 108 177 list;
#X msg 108 258 color \$1 \$1 \$2;
#X obj 152 205 list;
#X obj 108 285 outlet;
#X connect 0 0 1 0;
#X connect 1 0 4 0;
#X connect 1 1 6 0;
#X connect 2 0 4 1;
#X connect 3 0 6 1;
#X connect 4 0 5 0;
#X connect 5 0 7 0;
#X connect 6 0 5 0;
#X restore 58 561 pd color;
#X obj 58 33 r \$0-bypass.gui;
#X obj 85 58 r \$0-bypass;
#X obj 58 306 s \$0-bypass;
#X obj 58 357 r \$0-bypass;
#X obj 58 590 s \$0-bypass.gui.r;
#X obj 238 58 t b;
#N canvas 0 22 453 366 color 0;
#X obj 108 57 inlet;
#X obj 108 99 sel 0 1;
#X obj 129 147 r \$0-button.colors.off;
#X obj 173 180 r \$0-button.colors.on;
#X obj 108 177 list;
#X msg 108 258 color \$1 \$1 \$2;
#X obj 152 205 list;
#X obj 108 285 outlet;
#X connect 0 0 1 0;
#X connect 1 0 4 0;
#X connect 1 1 6 0;
#X connect 2 0 4 1;
#X connect 3 0 6 1;
#X connect 4 0 5 0;
#X connect 5 0 7 0;
#X connect 6 0 5 0;
#X restore 238 561 pd color;
#X obj 238 33 r \$0-dump.gui;
#X obj 238 306 s \$0-dump;
#X obj 238 357 r \$0-dump;
#X obj 238 590 s \$0-dump.gui.r;
#N canvas 0 22 450 300 state 0;
#X obj 120 66 inlet;
#X msg 120 121 1;
#X obj 164 122 delay 100;
#X msg 164 147 0;
#X obj 120 191 outlet;
#X connect 0 0 1 0;
#X connect 0 0 2 0;
#X connect 1 0 4 0;
#X connect 2 0 3 0;
#X connect 3 0 4 0;
#X restore 238 503 pd state;
#X obj 378 58 t b;
#N canvas 0 22 453 366 color 0;
#X obj 108 57 inlet;
#X obj 108 99 sel 0 1;
#X obj 129 147 r \$0-button.colors.off;
#X obj 173 180 r \$0-button.colors.on;
#X obj 108 177 list;
#X msg 108 258 color \$1 \$1 \$2;
#X obj 152 205 list;
#X obj 108 285 outlet;
#X connect 0 0 1 0;
#X connect 1 0 4 0;
#X connect 1 1 6 0;
#X connect 2 0 4 1;
#X connect 3 0 6 1;
#X connect 4 0 5 0;
#X connect 5 0 7 0;
#X connect 6 0 5 0;
#X restore 378 561 pd color;
#N canvas 0 22 450 300 state 0;
#X obj 120 66 inlet;
#X msg 120 121 1;
#X obj 164 122 delay 100;
#X msg 164 147 0;
#X obj 120 191 outlet;
#X connect 0 0 1 0;
#X connect 0 0 2 0;
#X connect 1 0 4 0;
#X connect 2 0 3 0;
#X connect 3 0 4 0;
#X restore 378 503 pd state;
#X obj 378 33 r \$0-save.gui;
#X obj 378 306 s \$0-save;
#X obj 378 357 r \$0-save;
#X obj 378 590 s \$0-save.gui.r;
#X obj 518 58 t b;
#N canvas 0 22 453 366 color 0;
#X obj 108 57 inlet;
#X obj 108 99 sel 0 1;
#X obj 129 147 r \$0-button.colors.off;
#X obj 173 180 r \$0-button.colors.on;
#X obj 108 177 list;
#X msg 108 258 color \$1 \$1 \$2;
#X obj 152 205 list;
#X obj 108 285 outlet;
#X connect 0 0 1 0;
#X connect 1 0 4 0;
#X connect 1 1 6 0;
#X connect 2 0 4 1;
#X connect 3 0 6 1;
#X connect 4 0 5 0;
#X connect 5 0 7 0;
#X connect 6 0 5 0;
#X restore 518 561 pd color;
#N canvas 0 22 450 300 state 0;
#X obj 120 66 inlet;
#X msg 120 121 1;
#X obj 164 122 delay 100;
#X msg 164 147 0;
#X obj 120 191 outlet;
#X connect 0 0 1 0;
#X connect 0 0 2 0;
#X connect 1 0 4 0;
#X connect 2 0 3 0;
#X connect 3 0 4 0;
#X restore 518 503 pd state;
#X obj 518 33 r \$0-load.gui;
#X obj 518 306 s \$0-load;
#X obj 518 357 r \$0-load;
#X obj 518 590 s \$0-load.gui.r;
#X obj 83 332 save.me.mmb bypass \$0;
#X connect 0 0 1 0;
#X connect 1 0 2 0;
#X connect 2 0 0 1;
#X connect 2 0 7 0;
#X connect 3 0 0 0;
#X connect 4 0 9 0;
#X connect 5 0 3 0;
#X connect 6 0 0 1;
#X connect 8 0 4 0;
#X connect 8 0 31 0;
#X connect 10 0 13 0;
#X connect 11 0 15 0;
#X connect 12 0 10 0;
#X connect 14 0 16 0;
#X connect 16 0 11 0;
#X connect 17 0 21 0;
#X connect 18 0 23 0;
#X connect 19 0 18 0;
#X connect 20 0 17 0;
#X connect 22 0 19 0;
#X connect 24 0 28 0;
#X connect 25 0 30 0;
#X connect 26 0 25 0;
#X connect 27 0 24 0;
#X connect 29 0 26 0;
#X connect 31 0 7 0;
#X restore 92 406 pd top.row;
#N canvas 276 22 902 656 peak4 0;
#X obj 488 90 trigger f f;
#X obj 488 187 / 127;
#X obj 488 489 * 127;
#X obj 488 543 change;
#X msg 488 572 set \$1;
#X msg 551 502 set \$1;
#X obj 488 288 dbtorms;
#X obj 488 399 rmstodb;
#X obj 688 90 trigger f f;
#X obj 688 187 / 127;
#X obj 688 489 * 127;
#X obj 688 543 change;
#X msg 688 572 set \$1;
#X msg 751 502 set \$1;
#X obj 688 228 * 60;
#X obj 688 458 / 60;
#X obj 488 228 * 60;
#X obj 488 259 + 80;
#X obj 488 432 - 80;
#X obj 488 458 / 60;
#X obj 688 259 - 30;
#X obj 688 430 + 30;
#X obj 278 90 trigger f f;
#X obj 278 167 / 127;
#X obj 278 269 + 20;
#X obj 278 432 - 20;
#X obj 278 509 * 127;
#X obj 278 543 change;
#X msg 278 572 set \$1;
#X msg 341 502 set \$1;
#X obj 278 218 * 136;
#X obj 305 191 r \$0-midi.range;
#X obj 299 247 r \$0-midi.min;
#X obj 278 478 / 136;
#X obj 305 457 r \$0-midi.range;
#X obj 299 411 r \$0-midi.min;
#X obj 278 291 mtof;
#X obj 278 390 ftom;
#X obj 68 95 f 0;
#X obj 94 95 + 1;
#X obj 120 95 % 2;
#X obj 68 68 t b;
#N canvas 0 22 453 366 color 0;
#X obj 108 57 inlet;
#X obj 108 99 sel 0 1;
#X obj 129 147 r \$0-button.colors.off;
#X obj 173 180 r \$0-button.colors.on;
#X obj 108 177 list;
#X msg 108 258 color \$1 \$1 \$2;
#X obj 152 205 list;
#X obj 108 285 outlet;
#X connect 0 0 1 0;
#X connect 1 0 4 0;
#X connect 1 1 6 0;
#X connect 2 0 4 1;
#X connect 3 0 6 1;
#X connect 4 0 5 0;
#X connect 5 0 7 0;
#X connect 6 0 5 0;
#X restore 68 571 pd color;
#X obj 278 43 r \$0-p4.freq.gui;
#X obj 488 43 r \$0-p4.q.gui;
#X obj 688 43 r \$0-p4.gain.gui;
#X obj 68 316 s \$0-p4.active;
#X obj 68 367 r \$0-p4.active;
#X obj 312 343 save.me.mmb pk4freq \$0;
#X obj 522 343 save.me.mmb pk4res \$0;
#X obj 712 343 save.me.mmb pk4gain \$0;
#X obj 688 367 r \$0-p4.gain;
#X obj 488 367 r \$0-p4.q;
#X obj 278 367 r \$0-p4.freq;
#X obj 278 600 s \$0-p4.freq.gui.r;
#X obj 488 600 s \$0-p4.q.gui.r;
#X obj 688 600 s \$0-p4.gain.gui.r;
#X obj 68 600 s \$0-p4.active.gui.r;
#X obj 68 43 r \$0-p4.active.gui;
#X obj 95 68 r \$0-p4.active;
#X obj 688 316 s \$0-p4.gain;
#X obj 488 316 s \$0-p4.q;
#X obj 278 316 s \$0-p4.freq;
#X obj 108 343 save.me.mmb pk4active \$0;
#X connect 0 0 1 0;
#X connect 0 1 5 0;
#X connect 1 0 16 0;
#X connect 2 0 3 0;
#X connect 3 0 4 0;
#X connect 4 0 55 0;
#X connect 5 0 3 0;
#X connect 6 0 61 0;
#X connect 7 0 18 0;
#X connect 8 0 9 0;
#X connect 8 1 13 0;
#X connect 9 0 14 0;
#X connect 10 0 11 0;
#X connect 11 0 12 0;
#X connect 12 0 56 0;
#X connect 13 0 11 0;
#X connect 14 0 20 0;
#X connect 15 0 10 0;
#X connect 16 0 17 0;
#X connect 17 0 6 0;
#X connect 18 0 19 0;
#X connect 19 0 2 0;
#X connect 20 0 60 0;
#X connect 21 0 15 0;
#X connect 22 0 23 0;
#X connect 22 1 29 0;
#X connect 23 0 30 0;
#X connect 24 0 36 0;
#X connect 25 0 33 0;
#X connect 26 0 27 0;
#X connect 27 0 28 0;
#X connect 28 0 54 0;
#X connect 29 0 27 0;
#X connect 30 0 24 0;
#X connect 31 0 30 1;
#X connect 32 0 24 1;
#X connect 33 0 26 0;
#X connect 34 0 33 1;
#X connect 35 0 25 1;
#X connect 36 0 62 0;
#X connect 37 0 25 0;
#X connect 38 0 39 0;
#X connect 39 0 40 0;
#X connect 40 0 38 1;
#X connect 40 0 46 0;
#X connect 41 0 38 0;
#X connect 42 0 57 0;
#X connect 43 0 22 0;
#X connect 44 0 0 0;
#X connect 45 0 8 0;
#X connect 47 0 42 0;
#X connect 47 0 63 0;
#X connect 48 0 62 0;
#X connect 49 0 61 0;
#X connect 50 0 60 0;
#X connect 51 0 21 0;
#X connect 51 0 50 0;
#X connect 52 0 7 0;
#X connect 52 0 49 0;
#X connect 53 0 37 0;
#X connect 53 0 48 0;
#X connect 58 0 41 0;
#X connect 59 0 38 1;
#X connect 63 0 46 0;
#X restore 91 194 pd peak4;
#N canvas 276 22 902 656 peak5 0;
#X obj 488 90 trigger f f;
#X obj 488 187 / 127;
#X obj 488 489 * 127;
#X obj 488 543 change;
#X msg 488 572 set \$1;
#X msg 551 502 set \$1;
#X obj 488 288 dbtorms;
#X obj 488 399 rmstodb;
#X obj 688 90 trigger f f;
#X obj 688 187 / 127;
#X obj 688 489 * 127;
#X obj 688 543 change;
#X msg 688 572 set \$1;
#X msg 751 502 set \$1;
#X obj 688 228 * 60;
#X obj 688 458 / 60;
#X obj 488 228 * 60;
#X obj 488 259 + 80;
#X obj 488 432 - 80;
#X obj 488 458 / 60;
#X obj 688 259 - 30;
#X obj 688 430 + 30;
#X obj 278 90 trigger f f;
#X obj 278 167 / 127;
#X obj 278 269 + 20;
#X obj 278 432 - 20;
#X obj 278 509 * 127;
#X obj 278 543 change;
#X msg 278 572 set \$1;
#X msg 341 502 set \$1;
#X obj 278 218 * 136;
#X obj 305 191 r \$0-midi.range;
#X obj 299 247 r \$0-midi.min;
#X obj 278 478 / 136;
#X obj 305 457 r \$0-midi.range;
#X obj 299 411 r \$0-midi.min;
#X obj 278 291 mtof;
#X obj 278 390 ftom;
#X obj 68 95 f 0;
#X obj 94 95 + 1;
#X obj 120 95 % 2;
#X obj 68 68 t b;
#N canvas 0 22 453 366 color 0;
#X obj 108 57 inlet;
#X obj 108 99 sel 0 1;
#X obj 129 147 r \$0-button.colors.off;
#X obj 173 180 r \$0-button.colors.on;
#X obj 108 177 list;
#X msg 108 258 color \$1 \$1 \$2;
#X obj 152 205 list;
#X obj 108 285 outlet;
#X connect 0 0 1 0;
#X connect 1 0 4 0;
#X connect 1 1 6 0;
#X connect 2 0 4 1;
#X connect 3 0 6 1;
#X connect 4 0 5 0;
#X connect 5 0 7 0;
#X connect 6 0 5 0;
#X restore 68 571 pd color;
#X obj 68 43 r \$0-p5.active.gui;
#X obj 95 68 r \$0-p5.active;
#X obj 278 43 r \$0-p5.freq.gui;
#X obj 488 43 r \$0-p5.q.gui;
#X obj 688 43 r \$0-p5.gain.gui;
#X obj 68 316 s \$0-p5.active;
#X obj 68 367 r \$0-p5.active;
#X obj 278 316 s \$0-p5.freq;
#X obj 312 343 save.me.mmb pk5freq \$0;
#X obj 278 367 r \$0-p5.freq;
#X obj 488 316 s \$0-p5.q;
#X obj 522 343 save.me.mmb pk5res \$0;
#X obj 488 367 r \$0-p5.q;
#X obj 688 316 s \$0-p5.gain;
#X obj 712 343 save.me.mmb pk5gain \$0;
#X obj 688 367 r \$0-p5.gain;
#X obj 68 600 s \$0-p5.active.gui.r;
#X obj 278 600 s \$0-p5.freq.gui.r;
#X obj 488 600 s \$0-p5.q.gui.r;
#X obj 688 600 s \$0-p5.gain.gui.r;
#X obj 108 343 save.me.mmb pk5active \$0;
#X connect 0 0 1 0;
#X connect 0 1 5 0;
#X connect 1 0 16 0;
#X connect 2 0 3 0;
#X connect 3 0 4 0;
#X connect 4 0 61 0;
#X connect 5 0 3 0;
#X connect 6 0 53 0;
#X connect 7 0 18 0;
#X connect 8 0 9 0;
#X connect 8 1 13 0;
#X connect 9 0 14 0;
#X connect 10 0 11 0;
#X connect 11 0 12 0;
#X connect 12 0 62 0;
#X connect 13 0 11 0;
#X connect 14 0 20 0;
#X connect 15 0 10 0;
#X connect 16 0 17 0;
#X connect 17 0 6 0;
#X connect 18 0 19 0;
#X connect 19 0 2 0;
#X connect 20 0 56 0;
#X connect 21 0 15 0;
#X connect 22 0 23 0;
#X connect 22 1 29 0;
#X connect 23 0 30 0;
#X connect 24 0 36 0;
#X connect 25 0 33 0;
#X connect 26 0 27 0;
#X connect 27 0 28 0;
#X connect 28 0 60 0;
#X connect 29 0 27 0;
#X connect 30 0 24 0;
#X connect 31 0 30 1;
#X connect 32 0 24 1;
#X connect 33 0 26 0;
#X connect 34 0 33 1;
#X connect 35 0 25 1;
#X connect 36 0 50 0;
#X connect 37 0 25 0;
#X connect 38 0 39 0;
#X connect 39 0 40 0;
#X connect 40 0 38 1;
#X connect 40 0 48 0;
#X connect 41 0 38 0;
#X connect 42 0 59 0;
#X connect 43 0 41 0;
#X connect 44 0 38 1;
#X connect 45 0 22 0;
#X connect 46 0 0 0;
#X connect 47 0 8 0;
#X connect 49 0 42 0;
#X connect 49 0 63 0;
#X connect 51 0 50 0;
#X connect 52 0 37 0;
#X connect 52 0 51 0;
#X connect 54 0 53 0;
#X connect 55 0 7 0;
#X connect 55 0 54 0;
#X connect 57 0 56 0;
#X connect 58 0 21 0;
#X connect 58 0 57 0;
#X connect 63 0 48 0;
#X restore 91 219 pd peak5;
#N canvas 276 22 902 656 peak6 0;
#X obj 488 90 trigger f f;
#X obj 488 187 / 127;
#X obj 488 489 * 127;
#X obj 488 543 change;
#X msg 488 572 set \$1;
#X msg 551 502 set \$1;
#X obj 488 288 dbtorms;
#X obj 488 399 rmstodb;
#X obj 688 90 trigger f f;
#X obj 688 187 / 127;
#X obj 688 489 * 127;
#X obj 688 543 change;
#X msg 688 572 set \$1;
#X msg 751 502 set \$1;
#X obj 688 228 * 60;
#X obj 688 458 / 60;
#X obj 488 228 * 60;
#X obj 488 259 + 80;
#X obj 488 432 - 80;
#X obj 488 458 / 60;
#X obj 688 259 - 30;
#X obj 688 430 + 30;
#X obj 278 90 trigger f f;
#X obj 278 167 / 127;
#X obj 278 269 + 20;
#X obj 278 432 - 20;
#X obj 278 509 * 127;
#X obj 278 543 change;
#X msg 278 572 set \$1;
#X msg 341 502 set \$1;
#X obj 278 218 * 136;
#X obj 305 191 r \$0-midi.range;
#X obj 299 247 r \$0-midi.min;
#X obj 278 478 / 136;
#X obj 305 457 r \$0-midi.range;
#X obj 299 411 r \$0-midi.min;
#X obj 278 291 mtof;
#X obj 278 390 ftom;
#X obj 68 95 f 0;
#X obj 94 95 + 1;
#X obj 120 95 % 2;
#X obj 68 68 t b;
#N canvas 0 22 453 366 color 0;
#X obj 108 57 inlet;
#X obj 108 99 sel 0 1;
#X obj 129 147 r \$0-button.colors.off;
#X obj 173 180 r \$0-button.colors.on;
#X obj 108 177 list;
#X msg 108 258 color \$1 \$1 \$2;
#X obj 152 205 list;
#X obj 108 285 outlet;
#X connect 0 0 1 0;
#X connect 1 0 4 0;
#X connect 1 1 6 0;
#X connect 2 0 4 1;
#X connect 3 0 6 1;
#X connect 4 0 5 0;
#X connect 5 0 7 0;
#X connect 6 0 5 0;
#X restore 68 571 pd color;
#X obj 68 43 r \$0-p6.active.gui;
#X obj 278 43 r \$0-p6.freq.gui;
#X obj 487 43 r \$0-p6.q.gui;
#X obj 688 43 r \$0-p6.gain.gui;
#X obj 95 68 r \$0-p6.active;
#X obj 68 316 s \$0-p6.active;
#X obj 68 367 r \$0-p6.active;
#X obj 278 316 s \$0-p6.freq;
#X obj 278 367 r \$0-p6.freq;
#X obj 488 316 s \$0-p6.q;
#X obj 522 343 save.me.mmb pk6res \$0;
#X obj 488 367 r \$0-p6.q;
#X obj 688 316 s \$0-p6.gain;
#X obj 712 343 save.me.mmb pk6gain \$0;
#X obj 688 367 r \$0-p6.gain;
#X obj 68 600 s \$0-p6.active.gui.r;
#X obj 278 600 s \$0-p6.freq.gui.r;
#X obj 488 600 s \$0-p6.q.gui.r;
#X obj 688 600 s \$0-p6.gain.gui.r;
#X obj 108 343 save.me.mmb pk6active \$0;
#X obj 312 343 save.me.mmb pk6freq \$0;
#X connect 0 0 1 0;
#X connect 0 1 5 0;
#X connect 1 0 16 0;
#X connect 2 0 3 0;
#X connect 3 0 4 0;
#X connect 4 0 60 0;
#X connect 5 0 3 0;
#X connect 6 0 52 0;
#X connect 7 0 18 0;
#X connect 8 0 9 0;
#X connect 8 1 13 0;
#X connect 9 0 14 0;
#X connect 10 0 11 0;
#X connect 11 0 12 0;
#X connect 12 0 61 0;
#X connect 13 0 11 0;
#X connect 14 0 20 0;
#X connect 15 0 10 0;
#X connect 16 0 17 0;
#X connect 17 0 6 0;
#X connect 18 0 19 0;
#X connect 19 0 2 0;
#X connect 20 0 55 0;
#X connect 21 0 15 0;
#X connect 22 0 23 0;
#X connect 22 1 29 0;
#X connect 23 0 30 0;
#X connect 24 0 36 0;
#X connect 25 0 33 0;
#X connect 26 0 27 0;
#X connect 27 0 28 0;
#X connect 28 0 59 0;
#X connect 29 0 27 0;
#X connect 30 0 24 0;
#X connect 31 0 30 1;
#X connect 32 0 24 1;
#X connect 33 0 26 0;
#X connect 34 0 33 1;
#X connect 35 0 25 1;
#X connect 36 0 50 0;
#X connect 37 0 25 0;
#X connect 38 0 39 0;
#X connect 39 0 40 0;
#X connect 40 0 38 1;
#X connect 40 0 48 0;
#X connect 41 0 38 0;
#X connect 42 0 58 0;
#X connect 43 0 41 0;
#X connect 44 0 22 0;
#X connect 45 0 0 0;
#X connect 46 0 8 0;
#X connect 47 0 38 1;
#X connect 49 0 42 0;
#X connect 49 0 62 0;
#X connect 51 0 37 0;
#X connect 51 0 63 0;
#X connect 53 0 52 0;
#X connect 54 0 7 0;
#X connect 54 0 53 0;
#X connect 56 0 55 0;
#X connect 57 0 21 0;
#X connect 57 0 56 0;
#X connect 62 0 48 0;
#X connect 63 0 50 0;
#X restore 91 247 pd peak6;
#N canvas 276 22 902 656 peak7 0;
#X obj 488 90 trigger f f;
#X obj 488 187 / 127;
#X obj 488 489 * 127;
#X obj 488 543 change;
#X msg 488 572 set \$1;
#X msg 551 502 set \$1;
#X obj 488 288 dbtorms;
#X obj 488 399 rmstodb;
#X obj 688 90 trigger f f;
#X obj 688 187 / 127;
#X obj 688 489 * 127;
#X obj 688 543 change;
#X msg 688 572 set \$1;
#X msg 751 502 set \$1;
#X obj 688 228 * 60;
#X obj 688 458 / 60;
#X obj 488 228 * 60;
#X obj 488 259 + 80;
#X obj 488 432 - 80;
#X obj 488 458 / 60;
#X obj 688 259 - 30;
#X obj 688 430 + 30;
#X obj 278 90 trigger f f;
#X obj 278 167 / 127;
#X obj 278 269 + 20;
#X obj 278 432 - 20;
#X obj 278 509 * 127;
#X obj 278 543 change;
#X msg 278 572 set \$1;
#X msg 341 502 set \$1;
#X obj 278 218 * 136;
#X obj 305 191 r \$0-midi.range;
#X obj 299 247 r \$0-midi.min;
#X obj 278 478 / 136;
#X obj 305 457 r \$0-midi.range;
#X obj 299 411 r \$0-midi.min;
#X obj 278 291 mtof;
#X obj 278 390 ftom;
#X obj 68 95 f 0;
#X obj 94 95 + 1;
#X obj 120 95 % 2;
#X obj 68 68 t b;
#N canvas 0 22 453 366 color 0;
#X obj 108 57 inlet;
#X obj 108 99 sel 0 1;
#X obj 129 147 r \$0-button.colors.off;
#X obj 173 180 r \$0-button.colors.on;
#X obj 108 177 list;
#X msg 108 258 color \$1 \$1 \$2;
#X obj 152 205 list;
#X obj 108 285 outlet;
#X connect 0 0 1 0;
#X connect 1 0 4 0;
#X connect 1 1 6 0;
#X connect 2 0 4 1;
#X connect 3 0 6 1;
#X connect 4 0 5 0;
#X connect 5 0 7 0;
#X connect 6 0 5 0;
#X restore 68 571 pd color;
#X obj 278 43 r \$0-p7.freq.gui;
#X obj 68 43 r \$0-p7.active.gui;
#X obj 68 316 s \$0-p7.active;
#X obj 68 367 r \$0-p7.active;
#X obj 68 600 s \$0-p7.active.gui.r;
#X obj 278 600 s \$0-p7.freq.gui.r;
#X obj 278 367 r \$0-p7.freq;
#X obj 278 316 s \$0-p7.freq;
#X obj 488 43 r \$0-p7.q.gui;
#X obj 488 316 s \$0-p7.q;
#X obj 522 343 save.me.mmb pk7res \$0;
#X obj 488 367 r \$0-p7.q;
#X obj 488 600 s \$0-p7.q.gui.r;
#X obj 688 600 s \$0-p7.gain.gui.r;
#X obj 688 367 r \$0-p7.gain;
#X obj 688 316 s \$0-p7.gain;
#X obj 712 343 save.me.mmb pk7gain \$0;
#X obj 688 43 r \$0-p7.gain.gui;
#X obj 95 68 r \$0-p7.active;
#X obj 108 343 save.me.mmb pk7active \$0;
#X obj 312 343 save.me.mmb pk7freq \$0;
#X connect 0 0 1 0;
#X connect 0 1 5 0;
#X connect 1 0 16 0;
#X connect 2 0 3 0;
#X connect 3 0 4 0;
#X connect 4 0 55 0;
#X connect 5 0 3 0;
#X connect 6 0 52 0;
#X connect 7 0 18 0;
#X connect 8 0 9 0;
#X connect 8 1 13 0;
#X connect 9 0 14 0;
#X connect 10 0 11 0;
#X connect 11 0 12 0;
#X connect 12 0 56 0;
#X connect 13 0 11 0;
#X connect 14 0 20 0;
#X connect 15 0 10 0;
#X connect 16 0 17 0;
#X connect 17 0 6 0;
#X connect 18 0 19 0;
#X connect 19 0 2 0;
#X connect 20 0 58 0;
#X connect 21 0 15 0;
#X connect 22 0 23 0;
#X connect 22 1 29 0;
#X connect 23 0 30 0;
#X connect 24 0 36 0;
#X connect 25 0 33 0;
#X connect 26 0 27 0;
#X connect 27 0 28 0;
#X connect 28 0 48 0;
#X connect 29 0 27 0;
#X connect 30 0 24 0;
#X connect 31 0 30 1;
#X connect 32 0 24 1;
#X connect 33 0 26 0;
#X connect 34 0 33 1;
#X connect 35 0 25 1;
#X connect 36 0 50 0;
#X connect 37 0 25 0;
#X connect 38 0 39 0;
#X connect 39 0 40 0;
#X connect 40 0 38 1;
#X connect 40 0 45 0;
#X connect 41 0 38 0;
#X connect 42 0 47 0;
#X connect 43 0 22 0;
#X connect 44 0 41 0;
#X connect 46 0 42 0;
#X connect 46 0 62 0;
#X connect 49 0 37 0;
#X connect 49 0 63 0;
#X connect 51 0 0 0;
#X connect 53 0 52 0;
#X connect 54 0 7 0;
#X connect 54 0 53 0;
#X connect 57 0 21 0;
#X connect 57 0 59 0;
#X connect 59 0 58 0;
#X connect 60 0 8 0;
#X connect 61 0 38 1;
#X connect 62 0 45 0;
#X connect 63 0 50 0;
#X restore 92 273 pd peak7;
#X restore 15 262 pd gui;
#X obj 27 157 hsl 46 15 0 127 0 0 \$0-analyze.active.gui \$0-analyze.active.gui.r
analyze 2 8 0 10 -113280 -113280 -237312 0 1;
#N canvas 0 22 972 553 init 0;
#X obj 139 67 loadbang;
#X obj 201 217 ftom;
#X obj 201 162 t b b;
#X msg 245 197 20;
#X obj 245 221 ftom;
#X obj 215 249 -;
#X obj 245 324 s \$0-midi.min;
#X obj 201 299 s \$0-midi.max;
#X obj 215 276 s \$0-midi.range;
#X msg 201 196 20000;
#X obj 434 320 rgb2pd.mmb;
#X msg 434 297 23 49 81;
#X obj 513 320 rgb2pd.mmb;
#X msg 513 297 92 135 255;
#X obj 600 320 rgb2pd.mmb;
#X obj 680 320 rgb2pd.mmb;
#X msg 680 297 228 239 255;
#X obj 434 371 s \$0-button.colors.off;
#X obj 434 345 pack f f;
#X obj 600 345 pack f f;
#X obj 600 370 s \$0-button.colors.on;
#X obj 137 105 trigger bang bang bang;
#X obj 496 243 t b b b b;
#X msg 600 297 111 165 255;
#X obj 130 437 outlet;
#X connect 0 0 21 0;
#X connect 1 0 5 0;
#X connect 1 0 7 0;
#X connect 2 0 9 0;
#X connect 2 1 3 0;
#X connect 3 0 4 0;
#X connect 4 0 5 1;
#X connect 4 0 6 0;
#X connect 5 0 8 0;
#X connect 9 0 1 0;
#X connect 10 0 18 0;
#X connect 11 0 10 0;
#X connect 12 0 18 1;
#X connect 13 0 12 0;
#X connect 14 0 19 0;
#X connect 15 0 19 1;
#X connect 16 0 15 0;
#X connect 18 0 17 0;
#X connect 19 0 20 0;
#X connect 21 0 24 0;
#X connect 21 1 2 0;
#X connect 21 2 22 0;
#X connect 22 0 11 0;
#X connect 22 1 13 0;
#X connect 22 2 23 0;
#X connect 22 3 16 0;
#X connect 23 0 14 0;
#X restore 16 242 pd init;
#N canvas 47 104 1436 838 eq7.messages 0;
#X obj 42 60 r \$0-hp.active;
#X obj 568 594 outlet;
#X msg 42 94 hpactive \$1;
#X obj 62 120 r \$0-hp.freq;
#X obj 82 180 r \$0-hp.res;
#X msg 82 214 hpres \$1;
#X msg 62 154 hpfreq \$1;
#X obj 143 59 r \$0-ls.active;
#X msg 143 93 lsactive \$1;
#X obj 163 119 r \$0-ls.freq;
#X msg 163 153 lsfreq \$1;
#X obj 183 179 r \$0-ls.slope;
#X msg 183 213 lsslope \$1;
#X obj 203 239 r \$0-ls.gain;
#X msg 203 273 lsgain \$1;
#X obj 252 57 r \$0-p1.active;
#X msg 252 91 pk1active \$1;
#X obj 272 117 r \$0-p1.freq;
#X msg 272 151 pk1freq \$1;
#X obj 312 237 r \$0-p1.gain;
#X msg 312 271 pk1gain \$1;
#X obj 353 58 r \$0-p2.active;
#X msg 353 92 pk2active \$1;
#X obj 373 118 r \$0-p2.freq;
#X msg 373 152 pk2freq \$1;
#X obj 413 238 r \$0-p2.gain;
#X msg 413 272 pk2gain \$1;
#X obj 455 59 r \$0-p3.active;
#X msg 455 93 pk3active \$1;
#X obj 475 119 r \$0-p3.freq;
#X msg 475 153 pk3freq \$1;
#X obj 515 239 r \$0-p3.gain;
#X msg 515 273 pk3gain \$1;
#X obj 963 50 r \$0-hs.active;
#X msg 963 84 hsactive \$1;
#X obj 983 110 r \$0-hs.freq;
#X msg 983 144 hsfreq \$1;
#X obj 1003 170 r \$0-hs.slope;
#X msg 1003 204 hsslope \$1;
#X obj 1023 230 r \$0-hs.gain;
#X msg 1023 264 hsgain \$1;
#X obj 1066 47 r \$0-lp.active;
#X msg 1066 81 lpactive \$1;
#X obj 1086 107 r \$0-lp.freq;
#X msg 1086 141 lpfreq \$1;
#X obj 1106 167 r \$0-lp.res;
#X msg 1106 201 lpres \$1;
#X msg 495 213 pk3q \$1;
#X msg 393 212 pk2q \$1;
#X obj 292 177 r \$0-p1.q;
#X obj 393 178 r \$0-p2.q;
#X obj 495 179 r \$0-p3.q;
#X msg 292 211 pk1q \$1;
#X obj 633 598 r \$0-bypass;
#X msg 633 621 bypass \$1;
#X obj 633 648 r \$0-gain;
#X msg 633 714 gain \$1;
#X obj 633 669 rmstodb;
#X obj 633 692 - 100;
#X obj 283 490 loadbang;
#X msg 283 514 coefflist 1;
#X obj 564 51 r \$0-p4.active;
#X msg 564 85 pk4active \$1;
#X obj 584 111 r \$0-p4.freq;
#X msg 595 139 pk4freq \$1;
#X obj 604 171 r \$0-p4.q;
#X msg 604 205 pk4q \$1;
#X obj 624 231 r \$0-p4.gain;
#X msg 624 259 pk4gain \$1;
#X obj 665 47 r \$0-p5.active;
#X msg 665 81 pk5active \$1;
#X obj 685 107 r \$0-p5.freq;
#X msg 696 135 pk5freq \$1;
#X obj 705 167 r \$0-p5.q;
#X msg 705 201 pk5q \$1;
#X obj 725 227 r \$0-p5.gain;
#X msg 725 261 pk5gain \$1;
#X obj 758 47 r \$0-p6.active;
#X msg 758 81 pk6active \$1;
#X obj 778 107 r \$0-p6.freq;
#X msg 789 135 pk6freq \$1;
#X obj 798 167 r \$0-p6.q;
#X msg 798 201 pk6q \$1;
#X obj 818 227 r \$0-p6.gain;
#X msg 818 261 pk6gain \$1;
#X obj 859 50 r \$0-p7.active;
#X msg 859 84 pk7active \$1;
#X obj 879 110 r \$0-p7.freq;
#X msg 890 138 pk7freq \$1;
#X obj 899 170 r \$0-p7.q;
#X msg 899 204 pk7q \$1;
#X obj 919 230 r \$0-p7.gain;
#X msg 919 264 pk7gain \$1;
#X connect 0 0 2 0;
#X connect 2 0 1 0;
#X connect 3 0 6 0;
#X connect 4 0 5 0;
#X connect 5 0 1 0;
#X connect 6 0 1 0;
#X connect 7 0 8 0;
#X connect 8 0 1 0;
#X connect 9 0 10 0;
#X connect 10 0 1 0;
#X connect 11 0 12 0;
#X connect 12 0 1 0;
#X connect 13 0 14 0;
#X connect 14 0 1 0;
#X connect 15 0 16 0;
#X connect 16 0 1 0;
#X connect 17 0 18 0;
#X connect 18 0 1 0;
#X connect 19 0 20 0;
#X connect 20 0 1 0;
#X connect 21 0 22 0;
#X connect 22 0 1 0;
#X connect 23 0 24 0;
#X connect 24 0 1 0;
#X connect 25 0 26 0;
#X connect 26 0 1 0;
#X connect 27 0 28 0;
#X connect 28 0 1 0;
#X connect 29 0 30 0;
#X connect 30 0 1 0;
#X connect 31 0 32 0;
#X connect 32 0 1 0;
#X connect 33 0 34 0;
#X connect 34 0 1 0;
#X connect 35 0 36 0;
#X connect 36 0 1 0;
#X connect 37 0 38 0;
#X connect 38 0 1 0;
#X connect 39 0 40 0;
#X connect 40 0 1 0;
#X connect 41 0 42 0;
#X connect 42 0 1 0;
#X connect 43 0 44 0;
#X connect 44 0 1 0;
#X connect 45 0 46 0;
#X connect 46 0 1 0;
#X connect 47 0 1 0;
#X connect 48 0 1 0;
#X connect 49 0 52 0;
#X connect 50 0 48 0;
#X connect 51 0 47 0;
#X connect 52 0 1 0;
#X connect 53 0 54 0;
#X connect 54 0 1 0;
#X connect 55 0 57 0;
#X connect 56 0 1 0;
#X connect 57 0 58 0;
#X connect 58 0 56 0;
#X connect 59 0 60 0;
#X connect 60 0 1 0;
#X connect 61 0 62 0;
#X connect 62 0 1 0;
#X connect 63 0 64 0;
#X connect 64 0 1 0;
#X connect 65 0 66 0;
#X connect 66 0 1 0;
#X connect 67 0 68 0;
#X connect 68 0 1 0;
#X connect 69 0 70 0;
#X connect 70 0 1 0;
#X connect 71 0 72 0;
#X connect 72 0 1 0;
#X connect 73 0 74 0;
#X connect 74 0 1 0;
#X connect 75 0 76 0;
#X connect 76 0 1 0;
#X connect 77 0 78 0;
#X connect 78 0 1 0;
#X connect 79 0 80 0;
#X connect 80 0 1 0;
#X connect 81 0 82 0;
#X connect 82 0 1 0;
#X connect 83 0 84 0;
#X connect 84 0 1 0;
#X connect 85 0 86 0;
#X connect 86 0 1 0;
#X connect 87 0 88 0;
#X connect 88 0 1 0;
#X connect 89 0 90 0;
#X connect 90 0 1 0;
#X connect 91 0 92 0;
#X connect 92 0 1 0;
#X restore 423 419 pd eq7.messages;
#N canvas 932 232 486 226 plot 0;
#X obj 261 79 loadbang;
#X obj 112 85 speedlim 100;
#X obj 114 127 filterplot.mmb \$0-eq_;
#X obj 112 31 r \$0-coeff.list;
#X msg 261 101 dbrange 30;
#X connect 0 0 4 0;
#X connect 1 0 2 0;
#X connect 3 0 1 0;
#X connect 4 0 2 1;
#X restore 15 282 pd plot;
#X obj 589 337 loadbang;
#X obj 411 384 spectrum.mmb~ \$0-__7;
#X obj 673 23 hsl 70 15 0 127 0 0 \$0-hp.active.gui \$0-hp.active.gui.r
highpass 10 8 0 10 -21269 -21269 -96384 0 1;
#X obj 674 64 hsl 70 15 0 127 0 0 \$0-ls.active.gui \$0-ls.active.gui.r
lowshelf 10 8 0 10 -21269 -21269 -96384 0 1;
#X obj 92 155 hsl 70 15 0 127 0 0 \$0-p1.active.gui \$0-p1.active.gui.r
peak1 18 8 0 10 -21269 -21269 -96384 0 1;
#X obj 674 117 hsl 70 15 0 127 0 0 \$0-hs.active.gui \$0-hs.active.gui.r
highshelf 8 8 0 10 -21269 -21269 -96384 0 1;
#X obj 674 170 hsl 70 15 0 127 0 0 \$0-lp.active.gui \$0-lp.active.gui.r
lowpass 12 8 0 10 -113280 -113280 -237312 0 1;
#X obj 172 155 hsl 70 15 0 127 0 0 \$0-p2.active.gui \$0-p2.active.gui.r
peak2 18 8 0 10 -113280 -113280 -237312 0 1;
#X obj 252 155 hsl 70 15 0 127 0 0 \$0-p3.active.gui \$0-p3.active.gui.r
peak3 18 8 0 10 -113280 -113280 -237312 0 1;
#X msg 589 367 logfreq 1 \, dbrange -60 0;
#X obj 27 174 hsl 46 15 0 127 0 0 \$0-analyze.pos.gui \$0-analyze.pos.gui.r
post 10 8 0 10 -21269 -21269 -96384 0 1;
#X obj 27 191 hsl 46 15 0 127 0 0 \$0-analyze.res.gui \$0-analyze.res.gui.r
lowres 4 8 0 10 -21269 -21269 -96384 0 1;
#N canvas 922 22 518 416 plot 0;
#X obj 134 61 r \$0-analyze.active;
#X obj 156 89 r \$0-analyze.pos;
#X obj 141 179 +;
#X obj 156 143 t b f;
#X msg 141 273 plot \$1;
#X obj 141 314 outlet;
#X obj 114 245 t f f;
#X obj 44 283 sel 0;
#X msg 40 309 const 0;
#X obj 39 337 s \$0-__7;
#X obj 156 118 == 0;
#X obj 141 211 == 2;
#X connect 0 0 2 0;
#X connect 1 0 10 0;
#X connect 2 0 11 0;
#X connect 3 0 2 0;
#X connect 3 1 2 1;
#X connect 4 0 5 0;
#X connect 6 0 7 0;
#X connect 6 1 4 0;
#X connect 7 0 8 0;
#X connect 8 0 9 0;
#X connect 10 0 3 0;
#X connect 11 0 6 0;
#X restore 528 356 pd plot;
#N canvas 587 22 518 416 plot 0;
#X obj 134 51 r \$0-analyze.active;
#X obj 156 89 r \$0-analyze.pos;
#X obj 141 179 +;
#X obj 156 143 t b f;
#X msg 141 273 plot \$1;
#X obj 141 314 outlet;
#X obj 114 245 t f f;
#X obj 44 283 sel 0;
#X msg 40 309 const 0;
#X obj 39 337 s \$0-__7;
#X obj 156 118 == 1;
#X obj 141 212 == 2;
#X connect 0 0 2 0;
#X connect 1 0 10 0;
#X connect 2 0 11 0;
#X connect 3 0 2 0;
#X connect 3 1 2 1;
#X connect 4 0 5 0;
#X connect 6 0 7 0;
#X connect 6 1 4 0;
#X connect 7 0 8 0;
#X connect 8 0 9 0;
#X connect 10 0 3 0;
#X connect 11 0 6 0;
#X restore 535 464 pd plot;
#N canvas 352 273 453 352 resolution 0;
#X obj 103 73 r \$0-analyze.res;
#X obj 105 179 sel 0 1 2;
#X msg 144 264 resize \$1;
#X obj 144 293 s \$0-__7;
#X obj 103 104 t b f b;
#X obj 145 145 s \$0-analyze.active.gui;
#X msg 105 223 256;
#X msg 138 223 512;
#X msg 179 224 1024;
#X connect 0 0 4 0;
#X connect 1 0 6 0;
#X connect 1 1 7 0;
#X connect 1 2 8 0;
#X connect 2 0 3 0;
#X connect 4 0 5 0;
#X connect 4 1 1 0;
#X connect 4 2 5 0;
#X connect 6 0 2 0;
#X connect 7 0 2 0;
#X connect 8 0 2 0;
#X restore 15 302 pd resolution;
#X obj 418 502 spectrum.mmb~ \$0-__7;
#X obj 27 30 vu 10 120 \$0-vu.in empty -1 -8 0 10 -66577 -1 0 0;
#X obj 41 30 vu 10 120 \$0-vu.out empty -1 -8 0 10 -66577 -1 0 0;
#X obj 55 30 vsl 15 119 0 127 0 0 \$0-gain.gui \$0-gain.gui.r empty
0 -9 0 10 -87718 -200127 -200127 0 1;
#X obj 374 543 outlet~;
#X obj 427 526 env.mmb~;
#X obj 427 548 rmstodb;
#X obj 477 548 rmstodb;
#X obj 427 590 pack f f;
#X obj 427 611 s \$0-vu.out;
#X obj 427 570 - 100;
#X obj 477 570 - 100;
#X obj 442 268 env.mmb~;
#X obj 442 290 rmstodb;
#X obj 492 290 rmstodb;
#X obj 442 332 pack f f;
#X obj 442 312 - 100;
#X obj 492 312 - 100;
#X obj 442 353 s \$0-vu.in;
#X obj 620 27 hsl 46 15 0 127 0 0 \$0-bypass.gui \$0-bypass.gui.r bypass
4 8 0 10 -21269 -21269 -96384 0 1;
#X obj 564 27 hsl 46 15 0 127 0 0 \$0-dump.gui \$0-dump.gui.r dump
10 8 0 10 -21269 -21269 -96384 0 1;
#X obj 508 27 hsl 46 15 0 127 0 0 \$0-save.gui \$0-save.gui.r save
10 8 0 10 -21269 -21269 -96384 0 1;
#X obj 452 27 hsl 46 15 0 127 0 0 \$0-load.gui \$0-load.gui.r load
10 8 0 10 -21269 -21269 -96384 0 1;
#N canvas 57 292 929 655 state 1;
#X obj 200 592 textfile;
#X msg 277 549 clear;
#X msg 206 246 save;
#X obj 164 147 t s b b b;
#X msg 143 538 write \$1;
#X obj 412 113 openpanel;
#X obj 412 177 textfile;
#X msg 412 139 read \$1 \, rewind \, bang;
#X obj 399 229 prepend load;
#X obj 164 119 savepanel;
#X obj 200 545 prepend add;
#X obj 412 66 r \$0-load;
#X obj 206 277 my.hero.mmb \$0;
#X obj 200 513 spigot;
#X obj 295 100 r \$0-dump;
#X obj 295 123 t b b b;
#X msg 373 323 1;
#X msg 295 323 0;
#X obj 233 491 == 0;
#X obj 164 93 getdir;
#X obj 412 90 getdir;
#X obj 202 625 print list;
#X obj 120 518 bng 15 250 50 0 empty empty empty 17 7 0 10 -262144
-1 -1;
#X obj 380 205 t b a s;
#X obj 164 60 r \$0-savee;
#X obj 240 105 bng 15 250 50 0 empty empty empty 17 7 0 10 -262144
-1 -1;
#X msg 435 295 pk7freq 298.499 \, pk7active 1 \, pk7gain 3.91304 \,
pk7res 5.48442 \, pk6active 1 \, pk6gain -5.65217 \, pk5active 1 \,
pk5gain -16.087 \, pk4active 1 \, pk4gain -10.8696 \, pk4res 1.1053
\, pk4freq 134.004 \,;
#X msg 435 453;
#X obj 419 254 s \$0-dumprint;
#X connect 0 0 21 0;
#X connect 1 0 0 0;
#X connect 2 0 12 0;
#X connect 3 0 4 0;
#X connect 3 1 26 0;
#X connect 3 1 28 0;
#X connect 3 2 2 0;
#X connect 3 3 1 0;
#X connect 3 3 17 0;
#X connect 4 0 0 0;
#X connect 5 0 7 0;
#X connect 6 0 23 0;
#X connect 7 0 6 0;
#X connect 8 0 12 0;
#X connect 9 0 3 0;
#X connect 10 0 0 0;
#X connect 11 0 20 0;
#X connect 12 0 26 0;
#X connect 12 0 28 0;
#X connect 13 0 10 0;
#X connect 14 0 15 0;
#X connect 15 0 26 0;
#X connect 15 0 28 0;
#X connect 15 1 2 0;
#X connect 15 2 16 0;
#X connect 16 0 18 0;
#X connect 17 0 18 0;
#X connect 18 0 13 1;
#X connect 19 0 9 0;
#X connect 20 0 5 0;
#X connect 22 0 0 0;
#X connect 23 0 6 0;
#X connect 23 1 8 0;
#X connect 23 2 26 0;
#X connect 23 2 28 0;
#X connect 24 0 19 0;
#X connect 25 0 3 0;
#X connect 26 0 13 0;
#X connect 26 0 27 0;
#X restore 15 323 pd state;
#X obj 696 544 outlet;
#X obj 113 46 cnv 15 555 100 \$0-disp.bg.gui \$0-disp.bg.gui.r empty
20 12 0 14 -249600 -200127 0;
#N canvas 105 28 1082 519 (subpatch) 0;
#X array \$0-eq_ 556 float 0;
#X coords 0 1 552 -1 556 100 1;
#X restore 113 46 graph;
#X text 119 132 20Hz;
#X text 233 132 100Hz;
#X text 413 132 1kHz;
#X text 590 132 10kHz;
#X text 500 131 3kHz;
#X text 340 132 400Hz;
#N canvas 0 22 450 300 (subpatch) 0;
#X array \$0-__7 256 float 0;
#X coords 0 1 256 0 555 100 1;
#X restore 113 46 graph;
#X text 92 87 0dB;
#X text 80 136 -30dB;
#X text 86 38 30dB;
#X obj 20 20 cnv 3 7 3 empty \$0-siglet.gui empty 20 12 0 14 -66577
-66577 0;
#X obj 665 209 cnv 3 7 3 empty \$0-siglet.gui empty 20 12 0 14 -66577
-66577 0;
#X obj 20 209 cnv 3 7 3 empty \$0-siglet.gui empty 20 12 0 14 -66577
-66577 0;
#X obj 666 210 cnv 1 5 1 empty \$0-siglet.gui empty 20 12 0 14 -228856
-66577 0;
#X obj 665 20 cnv 3 7 3 empty \$0-siglet.gui empty 20 12 0 14 -66577
-66577 0;
#X obj 666 21 cnv 1 5 1 empty \$0-siglet.gui empty 20 12 0 14 -228856
-66577 0;
#X obj 423 471 s \$0-coeff.list;
#X obj 616 579 outlet;
#X obj 531 554 route coefflist;
#X obj 342 209 cnv 3 7 3 empty \$0-siglet.gui empty 20 12 0 14 -66577
-66577 0;
#X obj 343 210 cnv 1 5 1 empty \$0-siglet.gui empty 20 12 0 14 -228856
-66577 0;
#X obj 328 172 hsl 70 12 0 127 0 0 \$0-p4.freq.gui \$0-p4.freq.gui.r
freq 2 6 0 10 -87718 -200127 -200127 1900 1;
#X obj 328 184 hsl 70 12 0 127 0 0 \$0-p4.q.gui \$0-p4.q.gui.r q 2
6 0 10 -87718 -200127 -200127 2400 1;
#X obj 328 196 hsl 70 12 0 127 0 0 \$0-p4.gain.gui \$0-p4.gain.gui.r
gain 2 6 0 10 -87718 -200127 -200127 2200 1;
#X obj 328 155 hsl 70 15 0 127 0 0 \$0-p4.active.gui \$0-p4.active.gui.r
peak4 18 8 0 10 -113280 -113280 -237312 0 1;
#X obj 395 172 hsl 70 12 0 127 0 0 \$0-p5.freq.gui \$0-p5.freq.gui.r
freq 2 6 0 10 -87718 -200127 -200127 0 1;
#X obj 395 184 hsl 70 12 0 127 0 0 \$0-p5.q.gui \$0-p5.q.gui.r q 2
6 0 10 -87718 -200127 -200127 0 1;
#X obj 395 196 hsl 70 12 0 127 0 0 \$0-p5.gain.gui \$0-p5.gain.gui.r
gain 2 6 0 10 -87718 -200127 -200127 1600 1;
#X obj 475 172 hsl 70 12 0 127 0 0 \$0-p6.freq.gui \$0-p6.freq.gui.r
freq 2 6 0 10 -87718 -200127 -200127 0 1;
#X obj 475 184 hsl 70 12 0 127 0 0 \$0-p6.q.gui \$0-p6.q.gui.r q 2
6 0 10 -87718 -200127 -200127 0 1;
#X obj 475 196 hsl 70 12 0 127 0 0 \$0-p6.gain.gui \$0-p6.gain.gui.r
gain 2 6 0 10 -87718 -200127 -200127 2800 1;
#X obj 555 172 hsl 70 12 0 127 0 0 \$0-p7.freq.gui \$0-p7.freq.gui.r
freq 2 6 0 10 -87718 -200127 -200127 2700 1;
#X obj 555 184 hsl 70 12 0 127 0 0 \$0-p7.q.gui \$0-p7.q.gui.r q 2
6 0 10 -87718 -200127 -200127 4000 1;
#X obj 555 196 hsl 70 12 0 127 0 0 \$0-p7.gain.gui \$0-p7.gain.gui.r
gain 2 6 0 10 -87718 -200127 -200127 3900 1;
#X obj 395 155 hsl 70 15 0 127 0 0 \$0-p5.active.gui \$0-p5.active.gui.r
peak5 18 8 0 10 -113280 -113280 -237312 0 1;
#X obj 475 155 hsl 70 15 0 127 0 0 \$0-p6.active.gui \$0-p6.active.gui.r
peak6 18 8 0 10 -113280 -113280 -237312 0 1;
#X obj 555 155 hsl 70 15 0 127 0 0 \$0-p7.active.gui \$0-p7.active.gui.r
peak7 18 8 0 10 -113280 -113280 -237312 0 1;
#X obj 645 209 cnv 3 7 3 empty \$0-siglet.gui empty 20 12 0 14 -66577
-66577 0;
#X obj 656 246 inlet;
#X obj 374 447 eq7b.mmb~;
#N canvas 45 165 278 205 params 0;
#N canvas 66 320 685 305 params 0;
#X obj 46 55 inlet;
#X obj 46 181 s \$0-gain;
#X obj 115 131 != 0;
#X obj 115 155 s \$0-bypass;
#X obj 46 98 route gain bypass analyzeactive analyzepos analyzeres
;
#X obj 172 188 != 0;
#X obj 172 218 s \$0-analyze.active;
#X obj 235 155 != 0;
#X obj 235 184 s \$0-analyze.pos;
#X obj 321 158 moses 0;
#X obj 360 182 moses 3;
#X obj 360 208 i;
#X obj 360 231 s \$0-analyze.res;
#X obj 378 98 route save load dump;
#X obj 378 132 s \$0-save;
#X obj 417 155 s \$0-load;
#X obj 456 132 s \$0-dump;
#X connect 0 0 4 0;
#X connect 2 0 3 0;
#X connect 4 0 1 0;
#X connect 4 1 2 0;
#X connect 4 2 5 0;
#X connect 4 3 7 0;
#X connect 4 4 9 0;
#X connect 4 5 13 0;
#X connect 5 0 6 0;
#X connect 7 0 8 0;
#X connect 9 1 10 0;
#X connect 10 0 11 0;
#X connect 11 0 12 0;
#X connect 13 0 14 0;
#X connect 13 1 15 0;
#X connect 13 2 16 0;
#X restore 150 133 pd params;
#N canvas 189 46 1436 841 para 0;
#X obj 10 17 inlet;
#X obj 10 44 route hpactive hpfreq hpres lsactive lsfreq lsslope lsgain
;
#X obj 10 99 != 0;
#X obj 59 227 clip 0 22050;
#X obj 128 206 r \$0-nyquist;
#X obj 59 258 s \$0-hp.freq;
#X obj 10 129 s \$0-hp.active;
#X obj 108 174 s \$0-hp.q;
#X obj 745 596 != 0;
#X obj 794 724 clip 0 22050;
#X obj 863 703 r \$0-nyquist;
#X obj 745 626 s \$0-lp.active;
#X obj 843 671 s \$0-lp.q;
#X obj 794 755 s \$0-lp.freq;
#X obj 157 99 != 0;
#X obj 207 227 clip 0 22050;
#X obj 276 206 r \$0-nyquist;
#X obj 157 129 s \$0-ls.active;
#X obj 256 174 s \$0-ls.q;
#X obj 207 258 s \$0-ls.freq;
#X obj 305 152 s \$0-ls.gain;
#X obj 373 99 != 0;
#X obj 414 227 clip 0 22050;
#X obj 483 206 r \$0-nyquist;
#X obj 373 129 s \$0-p1.active;
#X obj 414 258 s \$0-p1.freq;
#X obj 456 174 s \$0-p1.q;
#X obj 497 152 s \$0-p1.gain;
#X obj 539 99 != 0;
#X obj 581 227 clip 0 22050;
#X obj 650 206 r \$0-nyquist;
#X obj 539 129 s \$0-p2.active;
#X obj 581 258 s \$0-p2.freq;
#X obj 622 174 s \$0-p2.q;
#X obj 664 152 s \$0-p2.gain;
#X obj 744 101 != 0;
#X obj 800 229 clip 0 22050;
#X obj 866 208 r \$0-nyquist;
#X obj 744 131 s \$0-p3.active;
#X obj 800 260 s \$0-p3.freq;
#X obj 856 176 s \$0-p3.q;
#X obj 912 154 s \$0-p3.gain;
#X obj 548 601 != 0;
#X obj 597 729 clip 0 22050;
#X obj 666 708 r \$0-nyquist;
#X obj 548 631 s \$0-hs.active;
#X obj 597 760 s \$0-hs.freq;
#X obj 646 676 s \$0-hs.q;
#X obj 695 654 s \$0-hs.gain;
#X obj 548 545 route hsactive hsfreq hsslope hsgain lpactive lpfreq
lpres;
#X obj 980 102 != 0;
#X obj 1036 230 clip 0 22050;
#X obj 1105 209 r \$0-nyquist;
#X obj 980 132 s \$0-p4.active;
#X obj 1148 155 s \$0-p4.gain;
#X obj 1092 177 s \$0-p4.q;
#X obj 1036 261 s \$0-p4.freq;
#X obj 8 347 != 0;
#X obj 64 475 clip 0 22050;
#X obj 134 454 r \$0-nyquist;
#X obj 234 348 != 0;
#X obj 290 476 clip 0 22050;
#X obj 356 455 r \$0-nyquist;
#X obj 461 347 != 0;
#X obj 514 475 clip 0 22050;
#X obj 583 454 r \$0-nyquist;
#X obj 688 347 != 0;
#X obj 744 475 clip 0 22050;
#X obj 813 454 r \$0-nyquist;
#X obj 18 601 != 0;
#X obj 74 729 clip 0 22050;
#X obj 143 708 r \$0-nyquist;
#X obj 272 603 != 0;
#X obj 334 731 clip 0 22050;
#X obj 403 710 r \$0-nyquist;
#X obj 8 377 s \$0-p5.active;
#X obj 120 422 s \$0-p5.q;
#X obj 176 400 s \$0-p5.gain;
#X obj 64 506 s \$0-p5.freq;
#X obj 290 507 s \$0-p6.freq;
#X obj 234 378 s \$0-p6.active;
#X obj 346 423 s \$0-p6.q;
#X obj 402 401 s \$0-p6.gain;
#X obj 461 377 s \$0-p7.active;
#X obj 573 422 s \$0-p7.q;
#X obj 629 400 s \$0-p7.gain;
#X obj 514 506 s \$0-p7.freq;
#X obj 688 377 s \$0-p8.active;
#X obj 800 422 s \$0-p8.q;
#X obj 856 400 s \$0-p8.gain;
#X obj 744 506 s \$0-p8.freq;
#X obj 18 631 s \$0-p9.active;
#X obj 186 654 s \$0-p9.gain;
#X obj 130 676 s \$0-p9.q;
#X obj 74 760 s \$0-p9.freq;
#X obj 272 633 s \$0-p10.active;
#X obj 334 762 s \$0-p10.freq;
#X obj 458 656 s \$0-p10.gain;
#X obj 396 678 s \$0-p10.q;
#X obj 893 586 outlet;
#X obj 18 546 route pk9active pk9freq pk9res pk9gain;
#X obj 373 44 route pk1active pk1freq pk1res pk1gain pk2active pk2freq
pk2res pk2gain;
#X obj 744 45 route pk3active pk3freq pk3res pk3gain;
#X obj 980 46 route pk4active pk4freq pk4res pk4gain;
#X obj 8 291 route pk5active pk5freq pk5res pk5gain;
#X obj 234 292 route pk6active pk6freq pk6res pk6gain;
#X obj 461 291 route pk7active pk7freq pk7res pk7gain;
#X obj 688 291 route pk8active pk8freq pk8res pk8gain;
#X obj 272 547 route pk10active pk10freq pk10res pk10gain;
#X connect 0 0 1 0;
#X connect 1 0 2 0;
#X connect 1 1 3 0;
#X connect 1 2 7 0;
#X connect 1 3 14 0;
#X connect 1 4 15 0;
#X connect 1 5 18 0;
#X connect 1 6 20 0;
#X connect 1 7 101 0;
#X connect 2 0 6 0;
#X connect 3 0 5 0;
#X connect 4 0 3 2;
#X connect 8 0 11 0;
#X connect 9 0 13 0;
#X connect 10 0 9 2;
#X connect 14 0 17 0;
#X connect 15 0 19 0;
#X connect 16 0 15 2;
#X connect 21 0 24 0;
#X connect 22 0 25 0;
#X connect 23 0 22 2;
#X connect 28 0 31 0;
#X connect 29 0 32 0;
#X connect 30 0 29 2;
#X connect 35 0 38 0;
#X connect 36 0 39 0;
#X connect 37 0 36 2;
#X connect 42 0 45 0;
#X connect 43 0 46 0;
#X connect 44 0 43 2;
#X connect 49 0 42 0;
#X connect 49 1 43 0;
#X connect 49 2 47 0;
#X connect 49 3 48 0;
#X connect 49 4 8 0;
#X connect 49 5 9 0;
#X connect 49 6 12 0;
#X connect 49 7 99 0;
#X connect 50 0 53 0;
#X connect 51 0 56 0;
#X connect 52 0 51 2;
#X connect 57 0 75 0;
#X connect 58 0 78 0;
#X connect 59 0 58 2;
#X connect 60 0 80 0;
#X connect 61 0 79 0;
#X connect 62 0 61 2;
#X connect 63 0 83 0;
#X connect 64 0 86 0;
#X connect 65 0 64 2;
#X connect 66 0 87 0;
#X connect 67 0 90 0;
#X connect 68 0 67 2;
#X connect 69 0 91 0;
#X connect 70 0 94 0;
#X connect 71 0 70 2;
#X connect 72 0 95 0;
#X connect 73 0 96 0;
#X connect 74 0 73 2;
#X connect 100 0 69 0;
#X connect 100 1 70 0;
#X connect 100 2 93 0;
#X connect 100 3 92 0;
#X connect 100 4 108 0;
#X connect 101 0 21 0;
#X connect 101 1 22 0;
#X connect 101 2 26 0;
#X connect 101 3 27 0;
#X connect 101 4 28 0;
#X connect 101 5 29 0;
#X connect 101 6 33 0;
#X connect 101 7 34 0;
#X connect 101 8 102 0;
#X connect 102 0 35 0;
#X connect 102 1 36 0;
#X connect 102 2 40 0;
#X connect 102 3 41 0;
#X connect 102 4 103 0;
#X connect 103 0 50 0;
#X connect 103 1 51 0;
#X connect 103 2 55 0;
#X connect 103 3 54 0;
#X connect 103 4 104 0;
#X connect 104 0 57 0;
#X connect 104 1 58 0;
#X connect 104 2 76 0;
#X connect 104 3 77 0;
#X connect 104 4 105 0;
#X connect 105 0 60 0;
#X connect 105 1 61 0;
#X connect 105 2 81 0;
#X connect 105 3 82 0;
#X connect 105 4 106 0;
#X connect 106 0 63 0;
#X connect 106 1 64 0;
#X connect 106 2 84 0;
#X connect 106 3 85 0;
#X connect 106 4 107 0;
#X connect 107 0 66 0;
#X connect 107 1 67 0;
#X connect 107 2 88 0;
#X connect 107 3 89 0;
#X connect 107 4 100 0;
#X connect 108 0 72 0;
#X connect 108 1 73 0;
#X connect 108 2 98 0;
#X connect 108 3 97 0;
#X connect 108 4 49 0;
#X restore 150 97 pd para;
#X obj 150 65 inlet;
#X connect 1 0 0 0;
#X connect 2 0 1 0;
#X coords 0 -1 1 1 20 20 1 100 100;
#X restore 584 263 pd params;
#X obj 55 1 inlet;
#X obj 696 498 r \$0-dumprint;
#X connect 20 0 27 0;
#X connect 20 0 53 0;
#X connect 20 0 107 0;
#X connect 24 0 86 0;
#X connect 24 0 107 1;
#X connect 26 0 35 0;
#X connect 35 0 27 1;
#X connect 35 0 41 1;
#X connect 38 0 27 1;
#X connect 39 0 41 1;
#X connect 46 0 47 0;
#X connect 46 1 48 0;
#X connect 47 0 51 0;
#X connect 48 0 52 0;
#X connect 49 0 50 0;
#X connect 51 0 49 0;
#X connect 52 0 49 1;
#X connect 53 0 54 0;
#X connect 53 1 55 0;
#X connect 54 0 57 0;
#X connect 55 0 58 0;
#X connect 56 0 59 0;
#X connect 57 0 56 0;
#X connect 58 0 56 1;
#X connect 86 1 85 0;
#X connect 106 0 108 0;
#X connect 107 0 45 0;
#X connect 107 0 46 0;
#X connect 107 0 41 0;
#X connect 107 1 84 0;
#X connect 109 0 44 0;
#X connect 110 0 65 0;
#X coords 0 -1 1 1 731 192 2 20 20;
