#N canvas 774 138 400 180 10;
#N canvas 155 84 859 694 (subpatch) 0;
#X floatatom 125 232 3 0 99 0 - - -;
#X obj 125 255 / 100;
#X floatatom 179 231 4 0 100 0 - - -;
#X obj 179 254 / 100;
#X obj 291 265 sin;
#X obj 236 266 cos;
#X obj 236 217 * 3.14159;
#X obj 236 241 / 180;
#X obj 89 307 *;
#X obj 236 290 t b f;
#X obj 291 290 t b f;
#X obj 62 324 cpole~;
#X obj 104 341 czero~;
#X text 115 196 pole and zero;
#X text 133 211 radii (%);
#X obj 125 307 *;
#X obj 179 324 *;
#X obj 214 324 *;
#X obj 301 200 / 10;
#X obj 492 509 *~ 0;
#X obj 525 155 vsl 15 20 0 100 0 0 cpole4vol rcpole4vol empty 0 -9
0 10 -262144 -1 -1 0 1;
#X floatatom 301 177 5 0 0 0 - - -;
#X obj 525 440 dbtorms;
#X floatatom 428 266 3 0 99 0 - - -;
#X obj 428 289 / 100;
#X floatatom 482 265 4 0 100 0 - - -;
#X obj 482 288 / 100;
#X obj 594 299 sin;
#X obj 539 300 cos;
#X obj 539 251 * 3.14159;
#X obj 539 275 / 180;
#X obj 392 341 *;
#X obj 539 324 t b f;
#X obj 594 324 t b f;
#X obj 365 358 cpole~;
#X obj 407 375 czero~;
#X text 418 230 pole and zero;
#X text 436 245 radii (%);
#X obj 428 341 *;
#X obj 482 358 *;
#X obj 517 358 *;
#X obj 543 235 / 10;
#X floatatom 543 161 5 0 0 0 - - -;
#X obj 125 159 loadbang;
#X msg 125 176 99;
#X msg 179 176 0;
#X obj 428 189 loadbang;
#X msg 428 206 99;
#X msg 482 206 0;
#X obj 62 265 inlet~;
#X obj 526 546 outlet~;
#X obj 543 108 inlet;
#X floatatom 670 236 5 0 0 0 - - -;
#X obj 492 598 s~ filtre1;
#X obj 62 158 r~ cpol1;
#X obj 591 144 r fil1;
#X connect 0 0 1 0;
#X connect 1 0 8 0;
#X connect 1 0 15 0;
#X connect 2 0 3 0;
#X connect 3 0 16 0;
#X connect 3 0 17 0;
#X connect 4 0 10 0;
#X connect 5 0 9 0;
#X connect 6 0 7 0;
#X connect 7 0 5 0;
#X connect 7 0 4 0;
#X connect 8 0 11 2;
#X connect 9 0 8 0;
#X connect 9 0 16 0;
#X connect 9 1 8 1;
#X connect 9 1 16 1;
#X connect 10 0 15 0;
#X connect 10 0 17 0;
#X connect 10 1 17 1;
#X connect 10 1 15 1;
#X connect 11 0 12 0;
#X connect 11 1 12 1;
#X connect 12 1 34 0;
#X connect 15 0 11 3;
#X connect 16 0 12 2;
#X connect 17 0 12 3;
#X connect 18 0 6 0;
#X connect 19 0 50 0;
#X connect 19 0 53 0;
#X connect 20 0 22 0;
#X connect 20 0 52 0;
#X connect 21 0 18 0;
#X connect 22 0 19 1;
#X connect 23 0 24 0;
#X connect 24 0 31 0;
#X connect 24 0 38 0;
#X connect 25 0 26 0;
#X connect 26 0 39 0;
#X connect 26 0 40 0;
#X connect 27 0 33 0;
#X connect 28 0 32 0;
#X connect 29 0 30 0;
#X connect 30 0 28 0;
#X connect 30 0 27 0;
#X connect 31 0 34 2;
#X connect 32 0 31 0;
#X connect 32 0 39 0;
#X connect 32 1 31 1;
#X connect 32 1 39 1;
#X connect 33 0 38 0;
#X connect 33 0 40 0;
#X connect 33 1 40 1;
#X connect 33 1 38 1;
#X connect 34 0 35 0;
#X connect 34 1 35 1;
#X connect 35 1 19 0;
#X connect 38 0 34 3;
#X connect 39 0 35 2;
#X connect 40 0 35 3;
#X connect 41 0 29 0;
#X connect 42 0 21 0;
#X connect 42 0 41 0;
#X connect 43 0 44 0;
#X connect 43 0 45 0;
#X connect 44 0 0 0;
#X connect 45 0 2 0;
#X connect 46 0 47 0;
#X connect 46 0 48 0;
#X connect 47 0 23 0;
#X connect 48 0 25 0;
#X connect 49 0 11 0;
#X connect 51 0 42 0;
#X connect 54 0 11 0;
#X connect 55 0 42 0;
#X coords 0 -1 1 1 60 30 2 520 150;
#X restore 34 39 pd;
#N canvas 155 84 859 694 (subpatch) 0;
#X floatatom 125 232 3 0 99 0 - - -;
#X obj 125 255 / 100;
#X floatatom 179 231 4 0 100 0 - - -;
#X obj 179 254 / 100;
#X obj 291 265 sin;
#X obj 236 266 cos;
#X obj 236 217 * 3.14159;
#X obj 236 241 / 180;
#X obj 89 307 *;
#X obj 236 290 t b f;
#X obj 291 290 t b f;
#X obj 62 324 cpole~;
#X obj 104 341 czero~;
#X text 115 196 pole and zero;
#X text 133 211 radii (%);
#X obj 125 307 *;
#X obj 179 324 *;
#X obj 214 324 *;
#X obj 301 200 / 10;
#X obj 492 509 *~ 0;
#X obj 525 155 vsl 15 20 0 100 0 0 cpole4vol rcpole4vol empty 0 -9
0 10 -262144 -1 -1 0 1;
#X floatatom 301 177 5 0 0 0 - - -;
#X obj 525 440 dbtorms;
#X floatatom 428 266 3 0 99 0 - - -;
#X obj 428 289 / 100;
#X floatatom 482 265 4 0 100 0 - - -;
#X obj 482 288 / 100;
#X obj 594 299 sin;
#X obj 539 300 cos;
#X obj 539 251 * 3.14159;
#X obj 539 275 / 180;
#X obj 392 341 *;
#X obj 539 324 t b f;
#X obj 594 324 t b f;
#X obj 365 358 cpole~;
#X obj 407 375 czero~;
#X text 418 230 pole and zero;
#X text 436 245 radii (%);
#X obj 428 341 *;
#X obj 482 358 *;
#X obj 517 358 *;
#X obj 543 235 / 10;
#X floatatom 543 161 5 0 0 0 - - -;
#X obj 125 159 loadbang;
#X msg 125 176 99;
#X msg 179 176 0;
#X obj 428 189 loadbang;
#X msg 428 206 99;
#X msg 482 206 0;
#X obj 62 265 inlet~;
#X obj 526 546 outlet~;
#X obj 543 108 inlet;
#X floatatom 670 236 5 0 0 0 - - -;
#X obj 62 158 r~ cpol2;
#X obj 492 598 s~ filtre2;
#X obj 594 144 r fil2;
#X connect 0 0 1 0;
#X connect 1 0 8 0;
#X connect 1 0 15 0;
#X connect 2 0 3 0;
#X connect 3 0 16 0;
#X connect 3 0 17 0;
#X connect 4 0 10 0;
#X connect 5 0 9 0;
#X connect 6 0 7 0;
#X connect 7 0 5 0;
#X connect 7 0 4 0;
#X connect 8 0 11 2;
#X connect 9 0 8 0;
#X connect 9 0 16 0;
#X connect 9 1 8 1;
#X connect 9 1 16 1;
#X connect 10 0 15 0;
#X connect 10 0 17 0;
#X connect 10 1 17 1;
#X connect 10 1 15 1;
#X connect 11 0 12 0;
#X connect 11 1 12 1;
#X connect 12 1 34 0;
#X connect 15 0 11 3;
#X connect 16 0 12 2;
#X connect 17 0 12 3;
#X connect 18 0 6 0;
#X connect 19 0 50 0;
#X connect 19 0 54 0;
#X connect 20 0 22 0;
#X connect 20 0 52 0;
#X connect 21 0 18 0;
#X connect 22 0 19 1;
#X connect 23 0 24 0;
#X connect 24 0 31 0;
#X connect 24 0 38 0;
#X connect 25 0 26 0;
#X connect 26 0 39 0;
#X connect 26 0 40 0;
#X connect 27 0 33 0;
#X connect 28 0 32 0;
#X connect 29 0 30 0;
#X connect 30 0 28 0;
#X connect 30 0 27 0;
#X connect 31 0 34 2;
#X connect 32 0 31 0;
#X connect 32 0 39 0;
#X connect 32 1 31 1;
#X connect 32 1 39 1;
#X connect 33 0 38 0;
#X connect 33 0 40 0;
#X connect 33 1 40 1;
#X connect 33 1 38 1;
#X connect 34 0 35 0;
#X connect 34 1 35 1;
#X connect 35 1 19 0;
#X connect 38 0 34 3;
#X connect 39 0 35 2;
#X connect 40 0 35 3;
#X connect 41 0 29 0;
#X connect 42 0 21 0;
#X connect 42 0 41 0;
#X connect 43 0 44 0;
#X connect 43 0 45 0;
#X connect 44 0 0 0;
#X connect 45 0 2 0;
#X connect 46 0 47 0;
#X connect 46 0 48 0;
#X connect 47 0 23 0;
#X connect 48 0 25 0;
#X connect 49 0 11 0;
#X connect 51 0 42 0;
#X connect 53 0 11 0;
#X connect 55 0 42 0;
#X coords 0 -1 1 1 60 30 2 520 150;
#X restore 35 81 pd;
#N canvas 155 84 859 694 (subpatch) 0;
#X floatatom 125 232 3 0 99 0 - - -;
#X obj 125 255 / 100;
#X floatatom 179 231 4 0 100 0 - - -;
#X obj 179 254 / 100;
#X obj 291 265 sin;
#X obj 236 266 cos;
#X obj 236 217 * 3.14159;
#X obj 236 241 / 180;
#X obj 89 307 *;
#X obj 236 290 t b f;
#X obj 291 290 t b f;
#X obj 62 324 cpole~;
#X obj 104 341 czero~;
#X text 115 196 pole and zero;
#X text 133 211 radii (%);
#X obj 125 307 *;
#X obj 179 324 *;
#X obj 214 324 *;
#X obj 301 200 / 10;
#X obj 492 509 *~ 0;
#X obj 525 155 vsl 15 20 0 100 0 0 cpole4vol rcpole4vol empty 0 -9
0 10 -262144 -1 -1 0 1;
#X floatatom 301 177 5 0 0 0 - - -;
#X obj 525 440 dbtorms;
#X floatatom 428 266 3 0 99 0 - - -;
#X obj 428 289 / 100;
#X floatatom 482 265 4 0 100 0 - - -;
#X obj 482 288 / 100;
#X obj 594 299 sin;
#X obj 539 300 cos;
#X obj 539 251 * 3.14159;
#X obj 539 275 / 180;
#X obj 392 341 *;
#X obj 539 324 t b f;
#X obj 594 324 t b f;
#X obj 365 358 cpole~;
#X obj 407 375 czero~;
#X text 418 230 pole and zero;
#X text 436 245 radii (%);
#X obj 428 341 *;
#X obj 482 358 *;
#X obj 517 358 *;
#X obj 543 235 / 10;
#X floatatom 543 161 5 0 0 0 - - -;
#X obj 125 159 loadbang;
#X msg 125 176 99;
#X msg 179 176 0;
#X obj 428 189 loadbang;
#X msg 428 206 99;
#X msg 482 206 0;
#X obj 62 265 inlet~;
#X obj 526 546 outlet~;
#X obj 543 108 inlet;
#X floatatom 670 236 5 0 0 0 - - -;
#X obj 62 158 r~ cpol3;
#X obj 492 598 s~ filtre3;
#X obj 582 144 r fil3;
#X connect 0 0 1 0;
#X connect 1 0 8 0;
#X connect 1 0 15 0;
#X connect 2 0 3 0;
#X connect 3 0 16 0;
#X connect 3 0 17 0;
#X connect 4 0 10 0;
#X connect 5 0 9 0;
#X connect 6 0 7 0;
#X connect 7 0 5 0;
#X connect 7 0 4 0;
#X connect 8 0 11 2;
#X connect 9 0 8 0;
#X connect 9 0 16 0;
#X connect 9 1 8 1;
#X connect 9 1 16 1;
#X connect 10 0 15 0;
#X connect 10 0 17 0;
#X connect 10 1 17 1;
#X connect 10 1 15 1;
#X connect 11 0 12 0;
#X connect 11 1 12 1;
#X connect 12 1 34 0;
#X connect 15 0 11 3;
#X connect 16 0 12 2;
#X connect 17 0 12 3;
#X connect 18 0 6 0;
#X connect 19 0 50 0;
#X connect 19 0 54 0;
#X connect 20 0 22 0;
#X connect 20 0 52 0;
#X connect 21 0 18 0;
#X connect 22 0 19 1;
#X connect 23 0 24 0;
#X connect 24 0 31 0;
#X connect 24 0 38 0;
#X connect 25 0 26 0;
#X connect 26 0 39 0;
#X connect 26 0 40 0;
#X connect 27 0 33 0;
#X connect 28 0 32 0;
#X connect 29 0 30 0;
#X connect 30 0 28 0;
#X connect 30 0 27 0;
#X connect 31 0 34 2;
#X connect 32 0 31 0;
#X connect 32 0 39 0;
#X connect 32 1 31 1;
#X connect 32 1 39 1;
#X connect 33 0 38 0;
#X connect 33 0 40 0;
#X connect 33 1 40 1;
#X connect 33 1 38 1;
#X connect 34 0 35 0;
#X connect 34 1 35 1;
#X connect 35 1 19 0;
#X connect 38 0 34 3;
#X connect 39 0 35 2;
#X connect 40 0 35 3;
#X connect 41 0 29 0;
#X connect 42 0 21 0;
#X connect 42 0 41 0;
#X connect 43 0 44 0;
#X connect 43 0 45 0;
#X connect 44 0 0 0;
#X connect 45 0 2 0;
#X connect 46 0 47 0;
#X connect 46 0 48 0;
#X connect 47 0 23 0;
#X connect 48 0 25 0;
#X connect 49 0 11 0;
#X connect 51 0 42 0;
#X connect 53 0 11 0;
#X connect 55 0 42 0;
#X coords 0 -1 1 1 60 30 2 520 150;
#X restore 36 124 pd;
#N canvas 155 84 859 694 (subpatch) 0;
#X floatatom 125 232 3 0 99 0 - - -;
#X obj 125 255 / 100;
#X floatatom 179 231 4 0 100 0 - - -;
#X obj 179 254 / 100;
#X obj 291 265 sin;
#X obj 236 266 cos;
#X obj 236 217 * 3.14159;
#X obj 236 241 / 180;
#X obj 89 307 *;
#X obj 236 290 t b f;
#X obj 291 290 t b f;
#X obj 62 324 cpole~;
#X obj 104 341 czero~;
#X text 115 196 pole and zero;
#X text 133 211 radii (%);
#X obj 125 307 *;
#X obj 179 324 *;
#X obj 214 324 *;
#X obj 301 200 / 10;
#X obj 492 509 *~ 0;
#X obj 525 155 vsl 15 20 0 100 0 0 cpole4vol rcpole4vol empty 0 -9
0 10 -262144 -1 -1 0 1;
#X floatatom 301 177 5 0 0 0 - - -;
#X obj 525 440 dbtorms;
#X floatatom 428 266 3 0 99 0 - - -;
#X obj 428 289 / 100;
#X floatatom 482 265 4 0 100 0 - - -;
#X obj 482 288 / 100;
#X obj 594 299 sin;
#X obj 539 300 cos;
#X obj 539 251 * 3.14159;
#X obj 539 275 / 180;
#X obj 392 341 *;
#X obj 539 324 t b f;
#X obj 594 324 t b f;
#X obj 365 358 cpole~;
#X obj 407 375 czero~;
#X text 418 230 pole and zero;
#X text 436 245 radii (%);
#X obj 428 341 *;
#X obj 482 358 *;
#X obj 517 358 *;
#X obj 543 235 / 10;
#X floatatom 543 161 5 0 0 0 - - -;
#X obj 125 159 loadbang;
#X msg 125 176 99;
#X msg 179 176 0;
#X obj 428 189 loadbang;
#X msg 428 206 99;
#X msg 482 206 0;
#X obj 62 265 inlet~;
#X obj 526 546 outlet~;
#X obj 543 108 inlet;
#X floatatom 670 236 5 0 0 0 - - -;
#X obj 62 158 r~ cpol4;
#X obj 492 598 s~ filtre4;
#X obj 584 144 r fil4;
#X connect 0 0 1 0;
#X connect 1 0 8 0;
#X connect 1 0 15 0;
#X connect 2 0 3 0;
#X connect 3 0 16 0;
#X connect 3 0 17 0;
#X connect 4 0 10 0;
#X connect 5 0 9 0;
#X connect 6 0 7 0;
#X connect 7 0 5 0;
#X connect 7 0 4 0;
#X connect 8 0 11 2;
#X connect 9 0 8 0;
#X connect 9 0 16 0;
#X connect 9 1 8 1;
#X connect 9 1 16 1;
#X connect 10 0 15 0;
#X connect 10 0 17 0;
#X connect 10 1 17 1;
#X connect 10 1 15 1;
#X connect 11 0 12 0;
#X connect 11 1 12 1;
#X connect 12 1 34 0;
#X connect 15 0 11 3;
#X connect 16 0 12 2;
#X connect 17 0 12 3;
#X connect 18 0 6 0;
#X connect 19 0 50 0;
#X connect 19 0 54 0;
#X connect 20 0 22 0;
#X connect 20 0 52 0;
#X connect 21 0 18 0;
#X connect 22 0 19 1;
#X connect 23 0 24 0;
#X connect 24 0 31 0;
#X connect 24 0 38 0;
#X connect 25 0 26 0;
#X connect 26 0 39 0;
#X connect 26 0 40 0;
#X connect 27 0 33 0;
#X connect 28 0 32 0;
#X connect 29 0 30 0;
#X connect 30 0 28 0;
#X connect 30 0 27 0;
#X connect 31 0 34 2;
#X connect 32 0 31 0;
#X connect 32 0 39 0;
#X connect 32 1 31 1;
#X connect 32 1 39 1;
#X connect 33 0 38 0;
#X connect 33 0 40 0;
#X connect 33 1 40 1;
#X connect 33 1 38 1;
#X connect 34 0 35 0;
#X connect 34 1 35 1;
#X connect 35 1 19 0;
#X connect 38 0 34 3;
#X connect 39 0 35 2;
#X connect 40 0 35 3;
#X connect 41 0 29 0;
#X connect 42 0 21 0;
#X connect 42 0 41 0;
#X connect 43 0 44 0;
#X connect 43 0 45 0;
#X connect 44 0 0 0;
#X connect 45 0 2 0;
#X connect 46 0 47 0;
#X connect 46 0 48 0;
#X connect 47 0 23 0;
#X connect 48 0 25 0;
#X connect 49 0 11 0;
#X connect 51 0 42 0;
#X connect 53 0 11 0;
#X connect 55 0 42 0;
#X coords 0 -1 1 1 60 30 2 520 150;
#X restore 140 39 pd;
#N canvas 155 84 859 694 (subpatch) 0;
#X floatatom 125 232 3 0 99 0 - - -;
#X obj 125 255 / 100;
#X floatatom 179 231 4 0 100 0 - - -;
#X obj 179 254 / 100;
#X obj 291 265 sin;
#X obj 236 266 cos;
#X obj 236 217 * 3.14159;
#X obj 236 241 / 180;
#X obj 89 307 *;
#X obj 236 290 t b f;
#X obj 291 290 t b f;
#X obj 62 324 cpole~;
#X obj 104 341 czero~;
#X text 115 196 pole and zero;
#X text 133 211 radii (%);
#X obj 125 307 *;
#X obj 179 324 *;
#X obj 214 324 *;
#X obj 301 200 / 10;
#X obj 492 509 *~ 0;
#X obj 525 155 vsl 15 20 0 100 0 0 cpole4vol rcpole4vol empty 0 -9
0 10 -262144 -1 -1 0 1;
#X floatatom 301 177 5 0 0 0 - - -;
#X obj 525 440 dbtorms;
#X floatatom 428 266 3 0 99 0 - - -;
#X obj 428 289 / 100;
#X floatatom 482 265 4 0 100 0 - - -;
#X obj 482 288 / 100;
#X obj 594 299 sin;
#X obj 539 300 cos;
#X obj 539 251 * 3.14159;
#X obj 539 275 / 180;
#X obj 392 341 *;
#X obj 539 324 t b f;
#X obj 594 324 t b f;
#X obj 365 358 cpole~;
#X obj 407 375 czero~;
#X text 418 230 pole and zero;
#X text 436 245 radii (%);
#X obj 428 341 *;
#X obj 482 358 *;
#X obj 517 358 *;
#X obj 543 235 / 10;
#X floatatom 543 161 5 0 0 0 - - -;
#X obj 125 159 loadbang;
#X msg 125 176 99;
#X msg 179 176 0;
#X obj 428 189 loadbang;
#X msg 428 206 99;
#X msg 482 206 0;
#X obj 62 265 inlet~;
#X obj 526 546 outlet~;
#X obj 543 108 inlet;
#X floatatom 670 236 5 0 0 0 - - -;
#X obj 62 158 r~ cpol5;
#X obj 492 598 s~ filtre5;
#X obj 613 144 r fil5;
#X connect 0 0 1 0;
#X connect 1 0 8 0;
#X connect 1 0 15 0;
#X connect 2 0 3 0;
#X connect 3 0 16 0;
#X connect 3 0 17 0;
#X connect 4 0 10 0;
#X connect 5 0 9 0;
#X connect 6 0 7 0;
#X connect 7 0 5 0;
#X connect 7 0 4 0;
#X connect 8 0 11 2;
#X connect 9 0 8 0;
#X connect 9 0 16 0;
#X connect 9 1 8 1;
#X connect 9 1 16 1;
#X connect 10 0 15 0;
#X connect 10 0 17 0;
#X connect 10 1 17 1;
#X connect 10 1 15 1;
#X connect 11 0 12 0;
#X connect 11 1 12 1;
#X connect 12 1 34 0;
#X connect 15 0 11 3;
#X connect 16 0 12 2;
#X connect 17 0 12 3;
#X connect 18 0 6 0;
#X connect 19 0 50 0;
#X connect 19 0 54 0;
#X connect 20 0 22 0;
#X connect 20 0 52 0;
#X connect 21 0 18 0;
#X connect 22 0 19 1;
#X connect 23 0 24 0;
#X connect 24 0 31 0;
#X connect 24 0 38 0;
#X connect 25 0 26 0;
#X connect 26 0 39 0;
#X connect 26 0 40 0;
#X connect 27 0 33 0;
#X connect 28 0 32 0;
#X connect 29 0 30 0;
#X connect 30 0 28 0;
#X connect 30 0 27 0;
#X connect 31 0 34 2;
#X connect 32 0 31 0;
#X connect 32 0 39 0;
#X connect 32 1 31 1;
#X connect 32 1 39 1;
#X connect 33 0 38 0;
#X connect 33 0 40 0;
#X connect 33 1 40 1;
#X connect 33 1 38 1;
#X connect 34 0 35 0;
#X connect 34 1 35 1;
#X connect 35 1 19 0;
#X connect 38 0 34 3;
#X connect 39 0 35 2;
#X connect 40 0 35 3;
#X connect 41 0 29 0;
#X connect 42 0 21 0;
#X connect 42 0 41 0;
#X connect 43 0 44 0;
#X connect 43 0 45 0;
#X connect 44 0 0 0;
#X connect 45 0 2 0;
#X connect 46 0 47 0;
#X connect 46 0 48 0;
#X connect 47 0 23 0;
#X connect 48 0 25 0;
#X connect 49 0 11 0;
#X connect 51 0 42 0;
#X connect 53 0 11 0;
#X connect 55 0 42 0;
#X coords 0 -1 1 1 60 30 2 520 150;
#X restore 141 81 pd;
#N canvas 155 84 859 694 (subpatch) 0;
#X floatatom 125 232 3 0 99 0 - - -;
#X obj 125 255 / 100;
#X floatatom 179 231 4 0 100 0 - - -;
#X obj 179 254 / 100;
#X obj 291 265 sin;
#X obj 236 266 cos;
#X obj 236 217 * 3.14159;
#X obj 236 241 / 180;
#X obj 89 307 *;
#X obj 236 290 t b f;
#X obj 291 290 t b f;
#X obj 62 324 cpole~;
#X obj 104 341 czero~;
#X text 115 196 pole and zero;
#X text 133 211 radii (%);
#X obj 125 307 *;
#X obj 179 324 *;
#X obj 214 324 *;
#X obj 301 200 / 10;
#X obj 492 509 *~ 0;
#X obj 525 155 vsl 15 20 0 100 0 0 cpole4vol rcpole4vol empty 0 -9
0 10 -262144 -1 -1 0 1;
#X floatatom 301 177 5 0 0 0 - - -;
#X obj 525 440 dbtorms;
#X floatatom 428 266 3 0 99 0 - - -;
#X obj 428 289 / 100;
#X floatatom 482 265 4 0 100 0 - - -;
#X obj 482 288 / 100;
#X obj 594 299 sin;
#X obj 539 300 cos;
#X obj 539 251 * 3.14159;
#X obj 539 275 / 180;
#X obj 392 341 *;
#X obj 539 324 t b f;
#X obj 594 324 t b f;
#X obj 365 358 cpole~;
#X obj 407 375 czero~;
#X text 418 230 pole and zero;
#X text 436 245 radii (%);
#X obj 428 341 *;
#X obj 482 358 *;
#X obj 517 358 *;
#X obj 543 235 / 10;
#X floatatom 543 161 5 0 0 0 - - -;
#X obj 125 159 loadbang;
#X msg 125 176 99;
#X msg 179 176 0;
#X obj 428 189 loadbang;
#X msg 428 206 99;
#X msg 482 206 0;
#X obj 62 265 inlet~;
#X obj 526 546 outlet~;
#X obj 543 108 inlet;
#X floatatom 670 236 5 0 0 0 - - -;
#X obj 62 158 r~ cpol6;
#X obj 492 598 s~ filtre6;
#X obj 595 144 r fil6;
#X connect 0 0 1 0;
#X connect 1 0 8 0;
#X connect 1 0 15 0;
#X connect 2 0 3 0;
#X connect 3 0 16 0;
#X connect 3 0 17 0;
#X connect 4 0 10 0;
#X connect 5 0 9 0;
#X connect 6 0 7 0;
#X connect 7 0 5 0;
#X connect 7 0 4 0;
#X connect 8 0 11 2;
#X connect 9 0 8 0;
#X connect 9 0 16 0;
#X connect 9 1 8 1;
#X connect 9 1 16 1;
#X connect 10 0 15 0;
#X connect 10 0 17 0;
#X connect 10 1 17 1;
#X connect 10 1 15 1;
#X connect 11 0 12 0;
#X connect 11 1 12 1;
#X connect 12 1 34 0;
#X connect 15 0 11 3;
#X connect 16 0 12 2;
#X connect 17 0 12 3;
#X connect 18 0 6 0;
#X connect 19 0 50 0;
#X connect 19 0 54 0;
#X connect 20 0 22 0;
#X connect 20 0 52 0;
#X connect 21 0 18 0;
#X connect 22 0 19 1;
#X connect 23 0 24 0;
#X connect 24 0 31 0;
#X connect 24 0 38 0;
#X connect 25 0 26 0;
#X connect 26 0 39 0;
#X connect 26 0 40 0;
#X connect 27 0 33 0;
#X connect 28 0 32 0;
#X connect 29 0 30 0;
#X connect 30 0 28 0;
#X connect 30 0 27 0;
#X connect 31 0 34 2;
#X connect 32 0 31 0;
#X connect 32 0 39 0;
#X connect 32 1 31 1;
#X connect 32 1 39 1;
#X connect 33 0 38 0;
#X connect 33 0 40 0;
#X connect 33 1 40 1;
#X connect 33 1 38 1;
#X connect 34 0 35 0;
#X connect 34 1 35 1;
#X connect 35 1 19 0;
#X connect 38 0 34 3;
#X connect 39 0 35 2;
#X connect 40 0 35 3;
#X connect 41 0 29 0;
#X connect 42 0 21 0;
#X connect 42 0 41 0;
#X connect 43 0 44 0;
#X connect 43 0 45 0;
#X connect 44 0 0 0;
#X connect 45 0 2 0;
#X connect 46 0 47 0;
#X connect 46 0 48 0;
#X connect 47 0 23 0;
#X connect 48 0 25 0;
#X connect 49 0 11 0;
#X connect 51 0 42 0;
#X connect 53 0 11 0;
#X connect 55 0 42 0;
#X coords 0 -1 1 1 60 30 2 520 150;
#X restore 142 123 pd;
#N canvas 155 84 859 694 (subpatch) 0;
#X floatatom 125 232 3 0 99 0 - - -;
#X obj 125 255 / 100;
#X floatatom 179 231 4 0 100 0 - - -;
#X obj 179 254 / 100;
#X obj 291 265 sin;
#X obj 236 266 cos;
#X obj 236 217 * 3.14159;
#X obj 236 241 / 180;
#X obj 89 307 *;
#X obj 236 290 t b f;
#X obj 291 290 t b f;
#X obj 62 324 cpole~;
#X obj 104 341 czero~;
#X text 115 196 pole and zero;
#X text 133 211 radii (%);
#X obj 125 307 *;
#X obj 179 324 *;
#X obj 214 324 *;
#X obj 301 200 / 10;
#X obj 492 509 *~ 0;
#X obj 525 155 vsl 15 20 0 100 0 0 cpole4vol rcpole4vol empty 0 -9
0 10 -262144 -1 -1 0 1;
#X floatatom 301 177 5 0 0 0 - - -;
#X obj 525 440 dbtorms;
#X floatatom 428 266 3 0 99 0 - - -;
#X obj 428 289 / 100;
#X floatatom 482 265 4 0 100 0 - - -;
#X obj 482 288 / 100;
#X obj 594 299 sin;
#X obj 539 300 cos;
#X obj 539 251 * 3.14159;
#X obj 539 275 / 180;
#X obj 392 341 *;
#X obj 539 324 t b f;
#X obj 594 324 t b f;
#X obj 365 358 cpole~;
#X obj 407 375 czero~;
#X text 418 230 pole and zero;
#X text 436 245 radii (%);
#X obj 428 341 *;
#X obj 482 358 *;
#X obj 517 358 *;
#X obj 543 235 / 10;
#X floatatom 543 161 5 0 0 0 - - -;
#X obj 125 159 loadbang;
#X msg 125 176 99;
#X msg 179 176 0;
#X obj 428 189 loadbang;
#X msg 428 206 99;
#X msg 482 206 0;
#X obj 62 265 inlet~;
#X obj 526 546 outlet~;
#X obj 543 108 inlet;
#X floatatom 670 236 5 0 0 0 - - -;
#X obj 62 158 r~ cpol7;
#X obj 492 598 s~ filtre7;
#X obj 606 144 r fil7;
#X connect 0 0 1 0;
#X connect 1 0 8 0;
#X connect 1 0 15 0;
#X connect 2 0 3 0;
#X connect 3 0 16 0;
#X connect 3 0 17 0;
#X connect 4 0 10 0;
#X connect 5 0 9 0;
#X connect 6 0 7 0;
#X connect 7 0 5 0;
#X connect 7 0 4 0;
#X connect 8 0 11 2;
#X connect 9 0 8 0;
#X connect 9 0 16 0;
#X connect 9 1 8 1;
#X connect 9 1 16 1;
#X connect 10 0 15 0;
#X connect 10 0 17 0;
#X connect 10 1 17 1;
#X connect 10 1 15 1;
#X connect 11 0 12 0;
#X connect 11 1 12 1;
#X connect 12 1 34 0;
#X connect 15 0 11 3;
#X connect 16 0 12 2;
#X connect 17 0 12 3;
#X connect 18 0 6 0;
#X connect 19 0 50 0;
#X connect 19 0 54 0;
#X connect 20 0 22 0;
#X connect 20 0 52 0;
#X connect 21 0 18 0;
#X connect 22 0 19 1;
#X connect 23 0 24 0;
#X connect 24 0 31 0;
#X connect 24 0 38 0;
#X connect 25 0 26 0;
#X connect 26 0 39 0;
#X connect 26 0 40 0;
#X connect 27 0 33 0;
#X connect 28 0 32 0;
#X connect 29 0 30 0;
#X connect 30 0 28 0;
#X connect 30 0 27 0;
#X connect 31 0 34 2;
#X connect 32 0 31 0;
#X connect 32 0 39 0;
#X connect 32 1 31 1;
#X connect 32 1 39 1;
#X connect 33 0 38 0;
#X connect 33 0 40 0;
#X connect 33 1 40 1;
#X connect 33 1 38 1;
#X connect 34 0 35 0;
#X connect 34 1 35 1;
#X connect 35 1 19 0;
#X connect 38 0 34 3;
#X connect 39 0 35 2;
#X connect 40 0 35 3;
#X connect 41 0 29 0;
#X connect 42 0 21 0;
#X connect 42 0 41 0;
#X connect 43 0 44 0;
#X connect 43 0 45 0;
#X connect 44 0 0 0;
#X connect 45 0 2 0;
#X connect 46 0 47 0;
#X connect 46 0 48 0;
#X connect 47 0 23 0;
#X connect 48 0 25 0;
#X connect 49 0 11 0;
#X connect 51 0 42 0;
#X connect 53 0 11 0;
#X connect 55 0 42 0;
#X coords 0 -1 1 1 60 30 2 520 150;
#X restore 251 39 pd;
#N canvas 155 84 859 694 (subpatch) 0;
#X floatatom 125 232 3 0 99 0 - - -;
#X obj 125 255 / 100;
#X floatatom 179 231 4 0 100 0 - - -;
#X obj 179 254 / 100;
#X obj 291 265 sin;
#X obj 236 266 cos;
#X obj 236 217 * 3.14159;
#X obj 236 241 / 180;
#X obj 89 307 *;
#X obj 236 290 t b f;
#X obj 291 290 t b f;
#X obj 62 324 cpole~;
#X obj 104 341 czero~;
#X text 115 196 pole and zero;
#X text 133 211 radii (%);
#X obj 125 307 *;
#X obj 179 324 *;
#X obj 214 324 *;
#X obj 301 200 / 10;
#X obj 492 509 *~ 0;
#X obj 525 155 vsl 15 20 0 100 0 0 cpole4vol rcpole4vol empty 0 -9
0 10 -262144 -1 -1 0 1;
#X floatatom 301 177 5 0 0 0 - - -;
#X obj 525 440 dbtorms;
#X floatatom 428 266 3 0 99 0 - - -;
#X obj 428 289 / 100;
#X floatatom 482 265 4 0 100 0 - - -;
#X obj 482 288 / 100;
#X obj 594 299 sin;
#X obj 539 300 cos;
#X obj 539 251 * 3.14159;
#X obj 539 275 / 180;
#X obj 392 341 *;
#X obj 539 324 t b f;
#X obj 594 324 t b f;
#X obj 365 358 cpole~;
#X obj 407 375 czero~;
#X text 418 230 pole and zero;
#X text 436 245 radii (%);
#X obj 428 341 *;
#X obj 482 358 *;
#X obj 517 358 *;
#X obj 543 235 / 10;
#X floatatom 543 161 5 0 0 0 - - -;
#X obj 125 159 loadbang;
#X msg 125 176 99;
#X msg 179 176 0;
#X obj 428 189 loadbang;
#X msg 428 206 99;
#X msg 482 206 0;
#X obj 62 265 inlet~;
#X obj 526 546 outlet~;
#X obj 543 108 inlet;
#X floatatom 670 236 5 0 0 0 - - -;
#X obj 62 158 r~ cpol8;
#X obj 492 598 s~ filtre8;
#X obj 589 144 r fil8;
#X connect 0 0 1 0;
#X connect 1 0 8 0;
#X connect 1 0 15 0;
#X connect 2 0 3 0;
#X connect 3 0 16 0;
#X connect 3 0 17 0;
#X connect 4 0 10 0;
#X connect 5 0 9 0;
#X connect 6 0 7 0;
#X connect 7 0 5 0;
#X connect 7 0 4 0;
#X connect 8 0 11 2;
#X connect 9 0 8 0;
#X connect 9 0 16 0;
#X connect 9 1 8 1;
#X connect 9 1 16 1;
#X connect 10 0 15 0;
#X connect 10 0 17 0;
#X connect 10 1 17 1;
#X connect 10 1 15 1;
#X connect 11 0 12 0;
#X connect 11 1 12 1;
#X connect 12 1 34 0;
#X connect 15 0 11 3;
#X connect 16 0 12 2;
#X connect 17 0 12 3;
#X connect 18 0 6 0;
#X connect 19 0 50 0;
#X connect 19 0 54 0;
#X connect 20 0 22 0;
#X connect 20 0 52 0;
#X connect 21 0 18 0;
#X connect 22 0 19 1;
#X connect 23 0 24 0;
#X connect 24 0 31 0;
#X connect 24 0 38 0;
#X connect 25 0 26 0;
#X connect 26 0 39 0;
#X connect 26 0 40 0;
#X connect 27 0 33 0;
#X connect 28 0 32 0;
#X connect 29 0 30 0;
#X connect 30 0 28 0;
#X connect 30 0 27 0;
#X connect 31 0 34 2;
#X connect 32 0 31 0;
#X connect 32 0 39 0;
#X connect 32 1 31 1;
#X connect 32 1 39 1;
#X connect 33 0 38 0;
#X connect 33 0 40 0;
#X connect 33 1 40 1;
#X connect 33 1 38 1;
#X connect 34 0 35 0;
#X connect 34 1 35 1;
#X connect 35 1 19 0;
#X connect 38 0 34 3;
#X connect 39 0 35 2;
#X connect 40 0 35 3;
#X connect 41 0 29 0;
#X connect 42 0 21 0;
#X connect 42 0 41 0;
#X connect 43 0 44 0;
#X connect 43 0 45 0;
#X connect 44 0 0 0;
#X connect 45 0 2 0;
#X connect 46 0 47 0;
#X connect 46 0 48 0;
#X connect 47 0 23 0;
#X connect 48 0 25 0;
#X connect 49 0 11 0;
#X connect 51 0 42 0;
#X connect 53 0 11 0;
#X connect 55 0 42 0;
#X coords 0 -1 1 1 60 30 2 520 150;
#X restore 252 81 pd;
#N canvas 155 84 859 694 (subpatch) 0;
#X floatatom 125 232 3 0 99 0 - - -;
#X obj 125 255 / 100;
#X floatatom 179 231 4 0 100 0 - - -;
#X obj 179 254 / 100;
#X obj 291 265 sin;
#X obj 236 266 cos;
#X obj 236 217 * 3.14159;
#X obj 236 241 / 180;
#X obj 89 307 *;
#X obj 236 290 t b f;
#X obj 291 290 t b f;
#X obj 62 324 cpole~;
#X obj 104 341 czero~;
#X text 115 196 pole and zero;
#X text 133 211 radii (%);
#X obj 125 307 *;
#X obj 179 324 *;
#X obj 214 324 *;
#X obj 301 200 / 10;
#X obj 492 509 *~ 0;
#X obj 525 155 vsl 15 20 0 100 0 0 cpole4vol rcpole4vol empty 0 -9
0 10 -262144 -1 -1 0 1;
#X floatatom 301 177 5 0 0 0 - - -;
#X obj 525 440 dbtorms;
#X floatatom 428 266 3 0 99 0 - - -;
#X obj 428 289 / 100;
#X floatatom 482 265 4 0 100 0 - - -;
#X obj 482 288 / 100;
#X obj 594 299 sin;
#X obj 539 300 cos;
#X obj 539 251 * 3.14159;
#X obj 539 275 / 180;
#X obj 392 341 *;
#X obj 539 324 t b f;
#X obj 594 324 t b f;
#X obj 365 358 cpole~;
#X obj 407 375 czero~;
#X text 418 230 pole and zero;
#X text 436 245 radii (%);
#X obj 428 341 *;
#X obj 482 358 *;
#X obj 517 358 *;
#X obj 543 235 / 10;
#X floatatom 543 161 5 0 0 0 - - -;
#X obj 125 159 loadbang;
#X msg 125 176 99;
#X msg 179 176 0;
#X obj 428 189 loadbang;
#X msg 428 206 99;
#X msg 482 206 0;
#X obj 62 265 inlet~;
#X obj 526 546 outlet~;
#X obj 543 108 inlet;
#X floatatom 670 236 5 0 0 0 - - -;
#X obj 62 158 r~ cpol9;
#X obj 492 598 s~ filtre9;
#X obj 589 144 r fil9;
#X connect 0 0 1 0;
#X connect 1 0 8 0;
#X connect 1 0 15 0;
#X connect 2 0 3 0;
#X connect 3 0 16 0;
#X connect 3 0 17 0;
#X connect 4 0 10 0;
#X connect 5 0 9 0;
#X connect 6 0 7 0;
#X connect 7 0 5 0;
#X connect 7 0 4 0;
#X connect 8 0 11 2;
#X connect 9 0 8 0;
#X connect 9 0 16 0;
#X connect 9 1 8 1;
#X connect 9 1 16 1;
#X connect 10 0 15 0;
#X connect 10 0 17 0;
#X connect 10 1 17 1;
#X connect 10 1 15 1;
#X connect 11 0 12 0;
#X connect 11 1 12 1;
#X connect 12 1 34 0;
#X connect 15 0 11 3;
#X connect 16 0 12 2;
#X connect 17 0 12 3;
#X connect 18 0 6 0;
#X connect 19 0 50 0;
#X connect 19 0 54 0;
#X connect 20 0 22 0;
#X connect 20 0 52 0;
#X connect 21 0 18 0;
#X connect 22 0 19 1;
#X connect 23 0 24 0;
#X connect 24 0 31 0;
#X connect 24 0 38 0;
#X connect 25 0 26 0;
#X connect 26 0 39 0;
#X connect 26 0 40 0;
#X connect 27 0 33 0;
#X connect 28 0 32 0;
#X connect 29 0 30 0;
#X connect 30 0 28 0;
#X connect 30 0 27 0;
#X connect 31 0 34 2;
#X connect 32 0 31 0;
#X connect 32 0 39 0;
#X connect 32 1 31 1;
#X connect 32 1 39 1;
#X connect 33 0 38 0;
#X connect 33 0 40 0;
#X connect 33 1 40 1;
#X connect 33 1 38 1;
#X connect 34 0 35 0;
#X connect 34 1 35 1;
#X connect 35 1 19 0;
#X connect 38 0 34 3;
#X connect 39 0 35 2;
#X connect 40 0 35 3;
#X connect 41 0 29 0;
#X connect 42 0 21 0;
#X connect 42 0 41 0;
#X connect 43 0 44 0;
#X connect 43 0 45 0;
#X connect 44 0 0 0;
#X connect 45 0 2 0;
#X connect 46 0 47 0;
#X connect 46 0 48 0;
#X connect 47 0 23 0;
#X connect 48 0 25 0;
#X connect 49 0 11 0;
#X connect 51 0 42 0;
#X connect 53 0 11 0;
#X connect 55 0 42 0;
#X coords 0 -1 1 1 60 30 2 520 150;
#X restore 253 123 pd;
