#N canvas 0 26 1366 693 10;
#X obj 15 22 import mrpeach;
#X obj 78 169 packOSC;
#X obj 79 207 udpsend;
#X msg 251 177 disconnect;
#X obj 79 242 tgl 15 0 empty empty 1=connected 20 8 0 8 -4034 -257985
-1 1 1;
#X obj 178 3 tgl 15 0 empty empty empty 17 7 0 10 -262144 -1 -1 1 1
;
#X msg 232 155 connect 192.168.42.143 8888;
#X msg 119 139 [;
#X msg 73 140 ];
#X obj 73 116 t b a b;
#X msg 74 95 sendtyped /servo ii \$1 \$2;
#X msg 194 54 2 1500;
#X msg 273 55 2 544;
#X msg 378 46 2 2400;
#X connect 1 0 2 0;
#X connect 2 0 4 0;
#X connect 3 0 2 0;
#X connect 6 0 2 0;
#X connect 7 0 1 0;
#X connect 8 0 1 0;
#X connect 9 0 8 0;
#X connect 9 1 1 0;
#X connect 9 2 7 0;
#X connect 10 0 9 0;
#X connect 11 0 10 0;
#X connect 12 0 10 0;
#X connect 13 0 10 0;
