#N canvas 619 113 402 241 10;
#N canvas 106 69 1334 759 saveme 1;
#X obj -54 438 r cpoleL;
#X obj -54 460 save.me.mmb CL gnrl;
#X obj -54 545 s rcpoleL;
#X obj 67 437 r cpoleR;
#X obj 67 459 save.me.mmb CR gnrl;
#X obj 67 544 s rcpoleR;
#X obj 189 437 r cpoleS;
#X obj 189 544 s rcpoleS;
#X obj 189 459 save.me.mmb CS gnrl;
#X obj 310 436 r master;
#X obj 310 543 s rmaster;
#X obj 310 458 save.me.mmb MR gnrl;
#X obj 434 433 r sub;
#X obj 434 540 s rsub;
#X obj 567 427 r cpolevol;
#X obj 434 455 save.me.mmb SU gnrl;
#X obj 567 450 save.me.mmb cvo gnrl;
#X obj 567 509 line;
#X obj 567 486 pack \$1 2000;
#N canvas 804 24 168 129 (subpatch) 0;
#X obj 36 87 outlet;
#X obj 36 13 r l25;
#X obj 36 37 save.me.mmb l25 gnrl;
#X connect 1 0 2 0;
#X connect 2 0 0 0;
#X restore 650 469 pd;
#X obj 567 534 s rcpolevol;
#X obj -54 521 line;
#X obj -54 498 pack \$1 2000;
#X obj 67 520 line;
#X obj 67 497 pack \$1 2000;
#X obj 189 519 line;
#X obj 189 496 pack \$1 2000;
#X obj 310 518 line;
#X obj 310 495 pack \$1 2000;
#N canvas 804 24 168 129 (subpatch) 0;
#X obj 36 87 outlet;
#X obj 36 13 r l26;
#X obj 36 39 save.me.mmb l26 gnrl;
#X connect 1 0 2 0;
#X connect 2 0 0 0;
#X restore 30 481 pd;
#N canvas 804 24 168 129 (subpatch) 0;
#X obj 36 87 outlet;
#X obj 36 13 r l27;
#X obj 36 37 save.me.mmb l27 gnrl;
#X connect 1 0 2 0;
#X connect 2 0 0 0;
#X restore 150 480 pd;
#N canvas 804 24 168 129 (subpatch) 0;
#X obj 36 87 outlet;
#X obj 36 13 r l28;
#X obj 36 37 save.me.mmb l28 gnrl;
#X connect 1 0 2 0;
#X connect 2 0 0 0;
#X restore 272 479 pd;
#N canvas 804 24 168 129 (subpatch) 0;
#X obj 36 87 outlet;
#X obj 36 13 r l29;
#X obj 36 38 save.me.mmb l29 gnrl;
#X connect 1 0 2 0;
#X connect 2 0 0 0;
#X restore 394 478 pd;
#X obj 434 516 line;
#X obj 434 493 pack \$1 2000;
#N canvas 804 24 168 129 (subpatch) 0;
#X obj 36 87 outlet;
#X obj 36 13 r l30;
#X obj 36 37 save.me.mmb l30 gnrl;
#X connect 1 0 2 0;
#X connect 2 0 0 0;
#X restore 518 476 pd;
#X obj 716 511 line;
#X obj 716 488 pack \$1 2000;
#N canvas 804 24 168 129 (subpatch) 0;
#X obj 36 87 outlet;
#X obj 36 13 r l25;
#X obj 36 37 save.me.mmb l25 gnrl;
#X connect 1 0 2 0;
#X connect 2 0 0 0;
#X restore 799 471 pd;
#X obj 716 429 r cpole2vol;
#X obj 716 452 save.me.mmb cvo2 gnrl;
#X obj 716 536 s rcpole2vol;
#X obj 850 510 line;
#X obj 850 487 pack \$1 2000;
#N canvas 804 24 168 129 (subpatch) 0;
#X obj 36 87 outlet;
#X obj 36 13 r l25;
#X obj 36 37 save.me.mmb l25 gnrl;
#X connect 1 0 2 0;
#X connect 2 0 0 0;
#X restore 933 470 pd;
#X obj 999 512 line;
#X obj 999 489 pack \$1 2000;
#N canvas 804 24 168 129 (subpatch) 0;
#X obj 36 87 outlet;
#X obj 36 13 r l25;
#X obj 36 37 save.me.mmb l25 gnrl;
#X connect 1 0 2 0;
#X connect 2 0 0 0;
#X restore 1082 472 pd;
#X obj 850 428 r cpole3vol;
#X obj 850 451 save.me.mmb cvo3 gnrl;
#X obj 850 535 s rcpole3vol;
#X obj 999 430 r cpole4vol;
#X obj 999 453 save.me.mmb cvo4 gnrl;
#X obj 999 537 s rcpole4vol;
#N canvas 263 82 686 518 mic 0;
#X obj -8 -82 save.me.mmb m1eq gnrl;
#X obj -8 -104 r mic1eq;
#X obj -8 -1 s rmic1eq;
#X obj -8 19 r mic2eq;
#X obj -8 120 s rmic2eq;
#X obj -8 41 save.me.mmb m2eq gnrl;
#X obj -144 -103 r mic1dir;
#X obj -144 -81 save.me.mmb m1di gnrl;
#X obj -144 42 save.me.mmb m2di gnrl;
#X obj -144 20 r mic2dir;
#X obj -144 -1 s rmic1dir;
#X obj -144 120 s rmic2dir;
#X obj 288 -103 r mic1sub;
#X obj 288 -81 save.me.mmb m1sub gnrl;
#X obj 288 1 s rmic1sub;
#X obj 288 20 r mic2sub;
#X obj 288 42 save.me.mmb m2sub gnrl;
#X obj 288 121 s rmic2sub;
#X obj -8 142 r mic3eq;
#X obj -8 161 save.me.mmb m3eq gnrl;
#X obj -8 245 s rmic3eq;
#X obj -144 143 r mic3dir;
#X obj -144 165 save.me.mmb m3di gnrl;
#X obj -144 246 s rmic3dir;
#X obj -143 266 r mic4dir;
#X obj -7 265 r mic4eq;
#X obj -7 287 save.me.mmb m4eq gnrl;
#X obj -3 368 s rmic4eq;
#X obj -143 288 save.me.mmb m4di gnrl;
#X obj -139 369 s rmic4dir;
#X obj 288 143 r mic3sub;
#X obj 288 165 save.me.mmb m3sub gnrl;
#X obj 289 245 s rmic3sub;
#X obj 289 266 r mic4sub;
#X obj 289 288 save.me.mmb m4sub gnrl;
#X obj 293 369 s rmic4sub;
#X obj -8 -25 line;
#X obj -8 -45 pack \$1 2000;
#X obj -151 -25 line;
#X obj -144 -44 pack \$1 2000;
#X obj 132 -23 line;
#X obj 132 -43 pack \$1 2000;
#X obj 288 -24 line;
#X obj 288 -44 pack \$1 2000;
#X obj -8 100 line;
#X obj -8 77 pack \$1 2000;
#X obj -151 101 line;
#X obj -144 78 pack \$1 2000;
#X obj 132 102 line;
#X obj 132 79 pack \$1 2000;
#X obj 288 101 line;
#X obj 288 78 pack \$1 2000;
#N canvas 804 24 168 129 (subpatch) 0;
#X obj 36 13 r l1;
#X obj 36 37 save.me.mmb l1 gnrl;
#X obj 36 87 outlet;
#X connect 0 0 1 0;
#X connect 1 0 2 0;
#X restore 75 -62 pd;
#N canvas 804 24 168 129 (subpatch) 0;
#X obj 36 87 outlet;
#X obj 36 13 r l2;
#X obj 36 37 save.me.mmb l2 gnrl;
#X connect 1 0 2 0;
#X connect 2 0 0 0;
#X restore -62 -61 pd;
#N canvas 804 24 168 129 (subpatch) 0;
#X obj 36 87 outlet;
#X obj 36 13 r l3;
#X obj 36 37 save.me.mmb l3 gnrl;
#X connect 1 0 2 0;
#X connect 2 0 0 0;
#X restore 214 -60 pd;
#N canvas 804 24 168 129 (subpatch) 0;
#X obj 36 87 outlet;
#X obj 36 13 r l4;
#X obj 36 37 save.me.mmb l4 gnrl;
#X connect 1 0 2 0;
#X connect 2 0 0 0;
#X restore 371 -61 pd;
#N canvas 804 24 168 129 (subpatch) 0;
#X obj 36 87 outlet;
#X obj 36 13 r l5;
#X obj 36 37 save.me.mmb l5 gnrl;
#X connect 1 0 2 0;
#X connect 2 0 0 0;
#X restore 76 60 pd;
#N canvas 804 24 168 129 (subpatch) 0;
#X obj 36 87 outlet;
#X obj 36 13 r l6;
#X obj 36 37 save.me.mmb l6 gnrl;
#X connect 1 0 2 0;
#X connect 2 0 0 0;
#X restore -61 61 pd;
#N canvas 804 24 168 129 (subpatch) 0;
#X obj 36 87 outlet;
#X obj 36 13 r l7;
#X obj 36 37 save.me.mmb l7 gnrl;
#X connect 1 0 2 0;
#X connect 2 0 0 0;
#X restore 215 62 pd;
#N canvas 804 24 168 129 (subpatch) 0;
#X obj 36 87 outlet;
#X obj 36 13 r l8;
#X obj 36 37 save.me.mmb l8 gnrl;
#X connect 1 0 2 0;
#X connect 2 0 0 0;
#X restore 372 61 pd;
#X obj -7 223 line;
#X obj -7 200 pack \$1 2000;
#X obj -150 225 line;
#X obj -143 201 pack \$1 2000;
#X obj 133 226 line;
#X obj 133 202 pack \$1 2000;
#X obj 289 226 line;
#X obj 289 201 pack \$1 2000;
#N canvas 804 24 168 129 (subpatch) 0;
#X obj 36 87 outlet;
#X obj 36 13 r l9;
#X obj 36 37 save.me.mmb l9 gnrl;
#X floatatom 114 84 5 0 0 0 - - -;
#X connect 1 0 2 0;
#X connect 1 0 3 0;
#X connect 2 0 0 0;
#X restore 81 183 pd;
#N canvas 804 24 168 129 (subpatch) 0;
#X obj 36 87 outlet;
#X obj 36 13 r l10;
#X obj 36 37 save.me.mmb l10 gnrl;
#X connect 1 0 2 0;
#X connect 2 0 0 0;
#X restore -56 184 pd;
#N canvas 804 24 168 129 (subpatch) 0;
#X obj 36 87 outlet;
#X obj 36 13 r l11;
#X obj 36 37 save.me.mmb l11 gnrl;
#X connect 1 0 2 0;
#X connect 2 0 0 0;
#X restore 220 185 pd;
#N canvas 804 24 168 129 (subpatch) 0;
#X obj 36 87 outlet;
#X obj 36 13 r l12;
#X obj 36 37 save.me.mmb l12 gnrl;
#X connect 1 0 2 0;
#X connect 2 0 0 0;
#X restore 377 184 pd;
#X obj -3 346 line;
#X obj -3 323 pack \$1 2000;
#X obj -146 347 line;
#X obj -139 324 pack \$1 2000;
#X obj 137 348 line;
#X obj 137 325 pack \$1 2000;
#X obj 293 347 line;
#X obj 293 324 pack \$1 2000;
#N canvas 804 24 168 129 (subpatch) 0;
#X obj 36 87 outlet;
#X obj 36 13 r l13;
#X obj 36 39 save.me.mmb l13 gnrl;
#X connect 1 0 2 0;
#X connect 2 0 0 0;
#X restore 81 306 pd;
#N canvas 804 24 168 129 (subpatch) 0;
#X obj 36 87 outlet;
#X obj 36 13 r l14;
#X obj 36 37 save.me.mmb l14 gnrl;
#X connect 1 0 2 0;
#X connect 2 0 0 0;
#X restore -56 307 pd;
#N canvas 804 24 168 129 (subpatch) 0;
#X obj 36 87 outlet;
#X obj 36 13 r l15;
#X obj 36 37 save.me.mmb l15 gnrl;
#X connect 1 0 2 0;
#X connect 2 0 0 0;
#X restore 220 308 pd;
#N canvas 804 24 168 129 (subpatch) 0;
#X obj 36 87 outlet;
#X obj 36 13 r l16;
#X obj 36 37 save.me.mmb l16 gnrl;
#X connect 1 0 2 0;
#X connect 2 0 0 0;
#X restore 377 307 pd;
#X obj -8 -65 pipe 20;
#X obj -144 -63 pipe 20;
#X obj 132 -60 pipe 20;
#X obj 288 -63 pipe 20;
#X obj -8 59 pipe 20;
#X obj -144 60 pipe 20;
#X obj 132 61 pipe 20;
#X obj 288 60 pipe 20;
#X obj -7 181 pipe 20;
#X obj -143 183 pipe 20;
#X obj 133 185 pipe 20;
#X obj 289 183 pipe 20;
#X obj -7 303 pipe 20;
#X obj -143 305 pipe 20;
#X obj 133 307 pipe 20;
#X obj 289 305 pipe 20;
#X obj 405 -43 r stoplines;
#X obj 132 -101 r mic1filtre;
#X obj 132 -79 save.me.mmb m1filtre gnrl;
#X obj 132 -2 s rmic1filtre;
#X obj 132 21 r mic2filtre;
#X obj 132 43 save.me.mmb m2filtre gnrl;
#X obj 132 121 s rmic2filtre;
#X obj 132 144 r mic3filtre;
#X obj 132 166 save.me.mmb m3filtre gnrl;
#X obj 133 246 s rmic3filtre;
#X obj 379 209 r stoplines;
#X obj 133 267 r mic4filtre;
#X obj 133 289 save.me.mmb m4filtre gnrl;
#X obj 137 370 s rmic4filtre;
#X obj 378 330 r stoplines;
#X connect 0 0 84 0;
#X connect 1 0 0 0;
#X connect 3 0 5 0;
#X connect 5 0 88 0;
#X connect 6 0 7 0;
#X connect 7 0 85 0;
#X connect 8 0 89 0;
#X connect 9 0 8 0;
#X connect 12 0 13 0;
#X connect 13 0 87 0;
#X connect 15 0 16 0;
#X connect 16 0 91 0;
#X connect 18 0 19 0;
#X connect 19 0 92 0;
#X connect 21 0 22 0;
#X connect 22 0 93 0;
#X connect 24 0 28 0;
#X connect 25 0 26 0;
#X connect 26 0 96 0;
#X connect 28 0 97 0;
#X connect 30 0 31 0;
#X connect 31 0 95 0;
#X connect 33 0 34 0;
#X connect 34 0 99 0;
#X connect 36 0 2 0;
#X connect 37 0 36 0;
#X connect 38 0 10 0;
#X connect 39 0 38 0;
#X connect 40 0 103 0;
#X connect 41 0 40 0;
#X connect 42 0 14 0;
#X connect 43 0 42 0;
#X connect 44 0 4 0;
#X connect 45 0 44 0;
#X connect 46 0 11 0;
#X connect 47 0 46 0;
#X connect 48 0 106 0;
#X connect 49 0 48 0;
#X connect 50 0 17 0;
#X connect 51 0 50 0;
#X connect 52 0 37 1;
#X connect 53 0 39 1;
#X connect 54 0 41 1;
#X connect 55 0 43 1;
#X connect 56 0 45 1;
#X connect 57 0 47 1;
#X connect 58 0 49 1;
#X connect 59 0 51 1;
#X connect 60 0 20 0;
#X connect 61 0 60 0;
#X connect 62 0 23 0;
#X connect 63 0 62 0;
#X connect 64 0 109 0;
#X connect 65 0 64 0;
#X connect 66 0 32 0;
#X connect 67 0 66 0;
#X connect 68 0 61 1;
#X connect 69 0 63 1;
#X connect 70 0 65 1;
#X connect 71 0 67 1;
#X connect 72 0 27 0;
#X connect 73 0 72 0;
#X connect 74 0 29 0;
#X connect 75 0 74 0;
#X connect 76 0 113 0;
#X connect 77 0 76 0;
#X connect 78 0 35 0;
#X connect 79 0 78 0;
#X connect 80 0 73 1;
#X connect 81 0 75 1;
#X connect 82 0 77 1;
#X connect 83 0 79 1;
#X connect 84 0 37 0;
#X connect 85 0 39 0;
#X connect 86 0 41 0;
#X connect 87 0 43 0;
#X connect 88 0 45 0;
#X connect 89 0 47 0;
#X connect 90 0 49 0;
#X connect 91 0 51 0;
#X connect 92 0 61 0;
#X connect 93 0 63 0;
#X connect 94 0 65 0;
#X connect 95 0 67 0;
#X connect 96 0 73 0;
#X connect 97 0 75 0;
#X connect 98 0 77 0;
#X connect 99 0 79 0;
#X connect 100 0 36 0;
#X connect 100 0 38 0;
#X connect 100 0 40 0;
#X connect 100 0 42 0;
#X connect 100 0 44 0;
#X connect 100 0 46 0;
#X connect 100 0 48 0;
#X connect 100 0 50 0;
#X connect 101 0 102 0;
#X connect 102 0 86 0;
#X connect 104 0 105 0;
#X connect 105 0 90 0;
#X connect 107 0 108 0;
#X connect 108 0 94 0;
#X connect 110 0 66 0;
#X connect 110 0 64 0;
#X connect 110 0 62 0;
#X connect 110 0 60 0;
#X connect 111 0 112 0;
#X connect 112 0 98 0;
#X connect 114 0 78 0;
#X connect 114 0 76 0;
#X connect 114 0 74 0;
#X connect 114 0 72 0;
#X restore -142 -168 pd mic 1 a 4;
#N canvas 83 38 707 546 mic 0;
#X obj -53 -336 r mic5eq;
#X obj -53 -314 save.me.mmb m5eq gnrl;
#X obj -53 -230 s rmic5eq;
#X obj -218 -337 r mic5dir;
#X obj -218 -315 save.me.mmb m5di gnrl;
#X obj -218 -231 s rmic5dir;
#X obj 86 -330 r mic5eqsub;
#X obj 86 -308 save.me.mmb m5eqsub gnrl;
#X obj 86 -224 s rmic5eqsub;
#X obj 242 -331 r mic5sub;
#X obj 242 -309 save.me.mmb m5sub gnrl;
#X obj 242 -225 s rmic5sub;
#X obj -53 -210 r mic6eq;
#X obj -53 -188 save.me.mmb m6eq gnrl;
#X obj -53 -107 s rmic6eq;
#X obj -218 -211 r mic6dir;
#X obj -218 -189 save.me.mmb m6di gnrl;
#X obj -218 -108 s rmic6dir;
#X obj 86 -204 r mic6eqsub;
#X obj 86 -182 save.me.mmb m6eqsub gnrl;
#X obj 86 -101 s rmic6eqsub;
#X obj 242 -205 r mic6sub;
#X obj 242 -183 save.me.mmb m6sub gnrl;
#X obj 242 -102 s rmic6sub;
#X obj -53 -255 line;
#X obj -53 -278 pack \$1 2000;
#X obj -218 -256 line;
#X obj -218 -279 pack \$1 2000;
#X obj 86 -249 line;
#X obj 86 -272 pack \$1 2000;
#X obj 242 -250 line;
#X obj 242 -273 pack \$1 2000;
#N canvas 804 24 168 129 (subpatch) 0;
#X obj 36 87 outlet;
#X obj 36 13 r l17;
#X obj 36 39 save.me.mmb l17 gnrl;
#X connect 1 0 2 0;
#X connect 2 0 0 0;
#X restore 39 -295 pd;
#N canvas 804 24 168 129 (subpatch) 0;
#X obj 36 87 outlet;
#X obj 36 13 r l18;
#X obj 36 37 save.me.mmb l18 gnrl;
#X connect 1 0 2 0;
#X connect 2 0 0 0;
#X restore -135 -296 pd;
#N canvas 804 24 168 129 (subpatch) 0;
#X obj 36 87 outlet;
#X obj 36 13 r l19;
#X obj 36 37 save.me.mmb l19 gnrl;
#X connect 1 0 2 0;
#X connect 2 0 0 0;
#X restore 169 -289 pd;
#N canvas 804 24 168 129 (subpatch) 0;
#X obj 36 87 outlet;
#X obj 36 13 r l20;
#X obj 36 37 save.me.mmb l20 gnrl;
#X connect 1 0 2 0;
#X connect 2 0 0 0;
#X restore 326 -290 pd;
#X obj -53 -129 line;
#X obj -53 -152 pack \$1 2000;
#X obj -218 -130 line;
#X obj -218 -153 pack \$1 2000;
#X obj 86 -123 line;
#X obj 86 -146 pack \$1 2000;
#X obj 242 -124 line;
#X obj 242 -147 pack \$1 2000;
#N canvas 804 24 168 129 (subpatch) 0;
#X obj 36 87 outlet;
#X obj 36 13 r l21;
#X obj 36 39 save.me.mmb l21 gnrl;
#X connect 1 0 2 0;
#X connect 2 0 0 0;
#X restore 31 -169 pd;
#N canvas 804 24 168 129 (subpatch) 0;
#X obj 36 87 outlet;
#X obj 36 13 r l22;
#X obj 36 37 save.me.mmb l22 gnrl;
#X connect 1 0 2 0;
#X connect 2 0 0 0;
#X restore -135 -170 pd;
#N canvas 804 24 168 129 (subpatch) 0;
#X obj 36 87 outlet;
#X obj 36 13 r l23;
#X obj 36 37 save.me.mmb l23 gnrl;
#X connect 1 0 2 0;
#X connect 2 0 0 0;
#X restore 169 -163 pd;
#N canvas 804 24 168 129 (subpatch) 0;
#X obj 36 87 outlet;
#X obj 36 13 r l24;
#X obj 36 37 save.me.mmb l24 gnrl;
#X connect 1 0 2 0;
#X connect 2 0 0 0;
#X restore 326 -164 pd;
#X obj -36 -297 pipe 20;
#X obj -212 -297 pipe 20;
#X obj 103 -289 pipe 20;
#X obj 259 -291 pipe 20;
#X obj -39 -170 pipe 20;
#X obj -204 -170 pipe 20;
#X obj 100 -162 pipe 20;
#X obj 256 -164 pipe 20;
#X obj -55 -5 line;
#X obj -55 -28 pack \$1 2000;
#X obj -220 -5 line;
#X obj -220 -29 pack \$1 2000;
#X obj 84 1 line;
#X obj 84 -22 pack \$1 2000;
#X obj 240 0 line;
#X obj 240 -23 pack \$1 2000;
#N canvas 804 24 168 129 (subpatch) 0;
#X obj 36 87 outlet;
#X obj 36 13 r l25;
#X obj 36 39 save.me.mmb l25 gnrl;
#X connect 1 0 2 0;
#X connect 2 0 0 0;
#X restore 37 -45 pd;
#N canvas 804 24 168 129 (subpatch) 0;
#X obj 36 87 outlet;
#X obj 36 13 r l26;
#X obj 36 37 save.me.mmb l26 gnrl;
#X connect 1 0 2 0;
#X connect 2 0 0 0;
#X restore -137 -46 pd;
#N canvas 804 24 168 129 (subpatch) 0;
#X obj 36 87 outlet;
#X obj 36 13 r l27;
#X obj 36 37 save.me.mmb l27 gnrl;
#X connect 1 0 2 0;
#X connect 2 0 0 0;
#X restore 167 -39 pd;
#N canvas 804 24 168 129 (subpatch) 0;
#X obj 36 87 outlet;
#X obj 36 13 r l28;
#X obj 36 37 save.me.mmb l28 gnrl;
#X connect 1 0 2 0;
#X connect 2 0 0 0;
#X restore 324 -40 pd;
#X obj -55 119 line;
#X obj -55 98 pack \$1 2000;
#X obj -220 119 line;
#X obj -220 96 pack \$1 2000;
#X obj 84 127 line;
#X obj 84 104 pack \$1 2000;
#X obj 240 126 line;
#X obj 240 103 pack \$1 2000;
#N canvas 804 24 168 129 (subpatch) 0;
#X obj 36 87 outlet;
#X obj 36 13 r l29;
#X obj 36 39 save.me.mmb l29 gnrl;
#X connect 1 0 2 0;
#X connect 2 0 0 0;
#X restore 29 81 pd;
#N canvas 804 24 168 129 (subpatch) 0;
#X obj 36 87 outlet;
#X obj 36 13 r l30;
#X obj 36 37 save.me.mmb l30 gnrl;
#X connect 1 0 2 0;
#X connect 2 0 0 0;
#X restore -137 79 pd;
#N canvas 804 24 168 129 (subpatch) 0;
#X obj 36 87 outlet;
#X obj 36 13 r l31;
#X obj 36 37 save.me.mmb l31 gnrl;
#X connect 1 0 2 0;
#X connect 2 0 0 0;
#X restore 167 87 pd;
#N canvas 804 24 168 129 (subpatch) 0;
#X obj 36 87 outlet;
#X obj 36 13 r l32;
#X obj 36 37 save.me.mmb l32 gnrl;
#X connect 1 0 2 0;
#X connect 2 0 0 0;
#X restore 324 86 pd;
#X obj -38 -47 pipe 20;
#X obj -214 -47 pipe 20;
#X obj 101 -39 pipe 20;
#X obj 257 -41 pipe 20;
#X obj -41 80 pipe 20;
#X obj -206 79 pipe 20;
#X obj 98 88 pipe 20;
#X obj 254 86 pipe 20;
#X obj -55 -86 r mic7eq;
#X obj -220 -87 r mic7dir;
#X obj 84 -80 r mic7eqsub;
#X obj 240 -79 r mic7sub;
#X obj -55 -64 save.me.mmb m7eq gnrl;
#X obj -220 -65 save.me.mmb m7di gnrl;
#X obj 84 -58 save.me.mmb m7eqsub gnrl;
#X obj 240 -59 save.me.mmb m7sub gnrl;
#X obj -55 20 s rmic7eq;
#X obj -220 18 s rmic7dir;
#X obj 84 26 s rmic7eqsub;
#X obj 240 25 s rmic7sub;
#X obj -55 40 r mic8eq;
#X obj -220 38 r mic8dir;
#X obj 84 46 r mic8eqsub;
#X obj 240 45 r mic8sub;
#X obj -55 62 save.me.mmb m8eq gnrl;
#X obj -220 60 save.me.mmb m8di gnrl;
#X obj 84 68 save.me.mmb m8eqsub gnrl;
#X obj 240 67 save.me.mmb m8sub gnrl;
#X obj -55 143 s rmic8eq;
#X obj -220 141 s rmic8dir;
#X obj 84 150 s rmic8eqsub;
#X obj 240 148 s rmic8sub;
#X obj 340 -269 r stoplines;
#X obj 358 -144 r stoplines;
#X obj 358 -18 r stoplines;
#X obj 357 107 r stoplines;
#X connect 0 0 1 0;
#X connect 1 0 48 0;
#X connect 3 0 4 0;
#X connect 4 0 49 0;
#X connect 6 0 7 0;
#X connect 7 0 50 0;
#X connect 9 0 10 0;
#X connect 10 0 51 0;
#X connect 12 0 13 0;
#X connect 13 0 52 0;
#X connect 15 0 16 0;
#X connect 16 0 53 0;
#X connect 18 0 19 0;
#X connect 19 0 54 0;
#X connect 21 0 22 0;
#X connect 22 0 55 0;
#X connect 24 0 2 0;
#X connect 25 0 24 0;
#X connect 26 0 5 0;
#X connect 27 0 26 0;
#X connect 28 0 8 0;
#X connect 29 0 28 0;
#X connect 30 0 11 0;
#X connect 31 0 30 0;
#X connect 32 0 25 1;
#X connect 33 0 27 1;
#X connect 34 0 29 1;
#X connect 35 0 31 1;
#X connect 36 0 14 0;
#X connect 37 0 36 0;
#X connect 38 0 17 0;
#X connect 39 0 38 0;
#X connect 40 0 20 0;
#X connect 41 0 40 0;
#X connect 42 0 23 0;
#X connect 43 0 42 0;
#X connect 44 0 37 1;
#X connect 45 0 39 1;
#X connect 46 0 41 1;
#X connect 47 0 43 1;
#X connect 48 0 25 0;
#X connect 49 0 27 0;
#X connect 50 0 29 0;
#X connect 51 0 31 0;
#X connect 52 0 37 0;
#X connect 53 0 39 0;
#X connect 54 0 41 0;
#X connect 55 0 43 0;
#X connect 56 0 96 0;
#X connect 57 0 56 0;
#X connect 58 0 97 0;
#X connect 59 0 58 0;
#X connect 60 0 98 0;
#X connect 61 0 60 0;
#X connect 62 0 99 0;
#X connect 63 0 62 0;
#X connect 64 0 57 1;
#X connect 65 0 59 1;
#X connect 66 0 61 1;
#X connect 67 0 63 1;
#X connect 68 0 108 0;
#X connect 69 0 68 0;
#X connect 70 0 109 0;
#X connect 71 0 70 0;
#X connect 72 0 110 0;
#X connect 73 0 72 0;
#X connect 74 0 111 0;
#X connect 75 0 74 0;
#X connect 76 0 69 1;
#X connect 77 0 71 1;
#X connect 78 0 73 1;
#X connect 79 0 75 1;
#X connect 80 0 57 0;
#X connect 81 0 59 0;
#X connect 82 0 61 0;
#X connect 83 0 63 0;
#X connect 84 0 69 0;
#X connect 85 0 71 0;
#X connect 86 0 73 0;
#X connect 87 0 75 0;
#X connect 88 0 92 0;
#X connect 89 0 93 0;
#X connect 90 0 94 0;
#X connect 91 0 95 0;
#X connect 92 0 80 0;
#X connect 93 0 81 0;
#X connect 94 0 82 0;
#X connect 95 0 83 0;
#X connect 100 0 104 0;
#X connect 101 0 105 0;
#X connect 102 0 106 0;
#X connect 103 0 107 0;
#X connect 104 0 84 0;
#X connect 105 0 85 0;
#X connect 106 0 86 0;
#X connect 107 0 87 0;
#X connect 112 0 30 0;
#X connect 112 0 28 0;
#X connect 112 0 24 0;
#X connect 112 0 26 0;
#X connect 113 0 42 0;
#X connect 113 0 40 0;
#X connect 113 0 36 0;
#X connect 113 0 38 0;
#X connect 114 0 56 0;
#X connect 114 0 58 0;
#X connect 114 0 60 0;
#X connect 114 0 62 0;
#X connect 115 0 68 0;
#X connect 115 0 70 0;
#X connect 115 0 72 0;
#X connect 115 0 74 0;
#X restore -142 -138 pd mic 5 a 8;
#N canvas 139 60 686 518 mic 0;
#X obj -8 -25 line;
#X obj -8 -45 pack \$1 2000;
#X obj -151 -25 line;
#X obj -144 -44 pack \$1 2000;
#X obj 132 -23 line;
#X obj 132 -43 pack \$1 2000;
#X obj 288 -24 line;
#X obj 288 -44 pack \$1 2000;
#X obj -8 100 line;
#X obj -8 77 pack \$1 2000;
#X obj -151 101 line;
#X obj -144 78 pack \$1 2000;
#X obj 132 102 line;
#X obj 132 79 pack \$1 2000;
#X obj 288 101 line;
#X obj 288 78 pack \$1 2000;
#N canvas 804 24 168 129 (subpatch) 0;
#X obj 36 87 outlet;
#X obj 36 13 r l33;
#X obj 36 37 save.me.mmb l33 gnrl;
#X connect 1 0 2 0;
#X connect 2 0 0 0;
#X restore 75 -62 pd;
#N canvas 804 24 168 129 (subpatch) 0;
#X obj 36 87 outlet;
#X obj 36 13 r l34;
#X obj 36 37 save.me.mmb l34 gnrl;
#X connect 1 0 2 0;
#X connect 2 0 0 0;
#X restore -62 -61 pd;
#N canvas 804 24 168 129 (subpatch) 0;
#X obj 36 87 outlet;
#X obj 36 13 r l35;
#X obj 36 37 save.me.mmb l35 gnrl;
#X connect 1 0 2 0;
#X connect 2 0 0 0;
#X restore 214 -60 pd;
#N canvas 804 24 168 129 (subpatch) 0;
#X obj 36 87 outlet;
#X obj 36 13 r l36;
#X obj 36 37 save.me.mmb l36 gnrl;
#X connect 1 0 2 0;
#X connect 2 0 0 0;
#X restore 371 -61 pd;
#N canvas 804 24 168 129 (subpatch) 0;
#X obj 36 87 outlet;
#X obj 36 13 r l37;
#X obj 36 37 save.me.mmb l37 gnrl;
#X connect 1 0 2 0;
#X connect 2 0 0 0;
#X restore 76 60 pd;
#N canvas 804 24 168 129 (subpatch) 0;
#X obj 36 87 outlet;
#X obj 36 13 r l38;
#X obj 36 37 save.me.mmb l38 gnrl;
#X connect 1 0 2 0;
#X connect 2 0 0 0;
#X restore -61 61 pd;
#N canvas 804 24 168 129 (subpatch) 0;
#X obj 36 87 outlet;
#X obj 36 13 r l39;
#X obj 36 37 save.me.mmb l39 gnrl;
#X connect 1 0 2 0;
#X connect 2 0 0 0;
#X restore 215 62 pd;
#N canvas 804 24 168 129 (subpatch) 0;
#X obj 36 87 outlet;
#X obj 36 13 r l40;
#X obj 36 37 save.me.mmb l40 gnrl;
#X connect 1 0 2 0;
#X connect 2 0 0 0;
#X restore 372 61 pd;
#X obj -7 223 line;
#X obj -7 200 pack \$1 2000;
#X obj -150 225 line;
#X obj -143 201 pack \$1 2000;
#X obj 133 226 line;
#X obj 133 202 pack \$1 2000;
#X obj 289 226 line;
#X obj 289 201 pack \$1 2000;
#N canvas 804 24 168 129 (subpatch) 0;
#X obj 36 87 outlet;
#X floatatom 114 84 5 0 0 0 - - -;
#X obj 36 13 r l41;
#X obj 36 37 save.me.mmb l41 gnrl;
#X connect 2 0 1 0;
#X connect 2 0 3 0;
#X connect 3 0 0 0;
#X restore 81 183 pd;
#N canvas 804 24 168 129 (subpatch) 0;
#X obj 36 87 outlet;
#X obj 36 13 r l42;
#X obj 36 37 save.me.mmb l42 gnrl;
#X connect 1 0 2 0;
#X connect 2 0 0 0;
#X restore -56 184 pd;
#N canvas 804 24 168 129 (subpatch) 0;
#X obj 36 87 outlet;
#X obj 36 13 r l43;
#X obj 36 37 save.me.mmb l43 gnrl;
#X connect 1 0 2 0;
#X connect 2 0 0 0;
#X restore 220 185 pd;
#N canvas 804 24 168 129 (subpatch) 0;
#X obj 36 87 outlet;
#X obj 36 13 r l44;
#X obj 36 37 save.me.mmb l44 gnrl;
#X connect 1 0 2 0;
#X connect 2 0 0 0;
#X restore 377 184 pd;
#X obj -3 346 line;
#X obj -3 323 pack \$1 2000;
#X obj -146 347 line;
#X obj -139 324 pack \$1 2000;
#X obj 137 348 line;
#X obj 137 325 pack \$1 2000;
#X obj 293 347 line;
#X obj 293 324 pack \$1 2000;
#N canvas 804 24 168 129 (subpatch) 0;
#X obj 36 87 outlet;
#X obj 36 13 r l45;
#X obj 36 39 save.me.mmb l45 gnrl;
#X connect 1 0 2 0;
#X connect 2 0 0 0;
#X restore 81 306 pd;
#N canvas 804 24 168 129 (subpatch) 0;
#X obj 36 87 outlet;
#X obj 36 13 r l46;
#X obj 36 37 save.me.mmb l46 gnrl;
#X connect 1 0 2 0;
#X connect 2 0 0 0;
#X restore -56 307 pd;
#N canvas 804 24 168 129 (subpatch) 0;
#X obj 36 87 outlet;
#X obj 36 37 save.me.mmb l47 gnrl;
#X obj 36 13 r l47;
#X connect 1 0 0 0;
#X connect 2 0 1 0;
#X restore 220 308 pd;
#N canvas 804 24 168 129 (subpatch) 0;
#X obj 36 87 outlet;
#X obj 36 13 r l48;
#X obj 36 37 save.me.mmb l48 gnrl;
#X connect 1 0 2 0;
#X connect 2 0 0 0;
#X restore 377 307 pd;
#X obj -8 -65 pipe 20;
#X obj -144 -63 pipe 20;
#X obj 132 -60 pipe 20;
#X obj 288 -63 pipe 20;
#X obj -8 59 pipe 20;
#X obj -144 60 pipe 20;
#X obj 132 61 pipe 20;
#X obj 288 60 pipe 20;
#X obj -7 181 pipe 20;
#X obj -143 183 pipe 20;
#X obj 133 185 pipe 20;
#X obj 289 183 pipe 20;
#X obj -7 303 pipe 20;
#X obj -143 305 pipe 20;
#X obj 133 307 pipe 20;
#X obj 289 305 pipe 20;
#X obj 405 -43 r stoplines;
#X obj 379 209 r stoplines;
#X obj 378 330 r stoplines;
#X obj -144 -81 save.me.mmb m9di gnrl;
#X obj -8 -82 save.me.mmb m9eq gnrl;
#X obj 132 -79 save.me.mmb m9filtre gnrl;
#X obj 288 -81 save.me.mmb m9sub gnrl;
#X obj -144 -103 r mic9dir;
#X obj -8 -104 r mic9eq;
#X obj 132 -101 r mic9filtre;
#X obj 288 -103 r mic9sub;
#X obj -144 -1 s rmic9dir;
#X obj -8 -1 s rmic9eq;
#X obj 132 -2 s rmic9filtre;
#X obj 288 1 s rmic9sub;
#X obj -144 20 r mic10dir;
#X obj -8 19 r mic10eq;
#X obj 132 21 r mic10filtre;
#X obj 288 20 r mic10sub;
#X obj -144 120 s rmic10dir;
#X obj -8 120 s rmic10eq;
#X obj 132 121 s rmic10filtre;
#X obj 288 121 s rmic10sub;
#X obj -144 143 r mic11dir;
#X obj -144 42 save.me.mmb m10di gnrl;
#X obj -8 41 save.me.mmb m10eq gnrl;
#X obj 132 43 save.me.mmb m10filtre gnrl;
#X obj 288 42 save.me.mmb m10sub gnrl;
#X obj -8 142 r mic11eq;
#X obj 132 144 r mic11filtre;
#X obj 288 143 r mic11sub;
#X obj 288 165 save.me.mmb m11sub gnrl;
#X obj 132 166 save.me.mmb m11filtre gnrl;
#X obj -8 161 save.me.mmb m11eq gnrl;
#X obj -144 165 save.me.mmb m11di gnrl;
#X obj -144 246 s rmic11dir;
#X obj -8 245 s rmic11eq;
#X obj 133 246 s rmic11filtre;
#X obj 289 245 s rmic11sub;
#X obj 289 266 r mic12sub;
#X obj 133 267 r mic12filtre;
#X obj -7 265 r mic12eq;
#X obj -143 266 r mic12dir;
#X obj -143 288 save.me.mmb m12di gnrl;
#X obj -7 287 save.me.mmb m12eq gnrl;
#X obj 133 289 save.me.mmb m12filtre gnrl;
#X obj 289 288 save.me.mmb m12sub gnrl;
#X obj 293 369 s rmic12sub;
#X obj 137 370 s rmic12filtre;
#X obj -3 368 s rmic12eq;
#X obj -139 369 s rmic12dir;
#X connect 0 0 76 0;
#X connect 1 0 0 0;
#X connect 2 0 75 0;
#X connect 3 0 2 0;
#X connect 4 0 77 0;
#X connect 5 0 4 0;
#X connect 6 0 78 0;
#X connect 7 0 6 0;
#X connect 8 0 84 0;
#X connect 9 0 8 0;
#X connect 10 0 83 0;
#X connect 11 0 10 0;
#X connect 12 0 85 0;
#X connect 13 0 12 0;
#X connect 14 0 86 0;
#X connect 15 0 14 0;
#X connect 16 0 1 1;
#X connect 17 0 3 1;
#X connect 18 0 5 1;
#X connect 19 0 7 1;
#X connect 20 0 9 1;
#X connect 21 0 11 1;
#X connect 22 0 13 1;
#X connect 23 0 15 1;
#X connect 24 0 100 0;
#X connect 25 0 24 0;
#X connect 26 0 99 0;
#X connect 27 0 26 0;
#X connect 28 0 101 0;
#X connect 29 0 28 0;
#X connect 30 0 102 0;
#X connect 31 0 30 0;
#X connect 32 0 25 1;
#X connect 33 0 27 1;
#X connect 34 0 29 1;
#X connect 35 0 31 1;
#X connect 36 0 113 0;
#X connect 37 0 36 0;
#X connect 38 0 114 0;
#X connect 39 0 38 0;
#X connect 40 0 112 0;
#X connect 41 0 40 0;
#X connect 42 0 111 0;
#X connect 43 0 42 0;
#X connect 44 0 37 1;
#X connect 45 0 39 1;
#X connect 46 0 41 1;
#X connect 47 0 43 1;
#X connect 48 0 1 0;
#X connect 49 0 3 0;
#X connect 50 0 5 0;
#X connect 51 0 7 0;
#X connect 52 0 9 0;
#X connect 53 0 11 0;
#X connect 54 0 13 0;
#X connect 55 0 15 0;
#X connect 56 0 25 0;
#X connect 57 0 27 0;
#X connect 58 0 29 0;
#X connect 59 0 31 0;
#X connect 60 0 37 0;
#X connect 61 0 39 0;
#X connect 62 0 41 0;
#X connect 63 0 43 0;
#X connect 64 0 0 0;
#X connect 64 0 2 0;
#X connect 64 0 4 0;
#X connect 64 0 6 0;
#X connect 64 0 8 0;
#X connect 64 0 10 0;
#X connect 64 0 12 0;
#X connect 64 0 14 0;
#X connect 65 0 30 0;
#X connect 65 0 28 0;
#X connect 65 0 26 0;
#X connect 65 0 24 0;
#X connect 66 0 42 0;
#X connect 66 0 40 0;
#X connect 66 0 38 0;
#X connect 66 0 36 0;
#X connect 67 0 49 0;
#X connect 68 0 48 0;
#X connect 69 0 50 0;
#X connect 70 0 51 0;
#X connect 71 0 67 0;
#X connect 72 0 68 0;
#X connect 73 0 69 0;
#X connect 74 0 70 0;
#X connect 79 0 88 0;
#X connect 80 0 89 0;
#X connect 81 0 90 0;
#X connect 82 0 91 0;
#X connect 87 0 98 0;
#X connect 88 0 53 0;
#X connect 89 0 52 0;
#X connect 90 0 54 0;
#X connect 91 0 55 0;
#X connect 92 0 97 0;
#X connect 93 0 96 0;
#X connect 94 0 95 0;
#X connect 95 0 59 0;
#X connect 96 0 58 0;
#X connect 97 0 56 0;
#X connect 98 0 57 0;
#X connect 103 0 110 0;
#X connect 104 0 109 0;
#X connect 105 0 108 0;
#X connect 106 0 107 0;
#X connect 107 0 61 0;
#X connect 108 0 60 0;
#X connect 109 0 62 0;
#X connect 110 0 63 0;
#X restore -141 -101 pd mic 9 a 12;
#N canvas 385 38 707 546 mic 0;
#X obj -53 -255 line;
#X obj -53 -278 pack \$1 2000;
#X obj -218 -256 line;
#X obj -218 -279 pack \$1 2000;
#X obj 86 -249 line;
#X obj 86 -272 pack \$1 2000;
#X obj 242 -250 line;
#X obj 242 -273 pack \$1 2000;
#N canvas 804 24 168 129 (subpatch) 0;
#X obj 36 87 outlet;
#X obj 36 13 r l49;
#X obj 36 39 save.me.mmb l49 gnrl;
#X connect 1 0 2 0;
#X connect 2 0 0 0;
#X restore 39 -295 pd;
#N canvas 804 24 168 129 (subpatch) 0;
#X obj 36 87 outlet;
#X obj 36 13 r l50;
#X obj 36 37 save.me.mmb l50 gnrl;
#X connect 1 0 2 0;
#X connect 2 0 0 0;
#X restore -135 -296 pd;
#N canvas 804 24 168 129 (subpatch) 0;
#X obj 36 87 outlet;
#X obj 36 13 r l51;
#X obj 36 37 save.me.mmb l51 gnrl;
#X connect 1 0 2 0;
#X connect 2 0 0 0;
#X restore 169 -289 pd;
#N canvas 804 24 168 129 (subpatch) 0;
#X obj 36 87 outlet;
#X obj 36 37 save.me.mmb l52 gnrl;
#X obj 36 13 r l52;
#X connect 1 0 0 0;
#X connect 2 0 1 0;
#X restore 326 -290 pd;
#X obj -53 -129 line;
#X obj -53 -152 pack \$1 2000;
#X obj -218 -130 line;
#X obj -218 -153 pack \$1 2000;
#X obj 86 -123 line;
#X obj 86 -146 pack \$1 2000;
#X obj 242 -124 line;
#X obj 242 -147 pack \$1 2000;
#N canvas 804 24 168 129 (subpatch) 0;
#X obj 36 87 outlet;
#X obj 36 13 r l53;
#X obj 36 39 save.me.mmb l53 gnrl;
#X connect 1 0 2 0;
#X connect 2 0 0 0;
#X restore 31 -169 pd;
#N canvas 804 24 168 129 (subpatch) 0;
#X obj 36 87 outlet;
#X obj 36 13 r l54;
#X obj 36 37 save.me.mmb l54 gnrl;
#X connect 1 0 2 0;
#X connect 2 0 0 0;
#X restore -135 -170 pd;
#N canvas 804 24 168 129 (subpatch) 0;
#X obj 36 87 outlet;
#X obj 36 13 r l55;
#X obj 36 37 save.me.mmb l5 gnrl;
#X connect 1 0 2 0;
#X connect 2 0 0 0;
#X restore 169 -163 pd;
#N canvas 804 24 168 129 (subpatch) 0;
#X obj 36 87 outlet;
#X obj 36 13 r l56;
#X obj 36 37 save.me.mmb l56 gnrl;
#X connect 1 0 2 0;
#X connect 2 0 0 0;
#X restore 326 -164 pd;
#X obj -36 -297 pipe 20;
#X obj -212 -297 pipe 20;
#X obj 103 -289 pipe 20;
#X obj 259 -291 pipe 20;
#X obj -39 -170 pipe 20;
#X obj -204 -170 pipe 20;
#X obj 100 -162 pipe 20;
#X obj 256 -164 pipe 20;
#X obj -55 -5 line;
#X obj -55 -28 pack \$1 2000;
#X obj -220 -5 line;
#X obj -220 -29 pack \$1 2000;
#X obj 84 1 line;
#X obj 84 -22 pack \$1 2000;
#X obj 240 0 line;
#X obj 240 -23 pack \$1 2000;
#N canvas 804 24 168 129 (subpatch) 0;
#X obj 36 87 outlet;
#X obj 36 13 r l57;
#X obj 36 39 save.me.mmb l57 gnrl;
#X connect 1 0 2 0;
#X connect 2 0 0 0;
#X restore 37 -45 pd;
#N canvas 804 24 168 129 (subpatch) 0;
#X obj 36 87 outlet;
#X obj 36 13 r l58;
#X obj 36 37 save.me.mmb l58 gnrl;
#X connect 1 0 2 0;
#X connect 2 0 0 0;
#X restore -137 -46 pd;
#N canvas 804 24 168 129 (subpatch) 0;
#X obj 36 87 outlet;
#X obj 36 13 r l59;
#X obj 36 37 save.me.mmb l59 gnrl;
#X connect 1 0 2 0;
#X connect 2 0 0 0;
#X restore 167 -39 pd;
#N canvas 804 24 168 129 (subpatch) 0;
#X obj 36 87 outlet;
#X obj 36 13 r l60;
#X obj 36 37 save.me.mmb l60 gnrl;
#X connect 1 0 2 0;
#X connect 2 0 0 0;
#X restore 324 -40 pd;
#X obj -55 119 line;
#X obj -55 98 pack \$1 2000;
#X obj -220 119 line;
#X obj -220 96 pack \$1 2000;
#X obj 84 127 line;
#X obj 84 104 pack \$1 2000;
#X obj 240 126 line;
#X obj 240 103 pack \$1 2000;
#N canvas 804 24 168 129 (subpatch) 0;
#X obj 36 87 outlet;
#X obj 36 13 r l61;
#X obj 36 39 save.me.mmb l61 gnrl;
#X connect 1 0 2 0;
#X connect 2 0 0 0;
#X restore 29 81 pd;
#N canvas 804 24 168 129 (subpatch) 0;
#X obj 36 87 outlet;
#X obj 36 13 r l62;
#X obj 36 37 save.me.mmb l62 gnrl;
#X connect 1 0 2 0;
#X connect 2 0 0 0;
#X restore -137 79 pd;
#N canvas 804 24 168 129 (subpatch) 0;
#X obj 36 87 outlet;
#X obj 36 13 r l63;
#X obj 36 37 save.me.mmb l63 gnrl;
#X connect 1 0 2 0;
#X connect 2 0 0 0;
#X restore 167 87 pd;
#N canvas 804 24 168 129 (subpatch) 0;
#X obj 36 87 outlet;
#X obj 36 13 r l64;
#X obj 36 37 save.me.mmb l64 gnrl;
#X connect 1 0 2 0;
#X connect 2 0 0 0;
#X restore 324 86 pd;
#X obj -38 -47 pipe 20;
#X obj -214 -47 pipe 20;
#X obj 101 -39 pipe 20;
#X obj 257 -41 pipe 20;
#X obj -41 80 pipe 20;
#X obj -206 79 pipe 20;
#X obj 98 88 pipe 20;
#X obj 254 86 pipe 20;
#X obj 340 -269 r stoplines;
#X obj 358 -144 r stoplines;
#X obj 358 -18 r stoplines;
#X obj 357 107 r stoplines;
#X obj -218 -337 r mic13dir;
#X obj -53 -336 r mic13eq;
#X obj 86 -330 r mic13eqsub;
#X obj 242 -331 r mic13sub;
#X obj 242 -309 save.me.mmb m13sub gnrl;
#X obj 86 -308 save.me.mmb m13eqsub gnrl;
#X obj -53 -314 save.me.mmb m13eq gnrl;
#X obj -218 -315 save.me.mmb m13di gnrl;
#X obj -218 -231 s rmic13dir;
#X obj -53 -230 s rmic13eq;
#X obj 86 -224 s rmic13eqsub;
#X obj 242 -225 s rmic13sub;
#X obj 242 -205 r mic14sub;
#X obj 86 -204 r mic14eqsub;
#X obj -53 -210 r mic14eq;
#X obj -218 -211 r mic14dir;
#X obj -218 -189 save.me.mmb m14di gnrl;
#X obj -53 -188 save.me.mmb m14eq gnrl;
#X obj 86 -182 save.me.mmb m14eqsub gnrl;
#X obj 242 -183 save.me.mmb m14sub gnrl;
#X obj 242 -102 s rmic14sub;
#X obj 86 -101 s rmic14eqsub;
#X obj -53 -107 s rmic14eq;
#X obj -218 -108 s rmic14dir;
#X obj -220 -87 r mic15dir;
#X obj -55 -86 r mic15eq;
#X obj 84 -80 r mic15eqsub;
#X obj 240 -79 r mic15sub;
#X obj 240 -59 save.me.mmb m15sub gnrl;
#X obj 84 -58 save.me.mmb m15eqsub gnrl;
#X obj -55 -64 save.me.mmb m15eq gnrl;
#X obj -220 -65 save.me.mmb m15di gnrl;
#X obj -220 18 s rmic15dir;
#X obj -55 20 s rmic15eq;
#X obj 84 26 s rmic15eqsub;
#X obj 240 25 s rmic15sub;
#X obj 240 67 save.me.mmb m16sub gnrl;
#X obj 240 45 r mic16sub;
#X obj 84 46 r mic16eqsub;
#X obj -55 40 r mic16eq;
#X obj -220 38 r mic16dir;
#X obj -220 60 save.me.mmb m16di gnrl;
#X obj -220 141 s rmic16dir;
#X obj -55 143 s rmic16eq;
#X obj -55 62 save.me.mmb m16eq gnrl;
#X obj 84 68 save.me.mmb m16eqsub gnrl;
#X obj 84 150 s rmic16eqsub;
#X obj 240 148 s rmic16sub;
#X connect 0 0 77 0;
#X connect 1 0 0 0;
#X connect 2 0 76 0;
#X connect 3 0 2 0;
#X connect 4 0 78 0;
#X connect 5 0 4 0;
#X connect 6 0 79 0;
#X connect 7 0 6 0;
#X connect 8 0 1 1;
#X connect 9 0 3 1;
#X connect 10 0 5 1;
#X connect 11 0 7 1;
#X connect 12 0 90 0;
#X connect 13 0 12 0;
#X connect 14 0 91 0;
#X connect 15 0 14 0;
#X connect 16 0 89 0;
#X connect 17 0 16 0;
#X connect 18 0 88 0;
#X connect 19 0 18 0;
#X connect 20 0 13 1;
#X connect 21 0 15 1;
#X connect 22 0 17 1;
#X connect 23 0 19 1;
#X connect 24 0 1 0;
#X connect 25 0 3 0;
#X connect 26 0 5 0;
#X connect 27 0 7 0;
#X connect 28 0 13 0;
#X connect 29 0 15 0;
#X connect 30 0 17 0;
#X connect 31 0 19 0;
#X connect 32 0 101 0;
#X connect 33 0 32 0;
#X connect 34 0 100 0;
#X connect 35 0 34 0;
#X connect 36 0 102 0;
#X connect 37 0 36 0;
#X connect 38 0 103 0;
#X connect 39 0 38 0;
#X connect 40 0 33 1;
#X connect 41 0 35 1;
#X connect 42 0 37 1;
#X connect 43 0 39 1;
#X connect 44 0 111 0;
#X connect 45 0 44 0;
#X connect 46 0 110 0;
#X connect 47 0 46 0;
#X connect 48 0 114 0;
#X connect 49 0 48 0;
#X connect 50 0 115 0;
#X connect 51 0 50 0;
#X connect 52 0 45 1;
#X connect 53 0 47 1;
#X connect 54 0 49 1;
#X connect 55 0 51 1;
#X connect 56 0 33 0;
#X connect 57 0 35 0;
#X connect 58 0 37 0;
#X connect 59 0 39 0;
#X connect 60 0 45 0;
#X connect 61 0 47 0;
#X connect 62 0 49 0;
#X connect 63 0 51 0;
#X connect 64 0 6 0;
#X connect 64 0 4 0;
#X connect 64 0 0 0;
#X connect 64 0 2 0;
#X connect 65 0 18 0;
#X connect 65 0 16 0;
#X connect 65 0 12 0;
#X connect 65 0 14 0;
#X connect 66 0 32 0;
#X connect 66 0 34 0;
#X connect 66 0 36 0;
#X connect 66 0 38 0;
#X connect 67 0 44 0;
#X connect 67 0 46 0;
#X connect 67 0 48 0;
#X connect 67 0 50 0;
#X connect 68 0 75 0;
#X connect 69 0 74 0;
#X connect 70 0 73 0;
#X connect 71 0 72 0;
#X connect 72 0 27 0;
#X connect 73 0 26 0;
#X connect 74 0 24 0;
#X connect 75 0 25 0;
#X connect 80 0 87 0;
#X connect 81 0 86 0;
#X connect 82 0 85 0;
#X connect 83 0 84 0;
#X connect 84 0 29 0;
#X connect 85 0 28 0;
#X connect 86 0 30 0;
#X connect 87 0 31 0;
#X connect 92 0 99 0;
#X connect 93 0 98 0;
#X connect 94 0 97 0;
#X connect 95 0 96 0;
#X connect 96 0 59 0;
#X connect 97 0 58 0;
#X connect 98 0 56 0;
#X connect 99 0 57 0;
#X connect 104 0 63 0;
#X connect 105 0 104 0;
#X connect 106 0 113 0;
#X connect 107 0 112 0;
#X connect 108 0 109 0;
#X connect 109 0 61 0;
#X connect 112 0 60 0;
#X connect 113 0 62 0;
#X restore -141 -71 pd mic 13 a 16;
#N canvas 385 38 707 546 mic 0;
#X obj -53 -221 line;
#X obj -53 -244 pack \$1 2000;
#X obj -218 -222 line;
#X obj -218 -245 pack \$1 2000;
#X obj 86 -215 line;
#X obj 86 -238 pack \$1 2000;
#X obj 242 -216 line;
#X obj 242 -239 pack \$1 2000;
#N canvas 804 24 168 129 (subpatch) 0;
#X obj 36 87 outlet;
#X obj 36 13 r l65;
#X obj 36 39 save.me.mmb l65 gnrl;
#X connect 1 0 2 0;
#X connect 2 0 0 0;
#X restore 39 -261 pd;
#N canvas 804 24 168 129 (subpatch) 0;
#X obj 36 87 outlet;
#X obj 36 13 r l66;
#X obj 36 37 save.me.mmb l66 gnrl;
#X connect 1 0 2 0;
#X connect 2 0 0 0;
#X restore -135 -262 pd;
#N canvas 804 24 168 129 (subpatch) 0;
#X obj 36 87 outlet;
#X obj 36 13 r l67;
#X obj 36 37 save.me.mmb l67 gnrl;
#X connect 1 0 2 0;
#X connect 2 0 0 0;
#X restore 169 -255 pd;
#N canvas 804 24 168 129 (subpatch) 0;
#X obj 36 87 outlet;
#X obj 36 13 r l68;
#X obj 36 37 save.me.mmb l68 gnrl;
#X connect 1 0 2 0;
#X connect 2 0 0 0;
#X restore 326 -256 pd;
#X obj -53 -95 line;
#X obj -53 -118 pack \$1 2000;
#X obj -218 -96 line;
#X obj -218 -119 pack \$1 2000;
#X obj 86 -89 line;
#X obj 86 -112 pack \$1 2000;
#X obj 242 -90 line;
#X obj 242 -113 pack \$1 2000;
#N canvas 804 24 168 129 (subpatch) 0;
#X obj 36 87 outlet;
#X obj 36 13 r l69;
#X obj 36 39 save.me.mmb l69 gnrl;
#X connect 1 0 2 0;
#X connect 2 0 0 0;
#X restore 31 -135 pd;
#N canvas 804 24 168 129 (subpatch) 0;
#X obj 36 87 outlet;
#X obj 36 13 r l70;
#X obj 36 37 save.me.mmb l70 gnrl;
#X connect 1 0 2 0;
#X connect 2 0 0 0;
#X restore -135 -136 pd;
#N canvas 804 24 168 129 (subpatch) 0;
#X obj 36 87 outlet;
#X obj 36 13 r l71;
#X obj 36 37 save.me.mmb l71 gnrl;
#X connect 1 0 2 0;
#X connect 2 0 0 0;
#X restore 169 -129 pd;
#N canvas 804 24 168 129 (subpatch) 0;
#X obj 36 87 outlet;
#X obj 36 13 r l72;
#X obj 36 37 save.me.mmb l72 gnrl;
#X connect 1 0 2 0;
#X connect 2 0 0 0;
#X restore 326 -130 pd;
#X obj -36 -263 pipe 20;
#X obj -212 -263 pipe 20;
#X obj 103 -255 pipe 20;
#X obj 259 -257 pipe 20;
#X obj -39 -136 pipe 20;
#X obj -204 -136 pipe 20;
#X obj 100 -128 pipe 20;
#X obj 256 -130 pipe 20;
#X obj 340 -235 r stoplines;
#X obj 358 -110 r stoplines;
#X obj -218 -303 r mic17dir;
#X obj -218 -281 save.me.mmb m17di gnrl;
#X obj -218 -197 s rmic17dir;
#X obj -218 -177 r mic18dir;
#X obj -218 -155 save.me.mmb m18di gnrl;
#X obj -218 -74 s rmic18dir;
#X obj -53 -73 s rmic18eq;
#X obj -53 -154 save.me.mmb m18eq gnrl;
#X obj -53 -176 r mic18eq;
#X obj -53 -196 s rmic17eq;
#X obj -53 -280 save.me.mmb m17eq gnrl;
#X obj -53 -302 r mic17eq;
#X obj 86 -296 r mic17eqsub;
#X obj 86 -274 save.me.mmb m17eqsub gnrl;
#X obj 86 -190 s rmic17eqsub;
#X obj 86 -170 r mic18eqsub;
#X obj 86 -148 save.me.mmb m18eqsub gnrl;
#X obj 86 -67 s rmic18eqsub;
#X obj 242 -68 s rmic18sub;
#X obj 242 -149 save.me.mmb m18sub gnrl;
#X obj 242 -171 r mic18sub;
#X obj 242 -191 s rmic17sub;
#X obj 242 -275 save.me.mmb m17sub gnrl;
#X obj 242 -297 r mic17sub;
#X connect 0 0 43 0;
#X connect 1 0 0 0;
#X connect 2 0 36 0;
#X connect 3 0 2 0;
#X connect 4 0 48 0;
#X connect 5 0 4 0;
#X connect 6 0 55 0;
#X connect 7 0 6 0;
#X connect 8 0 1 1;
#X connect 9 0 3 1;
#X connect 10 0 5 1;
#X connect 11 0 7 1;
#X connect 12 0 40 0;
#X connect 13 0 12 0;
#X connect 14 0 39 0;
#X connect 15 0 14 0;
#X connect 16 0 51 0;
#X connect 17 0 16 0;
#X connect 18 0 52 0;
#X connect 19 0 18 0;
#X connect 20 0 13 1;
#X connect 21 0 15 1;
#X connect 22 0 17 1;
#X connect 23 0 19 1;
#X connect 24 0 1 0;
#X connect 25 0 3 0;
#X connect 26 0 5 0;
#X connect 27 0 7 0;
#X connect 28 0 13 0;
#X connect 29 0 15 0;
#X connect 30 0 17 0;
#X connect 31 0 19 0;
#X connect 32 0 6 0;
#X connect 32 0 4 0;
#X connect 32 0 0 0;
#X connect 32 0 2 0;
#X connect 33 0 18 0;
#X connect 33 0 16 0;
#X connect 33 0 12 0;
#X connect 33 0 14 0;
#X connect 34 0 35 0;
#X connect 35 0 25 0;
#X connect 37 0 38 0;
#X connect 38 0 29 0;
#X connect 41 0 28 0;
#X connect 42 0 41 0;
#X connect 44 0 24 0;
#X connect 45 0 44 0;
#X connect 46 0 47 0;
#X connect 47 0 26 0;
#X connect 49 0 50 0;
#X connect 50 0 30 0;
#X connect 53 0 31 0;
#X connect 54 0 53 0;
#X connect 56 0 27 0;
#X connect 57 0 56 0;
#X restore -141 -42 pd mic 17 a 18;
#N canvas 613 49 527 494 servos 0;
#X obj 54 -125 r ctrl-S1;
#X obj 54 -13 s rctrl-S1;
#X obj 54 -101 save.me.mmb S1 gnrl;
#X obj 54 -40 line;
#X obj 54 -63 pack \$1 2000;
#N canvas 804 24 168 129 (subpatch) 0;
#X obj 36 87 outlet;
#X obj 36 39 save.me.mmb l65 gnrl;
#X obj 36 13 r l65;
#X connect 1 0 0 0;
#X connect 2 0 1 0;
#X restore 138 -80 pd;
#X obj 55 101 line;
#X obj 55 78 pack \$1 2000;
#N canvas 804 24 168 129 (subpatch) 0;
#X obj 36 87 outlet;
#X obj 36 13 r l66;
#X obj 36 39 save.me.mmb l66 gnrl;
#X connect 1 0 2 0;
#X connect 2 0 0 0;
#X restore 139 61 pd;
#X obj 57 249 line;
#X obj 57 226 pack \$1 2000;
#N canvas 804 24 168 129 (subpatch) 0;
#X obj 36 87 outlet;
#X obj 36 13 r l67;
#X obj 36 39 save.me.mmb l67 gnrl;
#X connect 1 0 2 0;
#X connect 2 0 0 0;
#X restore 141 209 pd;
#X obj 205 -38 line;
#X obj 205 -61 pack \$1 2000;
#N canvas 804 24 168 129 (subpatch) 0;
#X obj 36 87 outlet;
#X obj 36 13 r l68;
#X obj 36 39 save.me.mmb l68 gnrl;
#X connect 1 0 2 0;
#X connect 2 0 0 0;
#X restore 289 -78 pd;
#X obj 206 103 line;
#X obj 206 80 pack \$1 2000;
#N canvas 804 24 168 129 (subpatch) 0;
#X obj 36 87 outlet;
#X obj 36 13 r l69;
#X obj 36 39 save.me.mmb l69 gnrl;
#X connect 1 0 2 0;
#X connect 2 0 0 0;
#X restore 290 63 pd;
#X obj 208 251 line;
#X obj 208 228 pack \$1 2000;
#N canvas 804 24 168 129 (subpatch) 0;
#X obj 36 87 outlet;
#X obj 36 13 r l70;
#X obj 36 39 save.me.mmb l70 gnrl;
#X connect 1 0 2 0;
#X connect 2 0 0 0;
#X restore 292 211 pd;
#X obj 360 -40 line;
#X obj 360 -63 pack \$1 2000;
#N canvas 804 24 168 129 (subpatch) 0;
#X obj 36 87 outlet;
#X obj 36 13 r l71;
#X obj 36 39 save.me.mmb l71 gnrl;
#X connect 1 0 2 0;
#X connect 2 0 0 0;
#X restore 444 -80 pd;
#X obj 361 101 line;
#X obj 361 78 pack \$1 2000;
#N canvas 804 24 168 129 (subpatch) 0;
#X obj 36 87 outlet;
#X obj 36 13 r l72;
#X obj 36 39 save.me.mmb l72 gnrl;
#X connect 1 0 2 0;
#X connect 2 0 0 0;
#X restore 445 61 pd;
#X obj 363 249 line;
#X obj 363 226 pack \$1 2000;
#N canvas 804 24 168 129 (subpatch) 0;
#X obj 36 87 outlet;
#X obj 36 13 r l73;
#X obj 36 39 save.me.mmb l73 gnrl;
#X connect 1 0 2 0;
#X connect 2 0 0 0;
#X restore 447 209 pd;
#X obj 55 16 r ctrl-S2;
#X obj 55 40 save.me.mmb S2 gnrl;
#X obj 55 128 s rctrl-S2;
#X obj 57 164 r ctrl-S3;
#X obj 57 188 save.me.mmb S3 gnrl;
#X obj 57 276 s rctrl-S3;
#X obj 205 -123 r ctrl-S4;
#X obj 205 -99 save.me.mmb S4 gnrl;
#X obj 205 -11 s rctrl-S4;
#X obj 206 18 r ctrl-S5;
#X obj 206 42 save.me.mmb S5 gnrl;
#X obj 206 130 s rctrl-S5;
#X obj 208 166 r ctrl-S6;
#X obj 208 190 save.me.mmb S6 gnrl;
#X obj 208 278 s rctrl-S6;
#X obj 360 -125 r ctrl-S7;
#X obj 360 -101 save.me.mmb S7 gnrl;
#X obj 360 -13 s rctrl-S7;
#X obj 361 16 r ctrl-S8;
#X obj 361 40 save.me.mmb S8 gnrl;
#X obj 361 128 s rctrl-S8;
#X obj 363 164 r ctrl-S9;
#X obj 363 188 save.me.mmb S9 gnrl;
#X obj 363 276 s rctrl-S9;
#X connect 0 0 2 0;
#X connect 2 0 4 0;
#X connect 3 0 1 0;
#X connect 4 0 3 0;
#X connect 5 0 4 1;
#X connect 6 0 32 0;
#X connect 7 0 6 0;
#X connect 8 0 7 1;
#X connect 9 0 35 0;
#X connect 10 0 9 0;
#X connect 11 0 10 1;
#X connect 12 0 38 0;
#X connect 13 0 12 0;
#X connect 14 0 13 1;
#X connect 15 0 41 0;
#X connect 16 0 15 0;
#X connect 17 0 16 1;
#X connect 18 0 44 0;
#X connect 19 0 18 0;
#X connect 20 0 19 1;
#X connect 21 0 47 0;
#X connect 22 0 21 0;
#X connect 23 0 22 1;
#X connect 24 0 50 0;
#X connect 25 0 24 0;
#X connect 26 0 25 1;
#X connect 27 0 53 0;
#X connect 28 0 27 0;
#X connect 29 0 28 1;
#X connect 30 0 31 0;
#X connect 31 0 7 0;
#X connect 33 0 34 0;
#X connect 34 0 10 0;
#X connect 36 0 37 0;
#X connect 37 0 13 0;
#X connect 39 0 40 0;
#X connect 40 0 16 0;
#X connect 42 0 43 0;
#X connect 43 0 19 0;
#X connect 45 0 46 0;
#X connect 46 0 22 0;
#X connect 48 0 49 0;
#X connect 49 0 25 0;
#X connect 51 0 52 0;
#X connect 52 0 28 0;
#X restore -12 -154 pd servos;
#X connect 0 0 1 0;
#X connect 1 0 22 0;
#X connect 3 0 4 0;
#X connect 4 0 24 0;
#X connect 6 0 8 0;
#X connect 8 0 26 0;
#X connect 9 0 11 0;
#X connect 11 0 28 0;
#X connect 12 0 15 0;
#X connect 14 0 16 0;
#X connect 15 0 34 0;
#X connect 16 0 18 0;
#X connect 17 0 20 0;
#X connect 18 0 17 0;
#X connect 19 0 18 1;
#X connect 21 0 2 0;
#X connect 22 0 21 0;
#X connect 23 0 5 0;
#X connect 24 0 23 0;
#X connect 25 0 7 0;
#X connect 26 0 25 0;
#X connect 27 0 10 0;
#X connect 28 0 27 0;
#X connect 29 0 22 1;
#X connect 30 0 24 1;
#X connect 31 0 26 1;
#X connect 32 0 28 1;
#X connect 33 0 13 0;
#X connect 34 0 33 0;
#X connect 35 0 34 1;
#X connect 36 0 41 0;
#X connect 37 0 36 0;
#X connect 38 0 37 1;
#X connect 39 0 40 0;
#X connect 40 0 37 0;
#X connect 42 0 50 0;
#X connect 43 0 42 0;
#X connect 44 0 43 1;
#X connect 45 0 53 0;
#X connect 46 0 45 0;
#X connect 47 0 46 1;
#X connect 48 0 49 0;
#X connect 49 0 43 0;
#X connect 51 0 52 0;
#X connect 52 0 46 0;
#X restore 69 19 pd saveme;
