#N canvas 262 38 899 562 10;
#X text 60 -42 POWER;
#X text 109 -42 MENU;
#X text 234 -41 GAUCHE;
#X text 283 -42 DROITE;
#X text 340 -39 HAUT;
#X text 383 -38 BAS;
#X text 427 -37 ARRIERE;
#X text 486 -38 AVANT;
#X text 538 -36 KEYSTONE +;
#X text 612 -35 KEYSTONE -;
#X text 699 -35 HIDE;
#X text 154 -42 ENTER/PLAY;
#X obj 111 191 packOSC;
#X obj 111 229 udpsend;
#X msg 180 212 disconnect;
#X obj 111 264 tgl 15 0 empty empty 1=connected 20 8 0 8 -4034 -257985
-1 0 1;
#X msg 150 169 [;
#X msg 111 169 ];
#X obj 111 145 t b a b;
#X msg 110 126 sendtyped /teleco ii \$1 \$2;
#X msg 110 12 2 2;
#X msg 66 -13 1 1;
#X msg 66 11 2 1;
#X msg 66 33 3 1;
#X msg 110 37 3 2;
#X msg 110 -12 1 2;
#X msg 161 36 3 3;
#X msg 160 11 2 3;
#X msg 159 -13 1 3;
#X msg 223 12 2 4;
#X msg 223 -13 1 4;
#X msg 162 190 connect 192.168.1.59 8888;
#X msg 286 -13 1 5;
#X msg 285 12 2 5;
#X msg 224 39 3 4;
#X msg 285 39 3 5;
#X msg 340 -12 1 6;
#X msg 340 14 2 6;
#X msg 381 -11 1 7;
#X msg 382 13 2 7;
#X msg 432 -11 1 8;
#X msg 432 17 2 8;
#X msg 483 -11 1 9;
#X msg 482 18 2 9;
#X msg 541 -11 1 10;
#X msg 542 16 2 10;
#X msg 615 -11 1 11;
#X msg 616 19 2 11;
#X msg 695 -9 1 12;
#X msg 695 20 2 12;
#X connect 12 0 13 0;
#X connect 13 0 15 0;
#X connect 14 0 13 0;
#X connect 16 0 12 0;
#X connect 17 0 12 0;
#X connect 18 0 17 0;
#X connect 18 1 12 0;
#X connect 18 2 16 0;
#X connect 19 0 18 0;
#X connect 20 0 19 0;
#X connect 21 0 19 0;
#X connect 22 0 19 0;
#X connect 23 0 19 0;
#X connect 24 0 19 0;
#X connect 25 0 19 0;
#X connect 26 0 19 0;
#X connect 27 0 19 0;
#X connect 28 0 19 0;
#X connect 29 0 19 0;
#X connect 30 0 19 0;
#X connect 31 0 13 0;
#X connect 32 0 19 0;
#X connect 33 0 19 0;
#X connect 34 0 19 0;
#X connect 35 0 19 0;
#X connect 36 0 19 0;
#X connect 37 0 19 0;
#X connect 38 0 19 0;
#X connect 39 0 19 0;
#X connect 40 0 19 0;
#X connect 41 0 19 0;
#X connect 42 0 19 0;
#X connect 43 0 19 0;
#X connect 44 0 19 0;
#X connect 45 0 19 0;
#X connect 46 0 19 0;
#X connect 47 0 19 0;
#X connect 48 0 19 0;
#X connect 49 0 19 0;
