#N canvas 292 23 808 314 10;
#N canvas 198 300 1108 539 preset 1;
#X msg 45 48 save;
#X obj 247 132 route 0 1 2 3 4 5 6 7;
#X obj 444 341 prepend load;
#X obj 151 115 list prepend;
#X msg 220 87 \$1;
#X obj 58 67 r \$0-my.hero.preset;
#X obj 444 363 s \$0-my.hero.preset;
#N canvas 276 151 1067 812 messages 0;
#X obj 34 47 inlet;
#X obj 83 47 inlet;
#X obj 127 47 inlet;
#X obj 172 47 inlet;
#X obj 224 48 inlet;
#X obj 273 48 inlet;
#X obj 317 48 inlet;
#X obj 362 48 inlet;
#X obj 124 656 outlet;
#X msg 34 98;
#X msg 83 201;
#X msg 127 296 m8di2 0 \, m6di2 0 \, m4di2 0 \, m8sub 0 \, m8di 0 \,
m7sub 0 \, m7di 0.689655 \, m2di2 0 \, cvo 52.6316 \, SU 0.482759 \,
MR 0.448276 \, CS 0.0689655 \, CR 0.586207 \, CL 0.586207 \, m6sub
0 \, m6eqsub 0 \, m6di 0 \, m6eq 0.344828 \, m5sub 0 \, m5eqsub 0 \,
m5di 0.655172 \, m5eq 0 \, m4sub 0 \, m4eqsub 0 \, m3sub 0 \, m3eqsub
0 \, m4di 0 \, m4eq 0 \, m3di 0 \, m3eq 0 \, m2sub 0 \, m1sub 0 \,
m2eqsub 0 \, m1eqsub 0 \, m2di 0 \, m1di 0.827586 \, m2eq 0 \, m1eq
0 \,;
#X msg 172 406 m4di2 0.62069 \, m8sub 0 \, m8di 0 \, m8eq 0 \, m7sub
0 \, m7di 1 \, m7eq 0.689655 \, m2di2 0 \, l10 10000 \, cvo 0 \, SU
0.482759 \, CS 0.482759 \, CR 0.566897 \, CL 0.566897 \, m6sub 0.551724
\, m6di 0 \, m5sub 0.655172 \, m5di 0 \, m4sub 0 \, m4di 0.275862 \,
m3di 0 \, m2di 0 \, m1di 0 \, m1eq 0 \,;
#X msg 213 517 cvo2 0 \, m8di2 0 \, m6di2 0 \, m4di2 0 \, m8sub 0 \,
m8di 0 \, m8eq 0 \, m7sub 0 \, m7di 0.241379 \, m7eq 0.137931 \, m2di2
0 \, cvo 0 \, SU 0.482759 \, CS 0.793103 \, CR 0.37931 \, CL 0.37931
\, m6sub 0 \, m6eqsub 0 \, m6di 0 \, m6eq 0 \, m5sub 0 \, m5eqsub 0
\, m5di 0 \, m5eq 0 \, m4sub 0 \, m4eqsub 0 \, m3sub 0 \, m3eqsub 0
\, m4di 0 \, m4eq 0 \, m3di 0 \, m3eq 0 \, m2sub 0 \, m1sub 0.172414
\, m2eqsub 0 \, m1eqsub 0 \, m2di 0 \, m1di 0.172414 \, m2eq 0 \, m1eq
0.241379 \,;
#X msg 269 623 cvo4 42.1053 \, cvo3 47.3684 \, cvo2 26.3158 \, m8di2
0.172414 \, m6di2 0 \, m4di2 0 \, m8sub 0 \, m8di 0.103448 \, m8eq
0 \, m7sub 0.206897 \, m7di 0.103448 \, m7eq 0 \, m2di2 0.586207 \,
cvo 0 \, SU 0.482759 \, m6sub 0 \, m6eqsub 0 \, m6di 0 \, m6eq 0 \,
m5sub 0 \, m5eqsub 0 \, m5di 0 \, m5eq 0 \, m4sub 0 \, m4eqsub 0 \,
m3sub 0 \, m3eqsub 0 \, m4di 0 \, m4eq 0 \, m3di 0 \, m3eq 0 \, m2sub
0 \, m1sub 0 \, m2eqsub 0 \, m1eqsub 0 \, m2di 0 \, m1di 0.172414 \,
m2eq 0 \, m1eq 0 \,;
#X msg 478 88 cvo4 47.2632 \, cvo3 50.5263 \, cvo2 36.8421 \, m8di2
0.241379 \, m6di2 0 \, m4di2 0 \, m8sub 0 \, m8di 0 \, m8eq 0 \, m7sub
0.206897 \, m7di 0.206897 \, m7eq 0.344828 \, m2di2 0.482759 \, cvo
0 \, SU 0.37931 \, m6sub 0 \, m6eqsub 0 \, m6di 0 \, m6eq 0 \, m5sub
0 \, m5eqsub 0 \, m5di 0 \, m5eq 0 \, m4sub 0 \, m4eqsub 0 \, m3sub
0 \, m3eqsub 0 \, m4di 0 \, m4eq 0 \, m3di 0 \, m3eq 0 \, m2sub 0 \,
m1sub 0 \, m2eqsub 0 \, m1eqsub 0 \, m2di 0 \, m1di 0.413793 \, m2eq
0 \, m1eq 0 \,;
#X msg 507 194 cvo4 47.2632 \, cvo3 40 \, cvo2 0 \, m8di2 0 \, m6di2
0 \, m4di2 0.413793 \, m8sub 0 \, m8di 0 \, m8eq 0 \, m7sub 0 \, m7di
0 \, m7eq 0 \, l24 20000 \, l20 20000 \, l24 20000 \, l20 20000 \,
m2di2 0.62069 \, cvo 0 \, SU 0.482759 \, m6sub 0 \, m6eqsub 0 \, m6di
0.275862 \, m6eq 0 \, m5sub 0.241379 \, m5eqsub 0 \, m5di 0.310345
\, m5eq 0 \, m4sub 0 \, m4eqsub 0 \, m3sub 0 \, m3eqsub 0 \, m4di 0
\, m4eq 0 \, m3di 0 \, m3eq 0 \, m2sub 0 \, m1sub 0 \, m2eqsub 0 \,
m1eqsub 0 \, m2di 0 \, m1di 0.275862 \, m2eq 0 \, m1eq 0 \,;
#X connect 0 0 9 0;
#X connect 1 0 10 0;
#X connect 2 0 11 0;
#X connect 3 0 12 0;
#X connect 4 0 13 0;
#X connect 5 0 14 0;
#X connect 6 0 15 0;
#X connect 7 0 16 0;
#X connect 9 0 8 0;
#X connect 10 0 8 0;
#X connect 11 0 8 0;
#X connect 12 0 8 0;
#X connect 13 0 8 0;
#X connect 14 0 8 0;
#X connect 15 0 8 0;
#X connect 16 0 8 0;
#X restore 247 293 pd messages;
#N canvas 75 61 851 613 messages 0;
#X obj 34 47 inlet;
#X obj 83 47 inlet;
#X obj 127 47 inlet;
#X obj 172 47 inlet;
#X obj 224 48 inlet;
#X obj 273 48 inlet;
#X obj 317 48 inlet;
#X obj 362 48 inlet;
#X obj 196 132 outlet;
#X msg 319 85;
#X msg 364 85;
#X msg 32 109 cvo4 47.2632 \, cvo3 40 \, cvo2 33.0526 \, m8di2 0.241379
\, m6di2 0 \, m4di2 0.413793 \, m8sub 0 \, m8di 0 \, m8eq 0 \, m7sub
0 \, m7di 0 \, m7eq 0 \, l24 20000 \, l20 20000 \, l24 20000 \, l20
20000 \, m2di2 0.724138 \, cvo 0 \, SU 0.482759 \, m6sub 0 \, m6eqsub
0 \, m6di 0 \, m6eq 0 \, m5sub 0.310345 \, m5eqsub 0 \, m5di 0.448276
\, m5eq 0 \, m4sub 0 \, m4eqsub 0 \, m3sub 0 \, m3eqsub 0 \, m4di 0
\, m4eq 0 \, m3di 0.413793 \, m3eq 0 \, m2sub 0 \, m1sub 0 \, m2eqsub
0 \, m1eqsub 0 \, m2di 0 \, m1di 0.413793 \, m2eq 0 \, m1eq 0 \,;
#X msg 84 226 cvo2 34.6316 \, m8di2 0.241379 \, m6di2 0 \, m4di2 0.724138
\, m8sub 0 \, m8di 0 \, m8eq 0 \, m7sub 0 \, m7di 0 \, m7eq 0 \, m2di2
0.724138 \, cvo 0 \, SU 0.482759 \, CS 0.793103 \, CR 0.551724 \, CL
0.551724 \, m6sub 0 \, m6di 0 \, m6eq 0 \, m5sub 0.310345 \, m5di 0.448276
\, m5eq 0 \, m4sub 0 \, m4eqsub 0 \, m3sub 0 \, m3eqsub 0 \, m4di 0
\, m4eq 0 \, m3di 0.413793 \, m3eq 0 \, m2sub 0 \, m1sub 0 \, m2eqsub
0 \, m1eqsub 0 \, m2di 0 \, m1di 0.413793 \, m2eq 0 \, m1eq 0 \,;
#X msg 129 360 cvo4 47.3684 \, cvo3 26.3158 \, cvo2 0 \, m8di2 0.448276
\, m6di2 0 \, m4di2 0 \, m8sub 0 \, m8di 0.137931 \, m8eq 0.103448
\, m7sub 0 \, m7di 0.103448 \, m7eq 0.137931 \, l24 20000 \, l20 20000
\, l24 20000 \, l20 20000 \, m2di2 0 \, cvo 0 \, SU 0.482759 \, m6sub
0 \, m6eqsub 0 \, m6di 0 \, m6eq 0 \, m5sub 0 \, m5eqsub 0 \, m5di
0 \, m5eq 0 \, m4sub 0 \, m4eqsub 0 \, m3sub 0 \, m3eqsub 0 \, m4di
0 \, m4eq 0 \, m3di 0 \, m3eq 0 \, m2sub 0 \, m1sub 0 \, m2eqsub 0
\, m1eqsub 0 \, m2di 0 \, m1di 0 \, m2eq 0 \, m1eq 0.137931 \,;
#X msg 170 455;
#X msg 311 84;
#X msg 462 297;
#X connect 0 0 11 0;
#X connect 1 0 12 0;
#X connect 2 0 13 0;
#X connect 3 0 14 0;
#X connect 4 0 16 0;
#X connect 5 0 15 0;
#X connect 6 0 9 0;
#X connect 7 0 10 0;
#X connect 9 0 8 0;
#X connect 10 0 8 0;
#X connect 11 0 8 0;
#X connect 12 0 8 0;
#X connect 13 0 8 0;
#X connect 14 0 8 0;
#X connect 15 0 8 0;
#X connect 16 0 8 0;
#X restore 370 293 pd messages;
#X msg 221 162 set;
#X obj 144 155 + 1;
#X obj 144 19 inlet;
#X obj 44 29 inlet;
#X obj 220 19 inlet;
#X obj 45 98 my.hero.mmb gnrl;
#X obj 144 205 gate 16;
#N canvas 276 151 1067 812 messages 0;
#X obj 34 47 inlet;
#X obj 83 47 inlet;
#X obj 127 47 inlet;
#X obj 172 47 inlet;
#X obj 224 48 inlet;
#X obj 273 48 inlet;
#X obj 317 48 inlet;
#X obj 362 48 inlet;
#X obj 124 656 outlet;
#X msg 34 98;
#X msg 83 201;
#X msg 127 296 m8di2 0 \, m6di2 0 \, m4di2 0 \, m8sub 0 \, m8di 0 \,
m7sub 0 \, m7di 0.689655 \, m2di2 0 \, cvo 52.6316 \, SU 0.482759 \,
MR 0.448276 \, CS 0.0689655 \, CR 0.586207 \, CL 0.586207 \, m6sub
0 \, m6eqsub 0 \, m6di 0 \, m6eq 0.344828 \, m5sub 0 \, m5eqsub 0 \,
m5di 0.655172 \, m5eq 0 \, m4sub 0 \, m4eqsub 0 \, m3sub 0 \, m3eqsub
0 \, m4di 0 \, m4eq 0 \, m3di 0 \, m3eq 0 \, m2sub 0 \, m1sub 0 \,
m2eqsub 0 \, m1eqsub 0 \, m2di 0 \, m1di 0.827586 \, m2eq 0 \, m1eq
0 \,;
#X msg 172 406 m4di2 0.62069 \, m8sub 0 \, m8di 0 \, m8eq 0 \, m7sub
0 \, m7di 1 \, m7eq 0.689655 \, m2di2 0 \, l10 10000 \, cvo 0 \, SU
0.482759 \, CS 0.482759 \, CR 0.566897 \, CL 0.566897 \, m6sub 0.551724
\, m6di 0 \, m5sub 0.655172 \, m5di 0 \, m4sub 0 \, m4di 0.275862 \,
m3di 0 \, m2di 0 \, m1di 0 \, m1eq 0 \,;
#X msg 213 517 cvo2 0 \, m8di2 0 \, m6di2 0 \, m4di2 0 \, m8sub 0 \,
m8di 0 \, m8eq 0 \, m7sub 0 \, m7di 0.241379 \, m7eq 0.137931 \, m2di2
0 \, cvo 0 \, SU 0.482759 \, CS 0.793103 \, CR 0.37931 \, CL 0.37931
\, m6sub 0 \, m6eqsub 0 \, m6di 0 \, m6eq 0 \, m5sub 0 \, m5eqsub 0
\, m5di 0 \, m5eq 0 \, m4sub 0 \, m4eqsub 0 \, m3sub 0 \, m3eqsub 0
\, m4di 0 \, m4eq 0 \, m3di 0 \, m3eq 0 \, m2sub 0 \, m1sub 0.172414
\, m2eqsub 0 \, m1eqsub 0 \, m2di 0 \, m1di 0.172414 \, m2eq 0 \, m1eq
0.241379 \,;
#X msg 269 623 cvo4 42.1053 \, cvo3 47.3684 \, cvo2 26.3158 \, m8di2
0.172414 \, m6di2 0 \, m4di2 0 \, m8sub 0 \, m8di 0.103448 \, m8eq
0 \, m7sub 0.206897 \, m7di 0.103448 \, m7eq 0 \, m2di2 0.586207 \,
cvo 0 \, SU 0.482759 \, m6sub 0 \, m6eqsub 0 \, m6di 0 \, m6eq 0 \,
m5sub 0 \, m5eqsub 0 \, m5di 0 \, m5eq 0 \, m4sub 0 \, m4eqsub 0 \,
m3sub 0 \, m3eqsub 0 \, m4di 0 \, m4eq 0 \, m3di 0 \, m3eq 0 \, m2sub
0 \, m1sub 0 \, m2eqsub 0 \, m1eqsub 0 \, m2di 0 \, m1di 0.172414 \,
m2eq 0 \, m1eq 0 \,;
#X msg 478 88 cvo4 47.2632 \, cvo3 50.5263 \, cvo2 36.8421 \, m8di2
0.241379 \, m6di2 0 \, m4di2 0 \, m8sub 0 \, m8di 0 \, m8eq 0 \, m7sub
0.206897 \, m7di 0.206897 \, m7eq 0.344828 \, m2di2 0.482759 \, cvo
0 \, SU 0.37931 \, m6sub 0 \, m6eqsub 0 \, m6di 0 \, m6eq 0 \, m5sub
0 \, m5eqsub 0 \, m5di 0 \, m5eq 0 \, m4sub 0 \, m4eqsub 0 \, m3sub
0 \, m3eqsub 0 \, m4di 0 \, m4eq 0 \, m3di 0 \, m3eq 0 \, m2sub 0 \,
m1sub 0 \, m2eqsub 0 \, m1eqsub 0 \, m2di 0 \, m1di 0.413793 \, m2eq
0 \, m1eq 0 \,;
#X msg 507 194 cvo4 47.2632 \, cvo3 40 \, cvo2 0 \, m8di2 0 \, m6di2
0 \, m4di2 0.413793 \, m8sub 0 \, m8di 0 \, m8eq 0 \, m7sub 0 \, m7di
0 \, m7eq 0 \, l24 20000 \, l20 20000 \, l24 20000 \, l20 20000 \,
m2di2 0.62069 \, cvo 0 \, SU 0.482759 \, m6sub 0 \, m6eqsub 0 \, m6di
0.275862 \, m6eq 0 \, m5sub 0.241379 \, m5eqsub 0 \, m5di 0.310345
\, m5eq 0 \, m4sub 0 \, m4eqsub 0 \, m3sub 0 \, m3eqsub 0 \, m4di 0
\, m4eq 0 \, m3di 0 \, m3eq 0 \, m2sub 0 \, m1sub 0 \, m2eqsub 0 \,
m1eqsub 0 \, m2di 0 \, m1di 0.275862 \, m2eq 0 \, m1eq 0 \,;
#X connect 0 0 9 0;
#X connect 1 0 10 0;
#X connect 2 0 11 0;
#X connect 3 0 12 0;
#X connect 4 0 13 0;
#X connect 5 0 14 0;
#X connect 6 0 15 0;
#X connect 7 0 16 0;
#X connect 9 0 8 0;
#X connect 10 0 8 0;
#X connect 11 0 8 0;
#X connect 12 0 8 0;
#X connect 13 0 8 0;
#X connect 14 0 8 0;
#X connect 15 0 8 0;
#X connect 16 0 8 0;
#X restore 687 292 pd messages;
#N canvas 75 61 851 613 messages 0;
#X obj 34 47 inlet;
#X obj 83 47 inlet;
#X obj 127 47 inlet;
#X obj 172 47 inlet;
#X obj 224 48 inlet;
#X obj 273 48 inlet;
#X obj 317 48 inlet;
#X obj 362 48 inlet;
#X obj 196 132 outlet;
#X msg 319 85;
#X msg 364 85;
#X msg 32 109 cvo4 47.2632 \, cvo3 40 \, cvo2 33.0526 \, m8di2 0.241379
\, m6di2 0 \, m4di2 0.413793 \, m8sub 0 \, m8di 0 \, m8eq 0 \, m7sub
0 \, m7di 0 \, m7eq 0 \, l24 20000 \, l20 20000 \, l24 20000 \, l20
20000 \, m2di2 0.724138 \, cvo 0 \, SU 0.482759 \, m6sub 0 \, m6eqsub
0 \, m6di 0 \, m6eq 0 \, m5sub 0.310345 \, m5eqsub 0 \, m5di 0.448276
\, m5eq 0 \, m4sub 0 \, m4eqsub 0 \, m3sub 0 \, m3eqsub 0 \, m4di 0
\, m4eq 0 \, m3di 0.413793 \, m3eq 0 \, m2sub 0 \, m1sub 0 \, m2eqsub
0 \, m1eqsub 0 \, m2di 0 \, m1di 0.413793 \, m2eq 0 \, m1eq 0 \,;
#X msg 84 226 cvo2 34.6316 \, m8di2 0.241379 \, m6di2 0 \, m4di2 0.724138
\, m8sub 0 \, m8di 0 \, m8eq 0 \, m7sub 0 \, m7di 0 \, m7eq 0 \, m2di2
0.724138 \, cvo 0 \, SU 0.482759 \, CS 0.793103 \, CR 0.551724 \, CL
0.551724 \, m6sub 0 \, m6di 0 \, m6eq 0 \, m5sub 0.310345 \, m5di 0.448276
\, m5eq 0 \, m4sub 0 \, m4eqsub 0 \, m3sub 0 \, m3eqsub 0 \, m4di 0
\, m4eq 0 \, m3di 0.413793 \, m3eq 0 \, m2sub 0 \, m1sub 0 \, m2eqsub
0 \, m1eqsub 0 \, m2di 0 \, m1di 0.413793 \, m2eq 0 \, m1eq 0 \,;
#X msg 129 360 cvo4 47.3684 \, cvo3 26.3158 \, cvo2 0 \, m8di2 0.448276
\, m6di2 0 \, m4di2 0 \, m8sub 0 \, m8di 0.137931 \, m8eq 0.103448
\, m7sub 0 \, m7di 0.103448 \, m7eq 0.137931 \, l24 20000 \, l20 20000
\, l24 20000 \, l20 20000 \, m2di2 0 \, cvo 0 \, SU 0.482759 \, m6sub
0 \, m6eqsub 0 \, m6di 0 \, m6eq 0 \, m5sub 0 \, m5eqsub 0 \, m5di
0 \, m5eq 0 \, m4sub 0 \, m4eqsub 0 \, m3sub 0 \, m3eqsub 0 \, m4di
0 \, m4eq 0 \, m3di 0 \, m3eq 0 \, m2sub 0 \, m1sub 0 \, m2eqsub 0
\, m1eqsub 0 \, m2di 0 \, m1di 0 \, m2eq 0 \, m1eq 0.137931 \,;
#X msg 170 455;
#X msg 311 84;
#X msg 462 297;
#X connect 0 0 11 0;
#X connect 1 0 12 0;
#X connect 2 0 13 0;
#X connect 3 0 14 0;
#X connect 4 0 16 0;
#X connect 5 0 15 0;
#X connect 6 0 9 0;
#X connect 7 0 10 0;
#X connect 9 0 8 0;
#X connect 10 0 8 0;
#X connect 11 0 8 0;
#X connect 12 0 8 0;
#X connect 13 0 8 0;
#X connect 14 0 8 0;
#X connect 15 0 8 0;
#X connect 16 0 8 0;
#X restore 810 292 pd messages;
#X obj 577 179 gate 16;
#X msg 286 68 1;
#X msg 312 68 2;
#X msg 339 68 3;
#X msg 366 68 4;
#X msg 392 68 5;
#X msg 419 68 6;
#X msg 446 68 7;
#X msg 472 68 8;
#X msg 499 68 9;
#X msg 526 68 10;
#X msg 552 68 11;
#X msg 579 68 12;
#X msg 607 68 13;
#X msg 634 68 14;
#X msg 660 68 15;
#X msg 687 68 16;
#X obj 370 155 route 8 9 10 11 12 13 14 15;
#X obj 320 36 sel 16 17 18 19 20 21 22 23 24 25 26 27 28 29 30 31;
#X obj 640 172 route 16 17 18 19 20 21 22 23 24 25 26 27 28 29 30 31
;
#X connect 0 0 14 0;
#X connect 1 0 7 0;
#X connect 1 1 7 1;
#X connect 1 2 7 2;
#X connect 1 3 7 3;
#X connect 1 4 7 4;
#X connect 1 5 7 5;
#X connect 1 6 7 6;
#X connect 1 7 7 7;
#X connect 1 8 35 0;
#X connect 2 0 6 0;
#X connect 3 0 1 0;
#X connect 4 0 3 1;
#X connect 5 0 14 0;
#X connect 7 0 2 0;
#X connect 8 0 2 0;
#X connect 9 0 15 1;
#X connect 9 0 18 1;
#X connect 10 0 15 0;
#X connect 11 0 4 0;
#X connect 11 0 10 0;
#X connect 11 0 1 0;
#X connect 11 0 36 0;
#X connect 12 0 0 0;
#X connect 13 0 9 0;
#X connect 14 0 3 0;
#X connect 15 0 7 0;
#X connect 15 1 7 1;
#X connect 15 2 7 2;
#X connect 15 3 7 3;
#X connect 15 4 7 4;
#X connect 15 5 7 5;
#X connect 15 6 7 6;
#X connect 15 7 7 7;
#X connect 15 8 8 0;
#X connect 15 9 8 1;
#X connect 15 10 8 2;
#X connect 15 11 8 3;
#X connect 15 12 8 4;
#X connect 15 13 8 5;
#X connect 15 14 8 6;
#X connect 15 15 8 7;
#X connect 16 0 2 0;
#X connect 17 0 2 0;
#X connect 18 0 16 0;
#X connect 18 1 16 1;
#X connect 18 2 16 2;
#X connect 18 3 16 3;
#X connect 18 4 16 4;
#X connect 18 5 16 5;
#X connect 18 6 16 6;
#X connect 18 7 16 7;
#X connect 18 8 17 0;
#X connect 18 9 17 1;
#X connect 18 10 17 2;
#X connect 18 11 17 3;
#X connect 18 12 17 4;
#X connect 18 13 17 5;
#X connect 18 14 17 6;
#X connect 18 15 17 7;
#X connect 19 0 18 0;
#X connect 20 0 18 0;
#X connect 21 0 18 0;
#X connect 22 0 18 0;
#X connect 23 0 18 0;
#X connect 24 0 18 0;
#X connect 25 0 18 0;
#X connect 26 0 18 0;
#X connect 27 0 18 0;
#X connect 28 0 18 0;
#X connect 29 0 18 0;
#X connect 30 0 18 0;
#X connect 31 0 18 0;
#X connect 32 0 18 0;
#X connect 33 0 18 0;
#X connect 34 0 18 0;
#X connect 35 0 8 0;
#X connect 35 1 8 1;
#X connect 35 2 8 2;
#X connect 35 3 8 3;
#X connect 35 4 8 4;
#X connect 35 5 8 5;
#X connect 35 6 8 6;
#X connect 35 7 8 7;
#X connect 35 8 37 0;
#X connect 36 0 19 0;
#X connect 36 1 20 0;
#X connect 36 2 21 0;
#X connect 36 3 22 0;
#X connect 36 4 23 0;
#X connect 36 5 24 0;
#X connect 36 6 25 0;
#X connect 36 7 26 0;
#X connect 36 8 27 0;
#X connect 36 9 28 0;
#X connect 36 10 29 0;
#X connect 36 11 30 0;
#X connect 36 12 31 0;
#X connect 36 13 32 0;
#X connect 36 14 33 0;
#X connect 36 15 34 0;
#X connect 37 0 16 0;
#X connect 37 1 16 1;
#X connect 37 2 16 2;
#X connect 37 3 16 3;
#X connect 37 4 16 4;
#X connect 37 5 16 5;
#X connect 37 6 16 6;
#X connect 37 7 16 7;
#X connect 37 8 17 0;
#X connect 37 9 17 1;
#X connect 37 10 17 2;
#X connect 37 11 17 3;
#X connect 37 12 17 4;
#X connect 37 13 17 5;
#X connect 37 14 17 6;
#X connect 37 15 17 7;
#X restore 109 253 pd preset;
#X obj 209 238 bng 15 250 50 0 empty empty erase 17 7 0 10 -262144
-1 -1;
#X obj 109 181 bng 15 250 50 0 empty empty save -25 7 0 10 -262144
-1 -1;
#X obj 134 54 hradio 15 1 0 8 empty empty empty 0 -8 0 10 -262144 -1
-1 2;
#X obj 196 79 hradio 15 1 0 8 empty empty empty 0 -8 0 10 -262144 -1
-1 0;
#X floatatom 134 208 5 0 0 0 - - -;
#X obj 240 108 hradio 15 1 0 8 empty empty empty 0 -8 0 10 -262144
-1 -1 1;
#X obj 281 136 hradio 15 1 0 8 empty empty empty 0 -8 0 10 -262144
-1 -1 1;
#X obj 325 165 hradio 15 1 0 8 empty empty empty 0 -8 0 10 -262144
-1 -1 0;
#X obj 196 101 + 8;
#X obj 240 134 + 16;
#X obj 281 158 + 24;
#X obj 325 191 + 32;
#X connect 1 0 0 2;
#X connect 2 0 0 0;
#X connect 3 0 5 0;
#X connect 4 0 9 0;
#X connect 5 0 0 1;
#X connect 6 0 10 0;
#X connect 7 0 11 0;
#X connect 8 0 12 0;
#X connect 9 0 5 0;
#X connect 10 0 5 0;
#X connect 11 0 5 0;
#X connect 12 0 5 0;
