#N canvas 106 120 1373 538 10;
#X declare -lib mrpeach;
#X obj 5 2 import mrpeach;
#X obj 23 149 packOSC;
#X obj 23 187 udpsend;
#X msg 92 170 disconnect;
#X obj 23 222 tgl 15 0 empty empty 1=connected 20 8 0 8 -4034 -257985
-1 1 1;
#X msg 62 127 [;
#X msg 23 127 ];
#X obj 23 103 t b a b;
#X msg 21 87 sendtyped /servo ii \$1 \$2;
#X msg 23 65 1 \$1;
#X msg 58 65 2 \$1;
#X msg 93 65 3 \$1;
#X msg 128 65 4 \$1;
#X msg 165 65 5 \$1;
#X msg 201 65 6 \$1;
#X msg 236 65 7 \$1;
#X msg 271 65 8 \$1;
#X msg 306 65 9 \$1;
#X obj 96 418 hsl 128 15 544 2000 0 0 empty empty empty -2 -8 0 10
-262144 -1 -1 12700 0;
#X obj 142 438 hsl 128 15 544 2000 0 0 empty empty empty -2 -8 0 10
-262144 -1 -1 12700 0;
#X obj 188 457 hsl 128 15 544 2000 0 0 empty empty empty -2 -8 0 10
-262144 -1 -1 12700 0;
#X obj 335 417 hsl 128 15 544 2000 0 0 empty empty empty -2 -8 0 10
-262144 -1 -1 12700 0;
#X obj 381 437 hsl 128 15 544 2000 0 0 empty empty empty -2 -8 0 10
-262144 -1 -1 12700 0;
#X obj 422 457 hsl 128 15 544 2000 0 0 empty empty empty -2 -8 0 10
-262144 -1 -1 12700 0;
#X obj 571 416 hsl 128 15 544 2000 0 0 empty empty empty -2 -8 0 10
-262144 -1 -1 12700 0;
#X obj 617 436 hsl 128 15 544 2000 0 0 empty empty empty -2 -8 0 10
-262144 -1 -1 12700 0;
#X obj 658 456 hsl 128 15 544 2000 0 0 empty empty empty -2 -8 0 10
-262144 -1 -1 12700 0;
#X msg 201 299 reset;
#X obj 200 321 cycle 2;
#X obj 200 382 line;
#X obj 202 249 tgl 15 0 empty empty empty 17 7 0 10 -262144 -1 -1 0
1;
#X obj 201 275 metro 20000;
#X msg 252 365 1200 10000;
#X msg 74 148 connect 192.168.1.27 8888;
#X floatatom 724 401 5 0 0 0 - - -;
#X floatatom 44 433 5 0 0 0 - - -;
#X floatatom 83 453 5 0 0 0 - - -;
#X obj 726 326 *~;
#X obj 741 172 vsl 15 128 0 6 0 0 empty empty A1 3 -9 0 10 -262144
-1 -1 0 1;
#X obj 861 417 dac~ 1 2;
#X obj 691 309 adc~ 11;
#X obj 953 331 *~;
#X obj 968 177 vsl 15 128 0 5 0 0 empty empty B1 2 -9 0 10 -262144
-1 -1 0 1;
#X obj 918 314 adc~ 14;
#X msg 200 342 1500 10000;
#X floatatom 298 433 5 0 0 0 - - -;
#X msg 338 304 reset;
#X obj 337 326 cycle 2;
#X obj 337 387 line;
#X obj 339 254 tgl 15 0 empty empty empty 17 7 0 10 -262144 -1 -1 0
1;
#X obj 338 280 metro 20000;
#X msg 337 347 800 10000;
#X msg 389 370 1100 10000;
#X floatatom 563 457 5 0 0 0 - - -;
#X obj 795 326 *~;
#X obj 810 172 vsl 15 128 0 3 0 0 empty empty A2 2 -9 0 10 -262144
-1 -1 0 1;
#X obj 864 328 *~;
#X obj 879 174 vsl 15 128 0 1 0 0 empty empty A3 2 -9 0 10 -262144
-1 -1 0 1;
#X obj 760 309 adc~ 12;
#X obj 829 311 adc~ 13;
#X obj 1033 331 *~;
#X obj 1048 177 vsl 15 128 0 2 0 0 empty empty B2 2 -9 0 10 -262144
-1 -1 0 1;
#X obj 1110 333 *~;
#X obj 1125 179 vsl 15 128 0 3 0 0 empty empty B3 2 -9 0 10 -262144
-1 -1 0 1;
#X obj 998 314 adc~ 15;
#X obj 1075 316 adc~ 16;
#X obj 1198 332 *~;
#X obj 1213 178 vsl 15 128 0 1 0 0 empty empty C1 2 -9 0 10 -262144
-1 -1 0 1;
#X obj 1278 332 *~;
#X obj 1293 178 vsl 15 128 0 1 0 0 empty empty C2 2 -9 0 10 -262144
-1 -1 0 1;
#X obj 1163 315 adc~ 17;
#X obj 1243 315 adc~ 18;
#X floatatom 341 465 5 0 0 0 - - -;
#X floatatom 362 499 5 0 0 0 - - -;
#X msg 500 305 reset;
#X obj 499 327 cycle 2;
#X obj 501 255 tgl 15 0 empty empty empty 17 7 0 10 -262144 -1 -1 0
1;
#X obj 499 399 line;
#X obj 500 281 metro 10500;
#X msg 499 348 1402 9500;
#X msg 551 371 1540 10000;
#N canvas 186 23 1199 844 sequence 1;
#X obj 68 230 s A3;
#X msg 591 63 A3;
#X msg 592 90 A2;
#X msg 591 118 A1;
#X msg 560 118 B1;
#X msg 561 90 B2;
#X msg 560 63 B3;
#X msg 527 118 C1;
#X msg 528 90 C2;
#X msg 527 63 C3;
#X msg 554 159 face;
#X obj 101 230 s C1;
#X obj 133 230 s A1;
#X obj 165 230 s C3;
#X msg 34 213 2000;
#X obj 68 148 random 4;
#X obj 68 189 gate 4;
#X floatatom 41 185 2 0 0 0 - - -;
#X obj 122 172 line;
#X obj 41 76 t b b;
#X obj 93 40 tgl 15 0 empty empty empty 17 7 0 10 -262144 -1 -1 0 1
;
#X obj 68 168 + 1;
#X floatatom 176 189 5 0 0 0 - - -;
#X obj 41 112 bng 15 250 50 0 empty empty empty 17 7 0 10 -262144 -1
-1;
#X obj 122 93 t b b;
#X msg 122 132 1200 2000;
#X obj 73 504 s B1;
#X msg 221 23 1;
#X msg 250 23 0;
#X msg 73 435 1450 10000;
#X obj 100 353 del 40000;
#X obj 145 370 t b b;
#X obj 157 467 cycle 2;
#X obj 157 428 metro 6000;
#X msg 157 447 reset;
#X msg 182 386 1;
#X obj 157 407 tgl 15 0 empty empty empty 17 7 0 10 -262144 -1 -1 0
1;
#X msg 73 410 2000;
#X obj 231 368 r stop;
#X msg 231 390 0;
#X obj 48 43 r stop;
#X msg 48 23 0;
#X obj 32 374 r stop;
#X obj 32 393 del 200;
#X obj 73 320 t b b;
#X msg 289 336 stop;
#X obj 289 314 r stop;
#X obj 289 387 del 65000;
#X msg 289 487 2000 8000;
#X msg 157 487 1200 3000;
#X msg 221 487 1450 3000;
#X obj 73 293 bng 15 250 50 0 empty empty empty 17 7 0 10 -262144 -1
-1;
#X obj 365 8 bng 15 250 50 0 empty empty debut 17 7 0 10 -262144 -1
-1;
#X obj 428 8 bng 15 250 50 0 empty empty fin 17 7 0 10 -262144 -1 -1
;
#X obj 358 278 bng 15 250 50 0 empty empty debut_III_IV_V_VI 17 7 0
10 -262144 -1 -1;
#X msg 3 -5 I/ II/ Matière/ Rétrecissement;
#X msg 6 264 III/ IV/ V/ VI/ allumage corde B1/ pico-proj;
#X obj 81 681 s B2;
#X obj 289 407 t b b b;
#X obj 341 424 bng 15 250 50 0 empty empty fin 17 7 0 10 -262144 -1
-1;
#X msg 81 647 1200;
#X obj 128 619 del 40000;
#X msg 128 645 2000;
#X obj 81 602 t b b;
#X obj 81 574 bng 15 250 50 0 empty empty empty 17 7 0 10 -262144 -1
-1;
#X msg 218 647 1200;
#X obj 265 619 del 40000;
#X obj 218 602 t b b;
#X obj 218 574 bng 15 250 50 0 empty empty empty 17 7 0 10 -262144
-1 -1;
#X obj 218 681 s B3;
#X obj 365 559 bng 15 250 50 0 empty empty debut_VII/VIII 17 7 0 10
-262144 -1 -1;
#X obj 489 559 bng 15 250 50 0 empty empty debut_IX 17 7 0 10 -262144
-1 -1;
#X msg 9 535 VII/ VIII/ IX/ allers-retours B2-B3;
#X obj 48 817 s A2;
#X obj 268 815 s C2;
#X msg 48 793 1200 20000;
#X obj 198 756 del 60000;
#X msg 119 793 2000 20000;
#X obj 365 730 bng 15 250 50 0 empty empty debut_X 17 7 0 10 -262144
-1 -1;
#X msg 8 708 X/ descente boule et picos A et C;
#X msg 633 758 2000 5000;
#X obj 555 732 bng 15 250 50 0 empty empty debut_XI 17 7 0 10 -262144
-1 -1;
#X obj 633 733 bng 15 250 50 0 empty empty fin_XI 17 7 0 10 -262144
-1 -1;
#X msg 557 698 XI/ crossfade;
#X obj 365 42 r I-1;
#X obj 358 253 r I-2;
#X obj 365 534 r I-3;
#X obj 489 537 r I-4;
#X obj 365 702 r I-5;
#X obj 496 715 r I-6;
#X obj 675 716 r I-7;
#X obj 428 41 r I-2;
#X obj 964 66 s I-1;
#X obj 689 117 s I-2;
#X obj 964 42 bng 15 250 50 0 empty empty empty 17 7 0 10 -262144 -1
-1;
#X obj 689 99 bng 15 250 50 0 empty empty empty 17 7 0 10 -262144 -1
-1;
#X obj 739 82 t b b;
#X obj 739 34 bng 15 250 50 0 empty empty empty 17 7 0 10 -262144 -1
-1;
#X obj 739 58 del 60000;
#X obj 766 105 del 100000;
#X obj 691 177 bng 15 250 50 0 empty empty empty 17 7 0 10 -262144
-1 -1;
#X obj 766 160 t b b;
#X obj 691 197 s I-3;
#X obj 793 191 del 40000;
#X obj 694 265 s I-4;
#X obj 694 245 bng 15 250 50 0 empty empty empty 17 7 0 10 -262144
-1 -1;
#X obj 793 228 t b b;
#X obj 696 327 s I-5;
#X obj 696 304 bng 15 250 50 0 empty empty empty 17 7 0 10 -262144
-1 -1;
#X obj 820 287 t b b;
#X obj 847 341 del 60000;
#X obj 698 379 s I-6;
#X obj 985 341 s I-7;
#X obj 698 358 bng 15 250 50 0 empty empty empty 17 7 0 10 -262144
-1 -1;
#X obj 985 321 bng 15 250 50 0 empty empty fin 17 7 0 10 -262144 -1
-1;
#X msg 277 795 2000 20000;
#X obj 198 776 t b b;
#X obj 48 744 t b b b;
#X msg 265 645 2000 5000;
#X obj 820 259 del 30000;
#X msg 555 758 1270 1000;
#X obj 664 468 r I-1;
#X obj 607 586 s MA1;
#X obj 658 611 s MA3;
#X obj 691 586 s MC1;
#X msg 635 531 0.5;
#X obj 224 79 bng 15 250 50 0 empty empty empty 17 7 0 10 -262144 -1
-1;
#X msg 691 540 0.4;
#X obj 664 514 t b b;
#X obj 186 110 del 5000;
#X msg 186 132 2000 100;
#X obj 94 59 metro 7100;
#X obj 781 468 r I-2;
#X msg 735 519 0 5000;
#X obj 781 585 s MB1;
#X obj 847 468 r I-3;
#X obj 781 492 t b b;
#X obj 847 495 t b b;
#X msg 825 531 0 10000;
#X obj 877 588 s MB2;
#X obj 933 465 r I-4;
#X obj 931 495 t b b;
#X msg 909 531 0 10000;
#X msg 961 532 0.5;
#X obj 1052 470 r I-5;
#X obj 1052 501 t b b;
#X msg 1000 534 0 10000;
#X msg 1052 568 0.5;
#X obj 961 588 s MB3;
#X obj 1052 603 s MA2;
#X obj 1088 604 s MC2;
#X obj 1131 475 r I-6;
#X obj 1143 594 s MA3;
#X msg 781 532 2.6;
#X msg 877 532 0.9;
#X msg 1095 526 0 20000;
#X obj 1052 546 t b b;
#X msg 1086 567 0.3;
#X obj 928 273 bng 15 250 50 0 empty empty empty 17 7 0 10 -262144
-1 -1;
#X msg 202 795 1100 20000;
#X msg 310 772 1100;
#X obj 555 788 s C3;
#X msg 1143 551 0.06;
#X msg 653 586 0.06;
#X obj 635 558 t f b;
#X connect 14 0 0 0;
#X connect 14 0 11 0;
#X connect 14 0 12 0;
#X connect 14 0 13 0;
#X connect 15 0 21 0;
#X connect 16 0 0 0;
#X connect 16 1 11 0;
#X connect 16 2 12 0;
#X connect 16 3 13 0;
#X connect 18 0 16 1;
#X connect 18 0 22 0;
#X connect 19 0 24 0;
#X connect 19 1 15 0;
#X connect 20 0 131 0;
#X connect 21 0 16 0;
#X connect 21 0 17 0;
#X connect 23 0 19 0;
#X connect 24 0 25 0;
#X connect 24 1 129 0;
#X connect 25 0 18 0;
#X connect 27 0 20 0;
#X connect 28 0 20 0;
#X connect 29 0 26 0;
#X connect 30 0 31 0;
#X connect 31 0 47 0;
#X connect 31 1 35 0;
#X connect 32 0 49 0;
#X connect 32 1 50 0;
#X connect 33 0 34 0;
#X connect 34 0 32 0;
#X connect 35 0 36 0;
#X connect 36 0 33 0;
#X connect 37 0 26 0;
#X connect 38 0 39 0;
#X connect 39 0 36 0;
#X connect 40 0 41 0;
#X connect 41 0 20 0;
#X connect 42 0 43 0;
#X connect 43 0 37 0;
#X connect 44 0 29 0;
#X connect 44 1 30 0;
#X connect 45 0 30 0;
#X connect 45 0 47 0;
#X connect 46 0 45 0;
#X connect 47 0 58 0;
#X connect 48 0 26 0;
#X connect 49 0 26 0;
#X connect 50 0 26 0;
#X connect 51 0 44 0;
#X connect 52 0 27 0;
#X connect 53 0 28 0;
#X connect 54 0 51 0;
#X connect 58 0 48 0;
#X connect 58 1 39 0;
#X connect 58 2 59 0;
#X connect 60 0 57 0;
#X connect 61 0 62 0;
#X connect 62 0 57 0;
#X connect 63 0 60 0;
#X connect 63 1 61 0;
#X connect 64 0 63 0;
#X connect 65 0 69 0;
#X connect 66 0 118 0;
#X connect 67 0 65 0;
#X connect 67 1 66 0;
#X connect 68 0 67 0;
#X connect 70 0 64 0;
#X connect 71 0 68 0;
#X connect 75 0 73 0;
#X connect 76 0 116 0;
#X connect 77 0 73 0;
#X connect 78 0 117 0;
#X connect 80 0 161 0;
#X connect 81 0 120 0;
#X connect 82 0 80 0;
#X connect 84 0 52 0;
#X connect 85 0 54 0;
#X connect 86 0 70 0;
#X connect 87 0 71 0;
#X connect 88 0 78 0;
#X connect 89 0 81 0;
#X connect 90 0 82 0;
#X connect 91 0 53 0;
#X connect 94 0 92 0;
#X connect 95 0 93 0;
#X connect 96 0 95 0;
#X connect 96 1 99 0;
#X connect 97 0 98 0;
#X connect 98 0 96 0;
#X connect 99 0 101 0;
#X connect 100 0 102 0;
#X connect 101 0 100 0;
#X connect 101 1 103 0;
#X connect 103 0 106 0;
#X connect 105 0 104 0;
#X connect 106 0 105 0;
#X connect 106 1 119 0;
#X connect 108 0 107 0;
#X connect 109 0 108 0;
#X connect 109 1 110 0;
#X connect 110 0 113 0;
#X connect 113 0 111 0;
#X connect 114 0 112 0;
#X connect 115 0 74 0;
#X connect 116 0 77 0;
#X connect 116 1 115 0;
#X connect 117 0 75 0;
#X connect 117 1 159 0;
#X connect 117 2 76 0;
#X connect 118 0 69 0;
#X connect 119 0 109 0;
#X connect 120 0 161 0;
#X connect 121 0 128 0;
#X connect 125 0 164 0;
#X connect 126 0 24 0;
#X connect 127 0 124 0;
#X connect 128 0 125 0;
#X connect 128 1 127 0;
#X connect 129 0 130 0;
#X connect 130 0 18 0;
#X connect 131 0 19 0;
#X connect 132 0 136 0;
#X connect 133 0 124 0;
#X connect 133 0 123 0;
#X connect 133 0 122 0;
#X connect 135 0 137 0;
#X connect 136 0 133 0;
#X connect 136 1 153 0;
#X connect 137 0 154 0;
#X connect 137 1 138 0;
#X connect 138 0 134 0;
#X connect 140 0 141 0;
#X connect 141 0 143 0;
#X connect 141 1 142 0;
#X connect 142 0 139 0;
#X connect 143 0 148 0;
#X connect 144 0 145 0;
#X connect 145 0 156 0;
#X connect 145 1 146 0;
#X connect 146 0 148 0;
#X connect 147 0 149 0;
#X connect 151 0 155 0;
#X connect 151 0 162 0;
#X connect 153 0 134 0;
#X connect 154 0 139 0;
#X connect 155 0 149 0;
#X connect 155 0 150 0;
#X connect 156 0 147 0;
#X connect 156 1 157 0;
#X connect 157 0 150 0;
#X connect 158 0 109 0;
#X connect 159 0 74 0;
#X connect 160 0 74 0;
#X connect 162 0 152 0;
#X connect 163 0 123 0;
#X connect 164 0 122 0;
#X connect 164 1 163 0;
#X restore 699 90 pd sequence A;
#X obj 23 22 r A1;
#X obj 58 22 r A2;
#X obj 93 22 r A3;
#X obj 128 22 r B1;
#X obj 165 22 r B2;
#X obj 201 22 r B3;
#X obj 236 22 r C1;
#X obj 271 22 r C2;
#X obj 306 22 r C3;
#X obj 93 435 s A1;
#X obj 139 464 s A2;
#X obj 180 484 s A3;
#X obj 332 443 s B1;
#X obj 378 463 s B2;
#X obj 419 483 s B3;
#X obj 568 433 s C1;
#X obj 614 462 s C2;
#X obj 655 482 s C3;
#X obj 23 45 line;
#X msg 665 14 Valeurs 544 ouvert à 100% \, 1500 == neutre \, 2400
== fermé 100%;
#X obj 58 45 line;
#X obj 93 45 line;
#X obj 128 45 line;
#X obj 165 45 line;
#X obj 200 45 line;
#X obj 235 45 line;
#X obj 270 45 line;
#X obj 306 45 line;
#X obj 736 116 r MA1;
#X obj 808 115 r MA2;
#X obj 877 114 r MA3;
#X obj 964 115 r MB1;
#X obj 1036 115 r MB2;
#X obj 1105 114 r MB3;
#X obj 1215 113 r MC1;
#X obj 1287 113 r MC2;
#X obj 736 140 line;
#X obj 808 139 line;
#X obj 877 137 line;
#X obj 964 138 line;
#X obj 1041 137 line;
#X obj 1113 136 line;
#X obj 1182 134 line;
#X obj 1269 135 line;
#X floatatom 922 243 5 0 0 0 - - -;
#X floatatom 1008 242 5 0 0 0 - - -;
#X floatatom 1321 304 5 0 0 0 - - -;
#X floatatom 842 289 5 0 0 0 - - -;
#X obj 443 206 loadbang;
#X obj 526 222 s setup;
#X obj 650 369 r setup;
#X msg 646 392 2000;
#N canvas 741 56 741 273 matière 1;
#X obj 127 2 tgl 15 0 empty empty empty 17 7 0 10 -262144 -1 -1 0 1
;
#X obj 168 206 s C1;
#X obj 204 206 s C3;
#X obj 127 138 line;
#X obj 131 173 gate 3;
#X obj 131 206 s C2;
#X obj 127 40 t b b;
#X obj 64 57 random 3;
#X obj 64 156 + 1;
#X obj 198 88 del 10000;
#X obj 127 71 t b b;
#X obj 127 20 metro 24000;
#X msg 198 108 1930 10000;
#X msg 127 108 1830 10000;
#X obj 372 4 tgl 15 0 empty empty empty 17 7 0 10 -262144 -1 -1 0 1
;
#X obj 372 140 line;
#X obj 376 175 gate 3;
#X obj 372 42 t b b;
#X obj 309 59 random 3;
#X obj 309 158 + 1;
#X obj 443 90 del 10000;
#X obj 372 73 t b b;
#X msg 372 110 1800 10000;
#X msg 443 110 1950 10000;
#X obj 376 208 s A1;
#X obj 413 208 s A2;
#X obj 449 208 s A3;
#X obj 372 22 metro 23500;
#X connect 0 0 11 0;
#X connect 3 0 4 1;
#X connect 4 0 5 0;
#X connect 4 1 1 0;
#X connect 4 2 2 0;
#X connect 6 0 10 0;
#X connect 6 1 7 0;
#X connect 7 0 8 0;
#X connect 8 0 4 0;
#X connect 9 0 12 0;
#X connect 10 0 13 0;
#X connect 10 1 9 0;
#X connect 11 0 6 0;
#X connect 12 0 3 0;
#X connect 13 0 3 0;
#X connect 14 0 27 0;
#X connect 15 0 16 1;
#X connect 16 0 24 0;
#X connect 16 1 25 0;
#X connect 16 2 26 0;
#X connect 17 0 21 0;
#X connect 17 1 18 0;
#X connect 18 0 19 0;
#X connect 19 0 16 0;
#X connect 20 0 23 0;
#X connect 21 0 22 0;
#X connect 21 1 20 0;
#X connect 22 0 15 0;
#X connect 23 0 15 0;
#X connect 27 0 17 0;
#X restore 1069 51 pd matière;
#X floatatom 356 62 5 0 0 0 - - -;
#X floatatom 393 62 5 0 0 0 - - -;
#X floatatom 430 63 5 0 0 0 - - -;
#X floatatom 467 63 5 0 0 0 - - -;
#X floatatom 504 62 5 0 0 0 - - -;
#X floatatom 541 62 5 0 0 0 - - -;
#X floatatom 578 62 5 0 0 0 - - -;
#X floatatom 615 62 5 0 0 0 - - -;
#X floatatom 654 62 5 0 0 0 - - -;
#X msg 123 200 connect 192.168.1.101 8888;
#X connect 1 0 2 0;
#X connect 2 0 4 0;
#X connect 3 0 2 0;
#X connect 5 0 1 0;
#X connect 6 0 1 0;
#X connect 7 0 6 0;
#X connect 7 1 1 0;
#X connect 7 2 5 0;
#X connect 8 0 7 0;
#X connect 9 0 8 0;
#X connect 10 0 8 0;
#X connect 11 0 8 0;
#X connect 12 0 8 0;
#X connect 13 0 8 0;
#X connect 14 0 8 0;
#X connect 15 0 8 0;
#X connect 16 0 8 0;
#X connect 17 0 8 0;
#X connect 18 0 35 0;
#X connect 18 0 91 0;
#X connect 19 0 36 0;
#X connect 19 0 92 0;
#X connect 20 0 93 0;
#X connect 21 0 45 0;
#X connect 21 0 94 0;
#X connect 22 0 72 0;
#X connect 22 0 95 0;
#X connect 23 0 73 0;
#X connect 23 0 96 0;
#X connect 24 0 34 0;
#X connect 24 0 97 0;
#X connect 25 0 53 0;
#X connect 25 0 98 0;
#X connect 26 0 99 0;
#X connect 27 0 28 0;
#X connect 28 0 44 0;
#X connect 28 1 32 0;
#X connect 29 0 18 0;
#X connect 30 0 31 0;
#X connect 31 0 27 0;
#X connect 32 0 29 0;
#X connect 33 0 2 0;
#X connect 37 0 39 0;
#X connect 37 0 39 1;
#X connect 38 0 37 1;
#X connect 40 0 37 0;
#X connect 41 0 39 0;
#X connect 41 0 39 1;
#X connect 42 0 41 1;
#X connect 42 0 126 0;
#X connect 43 0 41 0;
#X connect 44 0 29 0;
#X connect 46 0 47 0;
#X connect 47 0 51 0;
#X connect 47 1 52 0;
#X connect 48 0 21 0;
#X connect 49 0 50 0;
#X connect 50 0 46 0;
#X connect 51 0 48 0;
#X connect 52 0 48 0;
#X connect 54 0 39 0;
#X connect 54 0 39 1;
#X connect 55 0 54 1;
#X connect 56 0 39 1;
#X connect 56 0 39 0;
#X connect 57 0 56 1;
#X connect 57 0 129 0;
#X connect 58 0 54 0;
#X connect 59 0 56 0;
#X connect 60 0 39 0;
#X connect 60 0 39 1;
#X connect 61 0 60 1;
#X connect 61 0 127 0;
#X connect 62 0 39 1;
#X connect 62 0 39 0;
#X connect 63 0 62 1;
#X connect 64 0 60 0;
#X connect 65 0 62 0;
#X connect 66 0 39 0;
#X connect 66 0 39 1;
#X connect 67 0 66 1;
#X connect 68 0 39 0;
#X connect 68 0 39 1;
#X connect 69 0 68 1;
#X connect 69 0 128 0;
#X connect 70 0 66 0;
#X connect 71 0 68 0;
#X connect 74 0 75 0;
#X connect 75 0 79 0;
#X connect 75 1 80 0;
#X connect 76 0 78 0;
#X connect 77 0 23 0;
#X connect 78 0 74 0;
#X connect 79 0 77 0;
#X connect 80 0 77 0;
#X connect 82 0 100 0;
#X connect 83 0 102 0;
#X connect 84 0 103 0;
#X connect 85 0 104 0;
#X connect 86 0 105 0;
#X connect 87 0 106 0;
#X connect 88 0 107 0;
#X connect 89 0 108 0;
#X connect 90 0 109 0;
#X connect 100 0 9 0;
#X connect 100 0 135 0;
#X connect 102 0 10 0;
#X connect 102 0 136 0;
#X connect 103 0 11 0;
#X connect 103 0 137 0;
#X connect 104 0 12 0;
#X connect 104 0 138 0;
#X connect 105 0 13 0;
#X connect 105 0 139 0;
#X connect 106 0 14 0;
#X connect 106 0 140 0;
#X connect 107 0 15 0;
#X connect 107 0 141 0;
#X connect 108 0 16 0;
#X connect 108 0 142 0;
#X connect 109 0 17 0;
#X connect 109 0 143 0;
#X connect 110 0 118 0;
#X connect 111 0 119 0;
#X connect 112 0 120 0;
#X connect 113 0 121 0;
#X connect 114 0 122 0;
#X connect 115 0 123 0;
#X connect 116 0 124 0;
#X connect 117 0 125 0;
#X connect 118 0 38 0;
#X connect 119 0 55 0;
#X connect 120 0 57 0;
#X connect 121 0 42 0;
#X connect 122 0 61 0;
#X connect 123 0 63 0;
#X connect 124 0 67 0;
#X connect 125 0 69 0;
#X connect 130 0 131 0;
#X connect 132 0 133 0;
#X connect 133 0 24 0;
#X connect 133 0 25 0;
#X connect 133 0 26 0;
#X connect 133 0 23 0;
#X connect 133 0 22 0;
#X connect 133 0 21 0;
#X connect 133 0 20 0;
#X connect 133 0 19 0;
#X connect 133 0 18 0;
#X connect 144 0 2 0;
