#N canvas 412 78 637 451 10;
#X declare -lib mrpeach;
#X obj 9 8 import mrpeach;
#X obj 31 184 packOSC;
#X obj 31 222 udpsend;
#X msg 100 205 disconnect;
#X obj 31 257 tgl 15 0 empty empty 1=connected 20 8 0 8 -4034 -257985
-1 1 1;
#X msg 70 162 [;
#X msg 31 162 ];
#X obj 31 138 t b a b;
#X msg 31 97 sendtyped /servo ii \$1 \$2;
#X msg 33 75 1 \$1;
#X msg 68 75 2 \$1;
#X msg 103 75 3 \$1;
#X msg 138 75 4 \$1;
#X msg 175 75 5 \$1;
#X msg 211 75 6 \$1;
#X msg 246 75 7 \$1;
#X msg 281 75 8 \$1;
#X msg 316 75 9 \$1;
#X obj 33 32 r A1;
#X obj 68 32 r A2;
#X obj 103 32 r A3;
#X obj 138 32 r B1;
#X obj 175 32 r B2;
#X obj 211 32 r B3;
#X obj 246 32 r C1;
#X obj 281 32 r C2;
#X obj 316 32 r C3;
#X obj 33 55 line;
#X obj 68 55 line;
#X obj 103 55 line;
#X obj 138 55 line;
#X obj 175 55 line;
#X obj 210 55 line;
#X obj 245 55 line;
#X obj 280 55 line;
#X obj 316 55 line;
#X floatatom 33 119 5 0 0 0 - - -;
#X floatatom 68 119 5 0 0 0 - - -;
#X floatatom 103 119 5 0 0 0 - - -;
#X floatatom 138 119 5 0 0 0 - - -;
#X floatatom 175 119 5 0 0 0 - - -;
#X floatatom 210 119 5 0 0 0 - - -;
#X floatatom 245 119 5 0 0 0 - - -;
#X floatatom 280 119 5 0 0 0 - - -;
#X floatatom 316 119 5 0 0 0 - - -;
#X msg 131 235 connect 192.168.1.220 8888;
#X connect 1 0 2 0;
#X connect 2 0 4 0;
#X connect 3 0 2 0;
#X connect 5 0 1 0;
#X connect 6 0 1 0;
#X connect 7 0 6 0;
#X connect 7 1 1 0;
#X connect 7 2 5 0;
#X connect 8 0 7 0;
#X connect 9 0 8 0;
#X connect 10 0 8 0;
#X connect 11 0 8 0;
#X connect 12 0 8 0;
#X connect 13 0 8 0;
#X connect 14 0 8 0;
#X connect 15 0 8 0;
#X connect 16 0 8 0;
#X connect 17 0 8 0;
#X connect 18 0 27 0;
#X connect 19 0 28 0;
#X connect 20 0 29 0;
#X connect 21 0 30 0;
#X connect 22 0 31 0;
#X connect 23 0 32 0;
#X connect 24 0 33 0;
#X connect 25 0 34 0;
#X connect 26 0 35 0;
#X connect 27 0 9 0;
#X connect 27 0 36 0;
#X connect 28 0 10 0;
#X connect 28 0 37 0;
#X connect 29 0 11 0;
#X connect 29 0 38 0;
#X connect 30 0 12 0;
#X connect 30 0 39 0;
#X connect 31 0 13 0;
#X connect 31 0 40 0;
#X connect 32 0 14 0;
#X connect 32 0 41 0;
#X connect 33 0 15 0;
#X connect 33 0 42 0;
#X connect 34 0 16 0;
#X connect 34 0 43 0;
#X connect 35 0 17 0;
#X connect 35 0 44 0;
#X connect 45 0 2 0;
