#N canvas 595 23 707 705 10;
#X obj -10 -84 vsl 15 128 0 25000 0 0 empty empty empty 0 -9 0 10 -262144
-1 -1 0 1;
#X msg 13 11 1;
#X msg 41 11 2;
#X msg 70 11 3;
#X msg 98 11 4;
#X msg 126 11 5;
#X msg 154 11 6;
#X msg 183 11 7;
#X msg 211 11 8;
#X obj 13 65 s l1;
#X obj 43 65 s l2;
#X obj 73 65 s l3;
#X obj 103 65 s l4;
#X obj 133 65 s l5;
#X obj 163 65 s l6;
#X obj 193 65 s l7;
#X obj 223 65 s l8;
#X floatatom -10 85 10 0 0 0 - - -;
#X msg 275 12 9;
#X obj 254 65 s l9;
#X obj 286 64 s l10;
#X msg 303 12 10;
#X obj 322 63 s l11;
#X msg 331 12 11;
#X obj 360 62 s l12;
#X msg 359 12 12;
#X obj 398 62 s l13;
#X obj 435 62 s l14;
#X obj 472 62 s l15;
#X obj 509 62 s l16;
#X msg 387 12 13;
#X msg 415 12 14;
#X msg 443 12 15;
#X msg 471 12 16;
#X obj 13 47 cyclone/gate 16;
#X obj -36 22 vsl 15 128 0 25000 0 0 empty empty empty 0 -9 0 10 -262144
-1 -1 0 1;
#X msg 15 117 2;
#X msg 44 117 3;
#X msg 72 117 4;
#X msg 100 117 5;
#X msg 128 117 6;
#X msg 157 117 7;
#X msg 185 117 8;
#X floatatom -36 191 10 0 0 0 - - -;
#X msg 249 118 9;
#X msg 277 118 10;
#X msg 305 118 11;
#X msg 333 118 12;
#X msg 361 118 13;
#X msg 389 118 14;
#X msg 417 118 15;
#X msg 445 118 16;
#X obj -13 153 cyclone/gate 16;
#X msg -13 117 1;
#X obj -13 171 s l17;
#X obj 23 171 s l18;
#X obj 59 171 s l19;
#X obj 96 171 s l20;
#X obj 133 171 s l21;
#X obj 170 171 s l22;
#X obj 207 171 s l23;
#X obj 244 171 s l24;
#X obj 281 171 s l25;
#X obj 317 170 s l26;
#X obj 353 170 s l27;
#X obj 390 170 s l28;
#X obj 428 170 s l29;
#X obj 465 170 s l30;
#X obj 502 170 s l31;
#X obj 539 170 s l32;
#X obj -56 142 vsl 15 128 0 25000 0 0 empty empty empty 0 -9 0 10 -262144
-1 -1 0 1;
#X msg -5 237 2;
#X msg 24 237 3;
#X msg 52 237 4;
#X msg 80 237 5;
#X msg 108 237 6;
#X msg 137 237 7;
#X msg 165 237 8;
#X floatatom -56 311 10 0 0 0 - - -;
#X msg 229 238 9;
#X msg 257 238 10;
#X msg 285 238 11;
#X msg 313 238 12;
#X msg 341 238 13;
#X msg 369 238 14;
#X msg 397 238 15;
#X msg 425 238 16;
#X obj -33 273 cyclone/gate 16;
#X msg -33 237 1;
#X obj -33 291 s l33;
#X obj 3 291 s l34;
#X obj 39 291 s l35;
#X obj 76 291 s l36;
#X obj 113 291 s l37;
#X obj 150 291 s l38;
#X obj 187 291 s l39;
#X obj 224 291 s l40;
#X obj 261 291 s l41;
#X obj 297 290 s l42;
#X obj 333 290 s l43;
#X obj 370 290 s l44;
#X obj 408 290 s l45;
#X obj 445 290 s l46;
#X obj 482 290 s l47;
#X obj 519 290 s l48;
#X obj -77 248 vsl 15 128 0 25000 0 0 empty empty empty 0 -9 0 10 -262144
-1 -1 0 1;
#X msg -26 343 2;
#X msg 3 343 3;
#X msg 31 343 4;
#X msg 59 343 5;
#X msg 87 343 6;
#X msg 116 343 7;
#X msg 144 343 8;
#X floatatom -77 417 10 0 0 0 - - -;
#X msg 208 344 9;
#X msg 236 344 10;
#X msg 264 344 11;
#X msg 292 344 12;
#X msg 320 344 13;
#X msg 348 344 14;
#X msg 376 344 15;
#X msg 404 344 16;
#X obj -54 379 cyclone/gate 16;
#X msg -54 343 1;
#X obj -54 397 s l49;
#X obj -18 397 s l50;
#X obj 18 397 s l51;
#X obj 55 397 s l52;
#X obj 92 397 s l53;
#X obj 129 397 s l54;
#X obj 166 397 s l55;
#X obj 203 397 s l56;
#X obj 240 397 s l57;
#X obj 276 396 s l58;
#X obj 312 396 s l59;
#X obj 349 396 s l60;
#X obj 387 396 s l61;
#X obj 424 396 s l62;
#X obj 461 396 s l63;
#X obj 498 396 s l64;
#X obj -95 375 vsl 15 128 0 25000 0 0 empty empty empty 0 -9 0 10 -262144
-1 -1 0 1;
#X msg -44 477 2;
#X msg -15 477 3;
#X msg 13 477 4;
#X msg 41 477 5;
#X msg 69 477 6;
#X msg 98 477 7;
#X msg 126 477 8;
#X floatatom -95 544 10 0 0 0 - - -;
#X msg -72 477 1;
#X msg 157 477 9;
#X obj -72 507 cyclone/gate 9;
#X obj -72 524 s l655;
#X obj -35 524 s l66;
#X obj 0 524 s l67;
#X obj 37 524 s l68;
#X obj 74 524 s l69;
#X obj 111 524 s l70;
#X obj 148 524 s l71;
#X obj 185 524 s l72;
#X obj 222 524 s l73;
#X connect 0 0 17 0;
#X connect 0 0 34 1;
#X connect 1 0 34 0;
#X connect 2 0 34 0;
#X connect 3 0 34 0;
#X connect 4 0 34 0;
#X connect 5 0 34 0;
#X connect 6 0 34 0;
#X connect 7 0 34 0;
#X connect 8 0 34 0;
#X connect 18 0 34 0;
#X connect 21 0 34 0;
#X connect 23 0 34 0;
#X connect 25 0 34 0;
#X connect 30 0 34 0;
#X connect 31 0 34 0;
#X connect 32 0 34 0;
#X connect 33 0 34 0;
#X connect 34 0 9 0;
#X connect 34 1 10 0;
#X connect 34 2 11 0;
#X connect 34 3 12 0;
#X connect 34 4 13 0;
#X connect 34 5 14 0;
#X connect 34 6 15 0;
#X connect 34 7 16 0;
#X connect 34 8 19 0;
#X connect 34 9 20 0;
#X connect 34 10 22 0;
#X connect 34 11 24 0;
#X connect 34 12 26 0;
#X connect 34 13 27 0;
#X connect 34 14 28 0;
#X connect 34 15 29 0;
#X connect 35 0 43 0;
#X connect 35 0 52 1;
#X connect 36 0 52 0;
#X connect 37 0 52 0;
#X connect 38 0 52 0;
#X connect 39 0 52 0;
#X connect 40 0 52 0;
#X connect 41 0 52 0;
#X connect 42 0 52 0;
#X connect 44 0 52 0;
#X connect 45 0 52 0;
#X connect 46 0 52 0;
#X connect 47 0 52 0;
#X connect 48 0 52 0;
#X connect 49 0 52 0;
#X connect 50 0 52 0;
#X connect 51 0 52 0;
#X connect 52 0 54 0;
#X connect 52 1 55 0;
#X connect 52 2 56 0;
#X connect 52 3 57 0;
#X connect 52 4 58 0;
#X connect 52 5 59 0;
#X connect 52 6 60 0;
#X connect 52 7 61 0;
#X connect 52 8 62 0;
#X connect 52 9 63 0;
#X connect 52 10 64 0;
#X connect 52 11 65 0;
#X connect 52 12 66 0;
#X connect 52 13 67 0;
#X connect 52 14 68 0;
#X connect 52 15 69 0;
#X connect 53 0 52 0;
#X connect 70 0 78 0;
#X connect 70 0 87 1;
#X connect 71 0 87 0;
#X connect 72 0 87 0;
#X connect 73 0 87 0;
#X connect 74 0 87 0;
#X connect 75 0 87 0;
#X connect 76 0 87 0;
#X connect 77 0 87 0;
#X connect 79 0 87 0;
#X connect 80 0 87 0;
#X connect 81 0 87 0;
#X connect 82 0 87 0;
#X connect 83 0 87 0;
#X connect 84 0 87 0;
#X connect 85 0 87 0;
#X connect 86 0 87 0;
#X connect 87 0 89 0;
#X connect 87 1 90 0;
#X connect 87 2 91 0;
#X connect 87 3 92 0;
#X connect 87 4 93 0;
#X connect 87 5 94 0;
#X connect 87 6 95 0;
#X connect 87 7 96 0;
#X connect 87 8 97 0;
#X connect 87 9 98 0;
#X connect 87 10 99 0;
#X connect 87 11 100 0;
#X connect 87 12 101 0;
#X connect 87 13 102 0;
#X connect 87 14 103 0;
#X connect 87 15 104 0;
#X connect 88 0 87 0;
#X connect 105 0 113 0;
#X connect 105 0 122 1;
#X connect 106 0 122 0;
#X connect 107 0 122 0;
#X connect 108 0 122 0;
#X connect 109 0 122 0;
#X connect 110 0 122 0;
#X connect 111 0 122 0;
#X connect 112 0 122 0;
#X connect 114 0 122 0;
#X connect 115 0 122 0;
#X connect 116 0 122 0;
#X connect 117 0 122 0;
#X connect 118 0 122 0;
#X connect 119 0 122 0;
#X connect 120 0 122 0;
#X connect 121 0 122 0;
#X connect 122 0 124 0;
#X connect 122 1 125 0;
#X connect 122 2 126 0;
#X connect 122 3 127 0;
#X connect 122 4 128 0;
#X connect 122 5 129 0;
#X connect 122 6 130 0;
#X connect 122 7 131 0;
#X connect 122 8 132 0;
#X connect 122 9 133 0;
#X connect 122 10 134 0;
#X connect 122 11 135 0;
#X connect 122 12 136 0;
#X connect 122 13 137 0;
#X connect 122 14 138 0;
#X connect 122 15 139 0;
#X connect 123 0 122 0;
#X connect 140 0 148 0;
#X connect 140 0 151 1;
#X connect 141 0 151 0;
#X connect 142 0 151 0;
#X connect 143 0 151 0;
#X connect 144 0 151 0;
#X connect 145 0 151 0;
#X connect 146 0 151 0;
#X connect 147 0 151 0;
#X connect 149 0 151 0;
#X connect 150 0 151 0;
#X connect 151 0 152 0;
#X connect 151 1 153 0;
#X connect 151 2 154 0;
#X connect 151 3 155 0;
#X connect 151 4 156 0;
#X connect 151 5 157 0;
#X connect 151 6 158 0;
#X connect 151 7 159 0;
#X connect 151 8 160 0;
